<svg width="64" height="64" viewBox="0 0 24 24" fill="none" xmlns="http://www.w3.org/2000/svg" xmlns:xlink="http://www.w3.org/1999/xlink">
	<desc>
			Created with Pixso.
	</desc>
	<defs>
		<clipPath id="clip222_2882">
			<rect width="24.000000" height="24.000000" fill="white" fill-opacity="0"/>
		</clipPath>
	</defs>
	<g clip-path="url(#clip222_2882)">
		<path d="M21.57 8.8L21.57 12.01L22.3 12.69L20.78 14.16L19.24 12.74L20.3 11.85L20.3 9.31C15.86 11.15 14.39 11.78 13.39 12.2C12.4 12.61 11.68 12.61 10.7 12.26C9.71 11.92 5.1 10.11 2.7 9.07C1.15 8.38 1.05 7.95 2.73 7.36C4.92 6.59 8.54 4.75 10.46 4.07C11.6 3.64 12.2 3.41 13.24 3.9C15.11 4.61 19.37 6.7 21.48 7.51C23.33 8.25 22.09 8.5 21.57 8.8ZM13.61 13.43C14.69 13.01 16.15 12.14 17.74 11.51L17.74 18.36C17.74 18.36 15.68 20.39 12.07 20.39C8.17 20.39 6.06 18.36 6.06 18.36L6.06 11.85C7.29 12.31 8.67 12.9 10.34 13.43C11.37 13.77 12.67 13.89 13.61 13.43Z" fill="#64BB5C" fill-opacity="1.000000" fill-rule="nonzero"/>
	</g>
</svg>
