<svg width="64" height="64" viewBox="0 0 24 24" fill="none" xmlns="http://www.w3.org/2000/svg" xmlns:xlink="http://www.w3.org/1999/xlink">
	<desc>
			Created with Pixso.
	</desc>
	<defs>
		<clipPath id="clip222_2897">
			<rect width="24.000000" height="24.000000" fill="white" fill-opacity="0"/>
		</clipPath>
	</defs>
	<g clip-path="url(#clip222_2897)">
		<path d="M20.17 17C18.61 17 17.34 15.76 17.34 14.25C17.34 12.74 18.61 11.5 20.17 11.5C21.72 11.5 23 12.74 23 14.25C23 15.76 21.72 17 20.17 17ZM20.17 12.49C19.17 12.49 18.37 13.27 18.37 14.24C18.37 15.2 19.17 15.99 20.17 15.99C21.16 15.99 21.96 15.21 21.96 14.24C21.96 13.27 21.16 12.49 20.17 12.49ZM10.68 21C6.44 21 3 17.71 3 13.68L3 11.08C3 10.85 3.27 10.5 3.51 10.5L17.88 10.5C18.26 10.5 18.39 10.66 18.39 11.08L18.39 13.68C18.38 17.71 14.93 21 10.68 21ZM7.52 10.16C7.42 10.16 7.32 10.12 7.24 10.07C7.18 10.02 5.88 8.99 5.91 7.76C5.92 7.17 6.22 6.64 6.81 6.21C7.25 5.88 7.48 5.53 7.46 5.19C7.42 4.44 6.35 3.76 6.35 3.76C6.15 3.65 6.09 3.39 6.22 3.19C6.35 2.99 6.62 2.93 6.82 3.06C6.88 3.1 8.28 3.96 8.33 5.17C8.35 5.8 8.03 6.38 7.34 6.89C6.96 7.15 6.78 7.46 6.77 7.79C6.76 8.46 7.5 9.2 7.78 9.42C7.96 9.56 8 9.83 7.85 10.01C7.77 10.1 7.65 10.16 7.52 10.16ZM11.17 10.16C11.08 10.16 10.98 10.12 10.9 10.07C10.84 10.02 9.54 8.99 9.57 7.76C9.58 7.17 9.88 6.64 10.47 6.21C10.91 5.88 11.14 5.53 11.11 5.19C11.08 4.44 10.01 3.76 10.01 3.76C9.81 3.65 9.75 3.39 9.88 3.19C10.01 2.99 10.27 2.93 10.48 3.06C10.54 3.1 11.94 3.96 11.99 5.17C12.01 5.8 11.69 6.38 10.99 6.89C10.62 7.15 10.44 7.46 10.43 7.79C10.42 8.46 11.16 9.2 11.44 9.42C11.62 9.56 11.65 9.83 11.51 10.01C11.42 10.1 11.3 10.16 11.17 10.16ZM14.83 10.16C14.73 10.16 14.64 10.12 14.55 10.07C14.49 10.02 13.2 8.99 13.22 7.76C13.23 7.17 13.53 6.64 14.12 6.21C14.57 5.88 14.79 5.53 14.77 5.19C14.73 4.44 13.68 3.76 13.67 3.76C13.46 3.65 13.4 3.39 13.53 3.19C13.67 2.99 13.93 2.93 14.13 3.06C14.19 3.1 15.6 3.96 15.64 5.17C15.67 5.8 15.35 6.38 14.65 6.89C14.28 7.15 14.1 7.46 14.09 7.79C14.07 8.46 14.82 9.2 15.09 9.42C15.27 9.56 15.31 9.83 15.17 10.01C15.08 10.1 14.96 10.16 14.83 10.16Z" fill="#F9A01E" fill-opacity="1.000000" fill-rule="nonzero"/>
	</g>
</svg>
