<svg width="64" height="64" viewBox="0 0 24 24" fill="none" xmlns="http://www.w3.org/2000/svg" xmlns:xlink="http://www.w3.org/1999/xlink">
	<desc>
			Created with Pixso.
	</desc>
	<defs>
		<clipPath id="clip222_2892">
			<rect width="24.000000" height="24.000000" fill="white" fill-opacity="0"/>
		</clipPath>
	</defs>
	<g clip-path="url(#clip222_2892)">
		<path d="M18.98 8.73L12.16 8.73L12.16 6.13C12.44 6.09 12.88 5.89 13.38 5.66C16.1 4.45 15.93 5.92 16.9 5.2C17.87 4.48 16.8 2.63 14.61 3.07C12.97 3.41 12.16 5.02 11.95 5.53C11.73 5 11.07 3.81 9.54 3.26C6.91 2.3 5.69 4.22 6.66 4.94C7.63 5.66 7.86 4.55 10.58 5.76C11.01 5.95 11.4 6.14 11.67 6.2L11.67 8.72L5 8.72C4.45 8.72 4 9.12 4 9.61L4 11.22C4 11.51 4.15 11.76 4.39 11.92C4.42 11.96 4.49 11.99 4.57 12.02C4.67 12.07 4.79 12.09 4.91 12.1C4.94 12.11 4.98 12.11 5.01 12.11C5.03 12.11 5.25 12.11 5.62 12.12L6.63 19.41C6.63 20.28 7.43 21 8.41 21L15.65 21C16.63 21 17.43 20.29 17.43 19.41L18.44 12.11C18.79 12.11 18.99 12.11 18.99 12.11C19.06 12.11 19.12 12.11 19.19 12.09C19.25 12.08 19.31 12.07 19.36 12.05C19.73 11.92 20 11.6 20 11.22L20 9.62C19.99 9.12 19.54 8.73 18.98 8.73Z" fill="#61CFBE" fill-opacity="1.000000" fill-rule="nonzero"/>
	</g>
</svg>
