<svg width="64" height="64" viewBox="0 0 24 24" fill="none" xmlns="http://www.w3.org/2000/svg" xmlns:xlink="http://www.w3.org/1999/xlink">
	<desc>
			Created with Pixso.
	</desc>
	<defs>
		<clipPath id="clip222_2888">
			<rect width="24.000000" height="24.000000" fill="white" fill-opacity="0"/>
		</clipPath>
	</defs>
	<g clip-path="url(#clip222_2888)">
		<path d="M18.22 5.64L17.17 5.64L17.17 4.12C17.17 3.5 16.48 3 15.63 3L8.36 3C7.51 3 6.82 3.5 6.82 4.12L6.82 5.64L5.77 5.64C4.24 5.64 3 6.85 3 8.32L3 18.32C3 19.79 4.24 21 5.77 21L18.22 21C19.75 21 21 19.79 21 18.32L21 8.32C21 6.85 19.75 5.64 18.22 5.64ZM15.81 14.26C15.81 14.32 15.8 14.37 15.79 14.43C15.78 14.49 15.76 14.55 15.74 14.6C15.71 14.65 15.68 14.7 15.65 14.75C15.62 14.8 15.58 14.85 15.54 14.89C15.49 14.93 15.45 14.97 15.4 15C15.34 15.03 15.29 15.06 15.24 15.08C15.18 15.1 15.12 15.12 15.06 15.13C15 15.14 14.94 15.15 14.88 15.15L13.58 15.15L13.58 16.41C13.58 16.47 13.57 16.53 13.56 16.58C13.55 16.64 13.53 16.7 13.51 16.75C13.48 16.81 13.45 16.86 13.42 16.91C13.39 16.95 13.35 17 13.31 17.04C13.26 17.08 13.22 17.12 13.17 17.15C13.12 17.18 13.06 17.21 13.01 17.23C12.95 17.26 12.89 17.27 12.83 17.28C12.77 17.3 12.71 17.3 12.65 17.3L11.34 17.3C11.28 17.3 11.22 17.3 11.16 17.28C11.1 17.27 11.04 17.26 10.98 17.23C10.93 17.21 10.87 17.18 10.82 17.15C10.77 17.12 10.73 17.08 10.68 17.04C10.64 17 10.6 16.95 10.57 16.91C10.54 16.86 10.51 16.81 10.48 16.75C10.46 16.7 10.44 16.64 10.43 16.58C10.42 16.53 10.41 16.47 10.41 16.41L10.41 15.15L9.11 15.15C9.05 15.15 8.99 15.14 8.93 15.13C8.87 15.12 8.81 15.1 8.75 15.08C8.7 15.06 8.65 15.03 8.6 15C8.55 14.97 8.5 14.93 8.46 14.89C8.41 14.85 8.37 14.8 8.34 14.75C8.31 14.7 8.28 14.65 8.26 14.6C8.23 14.55 8.21 14.49 8.2 14.43C8.19 14.37 8.18 14.32 8.18 14.26L8.18 12.99C8.18 12.93 8.19 12.87 8.2 12.81C8.21 12.76 8.23 12.7 8.26 12.65C8.28 12.59 8.31 12.54 8.34 12.49C8.37 12.44 8.41 12.4 8.46 12.36C8.5 12.32 8.55 12.28 8.6 12.25C8.65 12.21 8.7 12.19 8.76 12.16C8.81 12.14 8.87 12.13 8.93 12.11C8.99 12.1 9.05 12.1 9.11 12.1L10.41 12.1L10.41 10.84C10.41 10.78 10.42 10.72 10.43 10.66C10.44 10.61 10.46 10.55 10.49 10.5C10.51 10.44 10.54 10.39 10.57 10.34C10.6 10.29 10.64 10.25 10.69 10.21C10.73 10.17 10.78 10.13 10.83 10.1C10.88 10.06 10.93 10.04 10.99 10.01C11.04 9.99 11.1 9.97 11.16 9.96C11.22 9.95 11.28 9.94 11.34 9.94L12.65 9.94C12.71 9.94 12.77 9.95 12.83 9.96C12.89 9.97 12.95 9.99 13.01 10.01C13.06 10.04 13.12 10.06 13.17 10.1C13.22 10.13 13.26 10.17 13.31 10.21C13.35 10.25 13.39 10.29 13.42 10.34C13.45 10.39 13.48 10.44 13.51 10.5C13.53 10.55 13.55 10.61 13.56 10.66C13.57 10.72 13.58 10.78 13.58 10.84L13.58 12.1L14.88 12.1C14.94 12.1 15 12.1 15.06 12.11C15.12 12.13 15.18 12.14 15.24 12.17C15.29 12.19 15.34 12.22 15.4 12.25C15.45 12.28 15.49 12.32 15.54 12.36C15.58 12.4 15.62 12.45 15.65 12.49C15.68 12.54 15.71 12.59 15.74 12.65C15.76 12.7 15.78 12.76 15.79 12.81C15.8 12.87 15.81 12.93 15.81 12.99L15.81 14.26ZM15.82 5.64L8.17 5.64L8.17 4.75C8.17 4.34 8.63 4 9.19 4L14.8 4C15.36 4 15.82 4.34 15.82 4.75L15.82 5.64Z" fill="#E84026" fill-opacity="1.000000" fill-rule="nonzero"/>
	</g>
</svg>
