<svg width="64" height="64" viewBox="0 0 24 24" fill="none" xmlns="http://www.w3.org/2000/svg" xmlns:xlink="http://www.w3.org/1999/xlink">
	<desc>
			Created with Pixso.
	</desc>
	<defs>
		<clipPath id="clip222_2884">
			<rect width="24.000000" height="24.000000" fill="white" fill-opacity="0"/>
		</clipPath>
	</defs>
	<g clip-path="url(#clip222_2884)">
		<path d="M20 16.2L20 17.12C20 17.41 19.96 17.67 19.89 17.89C19.82 18.1 19.69 18.28 19.5 18.4C19.32 18.53 19.04 18.6 18.67 18.6L18.67 19.79C18.67 20.12 18.54 20.4 18.28 20.64C18.01 20.88 17.7 21 17.33 21C16.96 21 16.65 20.88 16.39 20.64C16.13 20.4 16.01 20.12 16.01 19.79L16.01 18.6L7.98 18.6L7.98 19.79C7.98 20.12 7.86 20.4 7.6 20.64C7.34 20.88 7.03 21 6.66 21C6.29 21 5.98 20.88 5.71 20.64C5.45 20.4 5.32 20.12 5.32 19.79L5.32 18.6C4.96 18.6 4.69 18.53 4.51 18.4C4.32 18.28 4.19 18.1 4.12 17.89C4.05 17.67 4.01 17.42 4.01 17.13C4 16.84 4 16.53 4 16.2L4 5.39C4 5.06 4.07 4.75 4.21 4.46C4.35 4.18 4.54 3.92 4.78 3.7C5.03 3.49 5.31 3.31 5.63 3.19C5.95 3.06 6.29 3 6.66 3L17.33 3C17.7 3 18.04 3.06 18.36 3.19C18.68 3.31 18.96 3.49 19.21 3.7C19.45 3.92 19.64 4.18 19.78 4.46C19.92 4.75 20 5.06 20 5.39L20 16.2ZM9.29 4.18C9.1 4.18 8.94 4.24 8.82 4.36C8.69 4.47 8.62 4.61 8.62 4.78C8.62 4.96 8.69 5.11 8.82 5.22C8.94 5.34 9.1 5.39 9.29 5.39L14.7 5.39C14.89 5.39 15.05 5.34 15.17 5.22C15.3 5.11 15.37 4.96 15.37 4.78C15.37 4.61 15.3 4.47 15.17 4.36C15.05 4.24 14.89 4.18 14.7 4.18L9.29 4.18ZM7.28 16.39C7.55 16.39 7.78 16.3 7.97 16.13C8.17 15.96 8.26 15.75 8.26 15.51C8.26 15.26 8.17 15.06 7.97 14.88C7.78 14.71 7.55 14.62 7.28 14.62C7 14.62 6.76 14.71 6.58 14.88C6.39 15.06 6.3 15.26 6.3 15.51C6.3 15.75 6.39 15.96 6.58 16.13C6.76 16.3 7 16.39 7.28 16.39ZM16.62 16.35C16.88 16.35 17.1 16.27 17.28 16.1C17.45 15.94 17.54 15.74 17.54 15.51C17.54 15.28 17.45 15.08 17.28 14.91C17.1 14.75 16.88 14.66 16.62 14.66C16.35 14.66 16.13 14.75 15.95 14.91C15.77 15.08 15.69 15.28 15.69 15.51C15.69 15.74 15.77 15.94 15.95 16.1C16.13 16.27 16.35 16.35 16.62 16.35ZM18.67 6.58L5.32 6.58L5.32 11.38L18.67 11.38L18.67 6.58Z" fill="#0A59F7" fill-opacity="1.000000" fill-rule="nonzero"/>
	</g>
</svg>
