<svg width="24.000000" height="24.000000" viewBox="0 0 24 24" fill="none" xmlns="http://www.w3.org/2000/svg" xmlns:xlink="http://www.w3.org/1999/xlink">
	<desc>
			Created with Pixso.
	</desc>
	<defs>
		<clipPath id="clip34_4143">
			<rect width="24.000000" height="24.000000" fill="white" fill-opacity="0"/>
		</clipPath>
	</defs>
	<g clip-path="url(#clip34_4143)">
		<g opacity="0.000000">
			<rect width="24.000000" height="24.000000" fill="#000000" fill-opacity="1.000000"/>
		</g>
		<path d="M6 1.01C5.16 1.01 4.45 1.3 3.88 1.88C3.29 2.46 3 3.17 3 4.01L3 19.99C3 20.82 3.29 21.53 3.88 22.12C4.45 22.7 5.16 22.99 6 22.99L18 22.99C18.83 22.99 19.54 22.7 20.12 22.12C20.7 21.53 21 20.82 21 19.99L21 4.01C21 3.17 20.7 2.46 20.12 1.88C19.54 1.3 18.83 1.01 18 1.01L6 1.01ZM19.51 19.99C19.51 20.4 19.36 20.76 19.07 21.06C18.77 21.35 18.41 21.5 18 21.5L6 21.5C5.58 21.5 5.23 21.35 4.94 21.06C4.65 20.76 4.51 20.4 4.51 19.99L4.51 4.01C4.51 3.59 4.65 3.23 4.94 2.93C5.23 2.64 5.58 2.5 6 2.5L18 2.5C18.41 2.5 18.77 2.64 19.07 2.93C19.36 3.23 19.51 3.59 19.51 4.01L19.51 19.99ZM7.51 6.26C7.3 6.26 7.12 6.33 6.98 6.47C6.84 6.62 6.76 6.8 6.76 7.01C6.76 7.21 6.84 7.39 6.98 7.54C7.12 7.67 7.3 7.75 7.51 7.75L16.45 7.75C16.67 7.75 16.85 7.67 16.99 7.54C17.13 7.39 17.2 7.21 17.2 7.01C17.2 6.8 17.13 6.62 16.99 6.47C16.85 6.33 16.67 6.26 16.45 6.26L7.51 6.26ZM7.51 11.28C7.3 11.28 7.12 11.35 6.98 11.5C6.84 11.63 6.76 11.81 6.76 12.02C6.76 12.23 6.84 12.4 6.98 12.55C7.12 12.69 7.3 12.77 7.51 12.77L16.45 12.77C16.67 12.77 16.85 12.69 16.99 12.55C17.13 12.4 17.2 12.23 17.2 12.02C17.2 11.81 17.13 11.63 16.99 11.5C16.85 11.35 16.67 11.28 16.45 11.28L7.51 11.28ZM7.51 16.25C7.3 16.25 7.12 16.32 6.98 16.48C6.84 16.62 6.76 16.8 6.76 17.02C6.76 17.22 6.84 17.39 6.98 17.54C7.12 17.68 7.3 17.76 7.51 17.76L11.98 17.76C12.18 17.76 12.36 17.68 12.5 17.54C12.64 17.39 12.72 17.22 12.72 17.02C12.72 16.8 12.65 16.62 12.52 16.48C12.38 16.32 12.2 16.25 12 16.25L7.51 16.25Z" fill="#000000" fill-opacity="0.600000" fill-rule="nonzero"/>
	</g>
</svg>
