<svg width="12.000000" height="12.000000" viewBox="0 0 12 12" fill="none" xmlns="http://www.w3.org/2000/svg" xmlns:xlink="http://www.w3.org/1999/xlink">
	<desc>
			Created with Pixso.
	</desc>
	<defs>
		<clipPath id="clip25_1329">
			<rect width="12.000000" height="12.000000" fill="white" fill-opacity="0"/>
		</clipPath>
		<clipPath id="clip25_1327">
			<rect width="12.000000" height="12.000000" fill="white" fill-opacity="0"/>
		</clipPath>
	</defs>
	<g clip-path="url(#clip25_1327)">
		<g clip-path="url(#clip25_1329)">
			<path d="M4.27 0.66C1.94 0.66 0 2.66 0 5.11C0 6.37 0.52 7.48 1.27 8.29L4.05 11.18C4.19 11.33 4.5 11.33 4.64 11.18L7.42 8.29C8.17 7.48 8.69 6.37 8.69 5.11C8.62 2.66 6.67 0.66 4.27 0.66ZM12 7.48C12 8.22 11.7 8.96 11.17 9.48L9.37 11.25C9.3 11.33 9.14 11.33 9 11.25L7.19 9.48L7.19 9.4L7.94 8.66L8.47 8.14C8.62 8.37 9 8.51 9.3 8.51C9.89 8.51 10.42 7.99 10.42 7.48C10.42 6.96 9.89 6.44 9.3 6.44C9.37 5.99 9.44 5.55 9.44 5.11L9.44 4.73C10.87 4.81 12 5.99 12 7.48ZM8.25 11.33L5.25 11.33L6 10.59L7.5 10.59L8.25 11.33ZM4.27 6.59C3.3 6.59 2.55 5.85 2.55 4.96C2.55 4.07 3.37 3.25 4.27 3.25C5.25 3.25 6 3.92 6 4.88C6 5.85 5.25 6.59 4.27 6.59Z" fill="#64BB5C" fill-opacity="1.000000" fill-rule="nonzero"/>
		</g>
	</g>
</svg>
