<svg width="18.016113" height="21.790039" viewBox="0 0 18.0161 21.79" fill="none" xmlns="http://www.w3.org/2000/svg" xmlns:xlink="http://www.w3.org/1999/xlink">
    <desc>
        Created with Pixso.
    </desc>
    <defs/>
    <path id="矢量 219" d="M16.75 13.66C16.81 13.83 16.9 14 17.01 14.16L17.64 14.95C17.85 15.22 17.97 15.52 18 15.85C18.03 16.17 17.97 16.5 17.83 16.82C17.67 17.12 17.45 17.36 17.17 17.54C16.89 17.71 16.58 17.81 16.24 17.81L1.75 17.81C1.41 17.81 1.1 17.71 0.82 17.54C0.54 17.36 0.32 17.12 0.16 16.82C0.02 16.52 -0.03 16.2 0 15.88C0.03 15.54 0.15 15.24 0.36 14.98L1 14.16C1.14 14 1.23 13.83 1.28 13.66C1.34 13.48 1.36 13.28 1.36 13.08L1.36 8.83Q1.36 7.97 1.55 7.17Q1.77 6.25 2.22 5.39C2.79 4.31 3.57 3.41 4.56 2.71C5.15 2.26 5.88 1.9 6.76 1.63C6.9 1.16 7.17 0.78 7.58 0.46C8 0.15 8.48 0 9.02 0C9.55 0 10.02 0.15 10.44 0.46C10.86 0.76 11.13 1.15 11.25 1.63L11.59 1.72L11.78 1.78C12.74 2.12 13.59 2.65 14.32 3.34C15.06 4.04 15.64 4.85 16.04 5.78C16.45 6.71 16.65 7.69 16.65 8.71L16.65 13.08C16.65 13.28 16.69 13.48 16.75 13.66ZM6.22 19.04C6.26 19 6.32 18.98 6.38 18.98L11.64 18.98C11.7 18.98 11.75 19 11.78 19.04C11.82 19.08 11.83 19.13 11.83 19.2C11.79 19.92 11.49 20.53 10.94 21.04C10.4 21.54 9.76 21.79 9.02 21.79C8.27 21.79 7.62 21.54 7.08 21.04Q6.63 20.61 6.39 20.09Q6.21 19.67 6.16 19.2C6.16 19.13 6.18 19.08 6.22 19.04Z" fill="#FFFFFF" fill-opacity="1.000000" fill-rule="evenodd"/>
</svg>
