<svg width="21.500000" height="21.500000" viewBox="0 0 21.5 21.5" fill="none" xmlns="http://www.w3.org/2000/svg" xmlns:xlink="http://www.w3.org/1999/xlink">
	<desc>
			Created with Pixso.
	</desc>
	<defs/>
	<path id="path" d="M11.49 10.32L11.49 4.51C11.49 4.3 11.41 4.12 11.27 3.96C11.13 3.81 10.95 3.73 10.75 3.73C10.54 3.73 10.36 3.81 10.22 3.96C10.08 4.12 10 4.3 10 4.51L10 10.73L10.02 10.87C10.02 10.91 10.03 10.95 10.04 10.99C10.08 11.07 10.13 11.14 10.2 11.23C10.25 11.31 10.32 11.36 10.39 11.39L14.29 13.67C14.41 13.74 14.54 13.77 14.68 13.77C14.81 13.77 14.93 13.73 15.06 13.66C15.18 13.59 15.27 13.5 15.33 13.38C15.39 13.27 15.43 13.15 15.43 13.03C15.43 12.9 15.39 12.78 15.33 12.65C15.27 12.54 15.18 12.43 15.06 12.36L11.49 10.32ZM10.75 21.5C12.68 21.5 14.47 21.01 16.12 20.04C17.77 19.08 19.08 17.77 20.04 16.12C21.01 14.47 21.5 12.68 21.5 10.75C21.5 8.81 21.01 7.02 20.04 5.37C19.08 3.72 17.77 2.41 16.12 1.44C14.47 0.48 12.68 0 10.75 0C8.79 0 6.99 0.48 5.35 1.44C3.7 2.41 2.39 3.71 1.43 5.36C0.47 7 0 8.79 0 10.75C0 12.7 0.47 14.5 1.43 16.13C2.39 17.78 3.7 19.08 5.35 20.04C6.99 21.01 8.79 21.5 10.75 21.5ZM10.75 1.51C12.43 1.51 13.97 1.92 15.39 2.75C16.81 3.57 17.93 4.68 18.75 6.11C19.57 7.52 19.99 9.07 19.99 10.75C19.99 12.42 19.57 13.97 18.75 15.38C17.93 16.81 16.81 17.92 15.39 18.75C13.97 19.57 12.43 19.99 10.75 19.99C9.08 19.99 7.54 19.57 6.12 18.75C4.71 17.92 3.59 16.81 2.75 15.38C1.92 13.97 1.5 12.42 1.5 10.75C1.5 9.07 1.92 7.52 2.75 6.11C3.59 4.68 4.71 3.57 6.12 2.75C7.54 1.92 9.08 1.51 10.75 1.51Z" fill="#000000" fill-opacity="0.600000" fill-rule="nonzero"/>
</svg>
