<svg width="120.000000" height="120.000000" viewBox="0 0 120 120" fill="none" xmlns="http://www.w3.org/2000/svg" xmlns:xlink="http://www.w3.org/1999/xlink">
	<desc>
			Created with Pixso.
	</desc>
	<defs>
		<clipPath id="clip37_7739">
			<rect id="svg" width="120.000000" height="120.000000" fill="white" fill-opacity="0"/>
		</clipPath>
	</defs>
	<g clip-path="url(#clip37_7739)">
		<g opacity="0.150000">
			<ellipse id="椭圆形" cx="60.000000" cy="109.870605" rx="23.507439" ry="2.731956" fill="#A1A7B3" fill-opacity="1.000000"/>
			<ellipse id="椭圆形" cx="60.000000" cy="109.870605" rx="23.507439" ry="2.731956" stroke="#000000" stroke-opacity="0" stroke-width="1.000000"/>
		</g>
		<g opacity="0.300000">
			<path id="形状" d="M59.11 7L59.43 7C46.6 7.32 32.19 23.34 36.41 45.53C39.43 61.38 46.95 74.07 53.16 80.16L53.43 80.42L50.48 80.42C49.12 79.15 47.85 77.6 46.49 75.82L45.81 74.92L44.01 72.51C43.76 72.17 43.5 71.83 43.24 71.49L41.21 68.85L39.87 67.09L38.85 65.73L38.16 64.81L37.48 63.88L36.81 62.95L36.13 62L35.47 61.04C35.36 60.88 35.25 60.72 35.14 60.56L34.49 59.59C30.18 53.12 26.66 46.25 26.66 40.16C26.66 22.09 41.12 7.39 59.11 7ZM59.83 7C78.15 7 93 21.85 93 40.16C93 46.07 89.66 52.62 85.47 58.84L84.82 59.79L84.16 60.74L83.49 61.68L82.81 62.61L82.12 63.54L81.44 64.46L80.41 65.81L79.38 67.15L76.39 70.97C75.98 71.49 75.59 71.99 75.22 72.49L74.13 73.95L72.76 75.79C71.43 77.57 70.2 79.14 68.88 80.42L65.99 80.42C72.26 74.27 80.03 61 83.22 45.53C87.58 24.39 73.03 7.34 60.2 7L59.83 7Z" fill="#A1A7B3" fill-opacity="1.000000" fill-rule="evenodd"/>
			<path id="形状" d="M59.43 7C46.6 7.32 32.19 23.34 36.41 45.53C39.43 61.38 46.95 74.07 53.16 80.16L53.43 80.42L50.48 80.42C49.12 79.15 47.85 77.6 46.49 75.82L45.81 74.92L44.01 72.51C43.76 72.17 43.5 71.83 43.24 71.49L41.21 68.85L39.87 67.09L38.85 65.73L38.16 64.81L37.48 63.88L36.81 62.95L36.13 62L35.47 61.04C35.36 60.88 35.25 60.72 35.14 60.56L34.49 59.59C30.18 53.12 26.66 46.25 26.66 40.16C26.66 22.09 41.12 7.39 59.11 7L59.43 7ZM93 40.16C93 46.07 89.66 52.62 85.47 58.84L84.82 59.79L84.16 60.74L83.49 61.68L82.81 62.61L82.12 63.54L81.44 64.46L80.41 65.81L79.38 67.15L76.39 70.97C75.98 71.49 75.59 71.99 75.22 72.49L74.13 73.95L72.76 75.79C71.43 77.57 70.2 79.14 68.88 80.42L65.99 80.42C72.26 74.27 80.03 61 83.22 45.53C87.58 24.39 73.03 7.34 60.2 7L59.83 7C78.15 7 93 21.85 93 40.16Z" stroke="#000000" stroke-opacity="0" stroke-width="1.000000"/>
		</g>
		<g opacity="0.500000">
			<path id="形状" d="M59.76 7C53.15 7.03 43.85 21.82 47.81 45.53L48.3 48.49L50.16 59.94L50.56 62.36L50.86 64.09L51.16 65.77L51.35 66.85L51.55 67.89L51.75 68.91L51.95 69.9L52.15 70.86L52.36 71.79L52.56 72.69L52.77 73.55L52.98 74.39C53.59 76.71 54.25 78.64 55 80.15L55.13 80.42L53.43 80.42C47.16 74.44 39.48 61.61 36.41 45.53C32.19 23.34 46.6 7.32 59.43 7L59.76 7ZM59.76 7C72.69 7 87.62 24.17 83.22 45.53C80.03 61 72.26 74.27 65.99 80.42L64.21 80.42C65.2 78.45 66.03 75.76 66.79 72.51L67.03 71.46C67.1 71.11 67.18 70.75 67.26 70.38L67.49 69.26L67.68 68.32L67.83 67.57L68.11 66.05L68.4 64.48L68.69 62.86L69.13 60.34L70.04 55.04L70.53 52.27L70.87 50.38L71.22 48.46L71.58 46.51L71.77 45.53C75.84 24.4 66.59 7.34 59.99 7L59.76 7Z" fill="#A1A7B3" fill-opacity="1.000000" fill-rule="evenodd"/>
			<path id="形状" d="M59.76 7L59.99 7C66.59 7.34 75.84 24.4 71.77 45.53L71.58 46.51L71.22 48.46L70.87 50.38L70.53 52.27L70.04 55.04L69.13 60.34L68.69 62.86L68.4 64.48L68.11 66.05L67.83 67.57L67.68 68.32L67.49 69.26L67.26 70.38C67.18 70.75 67.1 71.11 67.03 71.46L66.79 72.51C66.03 75.76 65.2 78.45 64.21 80.42L65.99 80.42C72.26 74.27 80.03 61 83.22 45.53C87.62 24.17 72.69 7 59.76 7C53.15 7.03 43.85 21.82 47.81 45.53L48.3 48.49L50.16 59.94L50.56 62.36L50.86 64.09L51.16 65.77L51.35 66.85L51.55 67.89L51.75 68.91L51.95 69.9L52.15 70.86L52.36 71.79L52.56 72.69L52.77 73.55L52.98 74.39C53.59 76.71 54.25 78.64 55 80.15L55.13 80.42L53.43 80.42C47.16 74.44 39.48 61.61 36.41 45.53C32.19 23.34 46.6 7.32 59.43 7L59.76 7Z" stroke="#000000" stroke-opacity="0" stroke-width="1.000000"/>
		</g>
		<g opacity="0.600000">
			<path id="路径" d="M59.79 7C66.34 7 75.69 23.85 71.89 44.89L71.4 47.49C71.34 47.81 71.28 48.14 71.22 48.46L70.87 50.38L70.53 52.27L69.89 55.95L68.98 61.19L68.55 63.67L68.26 65.27L67.97 66.82C67.87 67.33 67.78 67.83 67.68 68.32L67.49 69.26L67.26 70.38C67.18 70.75 67.1 71.11 67.03 71.46L66.79 72.51C66.03 75.76 65.2 78.45 64.21 80.42L55.13 80.42C54.33 78.87 53.63 76.84 52.98 74.39L52.77 73.55L52.56 72.69L52.36 71.79L52.15 70.86L51.95 69.9L51.75 68.91L51.55 67.89L51.35 66.85L51.06 65.22L50.76 63.52L50.36 61.16L49.54 56.12L48.3 48.49L47.81 45.53C43.84 21.79 53.17 7 59.79 7Z" fill="#A1A7B3" fill-opacity="1.000000" fill-rule="evenodd"/>
			<path id="路径" d="M71.89 44.89L71.4 47.49C71.34 47.81 71.28 48.14 71.22 48.46L70.87 50.38L70.53 52.27L69.89 55.95L68.98 61.19L68.55 63.67L68.26 65.27L67.97 66.82C67.87 67.33 67.78 67.83 67.68 68.32L67.49 69.26L67.26 70.38C67.18 70.75 67.1 71.11 67.03 71.46L66.79 72.51C66.03 75.76 65.2 78.45 64.21 80.42L55.13 80.42C54.33 78.87 53.63 76.84 52.98 74.39L52.77 73.55L52.56 72.69L52.36 71.79L52.15 70.86L51.95 69.9L51.75 68.91L51.55 67.89L51.35 66.85L51.06 65.22L50.76 63.52L50.36 61.16L49.54 56.12L48.3 48.49L47.81 45.53C43.84 21.79 53.17 7 59.79 7C66.34 7 75.69 23.85 71.89 44.89Z" stroke="#000000" stroke-opacity="0" stroke-width="1.000000"/>
		</g>
		<g opacity="0.300000">
			<path id="形状结合" d="M69.12 80.41C69.67 80.41 70.12 80.86 70.12 81.41L70.12 85.41C70.12 85.96 69.67 86.41 69.12 86.41L67.34 86.41L64.36 95.06C64.82 95.18 65.15 95.61 65.15 96.11L65.15 96.93C65.15 97.43 64.83 97.84 64.38 97.98L64.38 99.77C64.38 100.98 63.4 101.96 62.19 101.96L57.8 101.96C56.59 101.96 55.61 100.98 55.61 99.77L55.61 97.98C55.16 97.84 54.84 97.43 54.84 96.93L54.84 96.11C54.84 95.64 55.13 95.25 55.54 95.09L52.54 86.41L50.51 86.41C49.96 86.41 49.51 85.96 49.51 85.41L49.51 81.41C49.51 80.86 49.96 80.41 50.51 80.41L69.12 80.41ZM66.02 86.41L53.86 86.41L56.8 94.94L63.06 95.01L66.02 86.41Z" fill="#A1A7B3" fill-opacity="1.000000" fill-rule="evenodd"/>
			<path id="形状结合" d="M70.12 81.41L70.12 85.41C70.12 85.96 69.67 86.41 69.12 86.41L67.34 86.41L64.36 95.06C64.82 95.18 65.15 95.61 65.15 96.11L65.15 96.93C65.15 97.43 64.83 97.84 64.38 97.98L64.38 99.77C64.38 100.98 63.4 101.96 62.19 101.96L57.8 101.96C56.59 101.96 55.61 100.98 55.61 99.77L55.61 97.98C55.16 97.84 54.84 97.43 54.84 96.93L54.84 96.11C54.84 95.64 55.13 95.25 55.54 95.09L52.54 86.41L50.51 86.41C49.96 86.41 49.51 85.96 49.51 85.41L49.51 81.41C49.51 80.86 49.96 80.41 50.51 80.41L69.12 80.41C69.67 80.41 70.12 80.86 70.12 81.41ZM53.86 86.41L56.8 94.94L63.06 95.01L66.02 86.41L53.86 86.41Z" stroke="#000000" stroke-opacity="0" stroke-width="1.000000"/>
		</g>
		<g opacity="0.300000">
			<rect id="矩形" x="55.614746" y="97.979980" width="8.770481" height="1.162354" fill="#A1A7B3" fill-opacity="1.000000"/>
			<rect id="矩形" x="55.614746" y="97.979980" width="8.770481" height="1.162354" stroke="#000000" stroke-opacity="0" stroke-width="1.000000"/>
		</g>
		<g opacity="0.300000">
			<path id="路径-24" d="M97.2 49.71C96.01 50.17 95.04 50.68 94.28 51.24C94.1 51.37 93.8 51.36 93.61 51.22C93.43 51.07 93.42 50.85 93.6 50.72C94.42 50.12 95.46 49.57 96.72 49.08C96.95 48.99 97.24 49.06 97.37 49.23C97.5 49.41 97.42 49.62 97.2 49.71ZM92.83 54.24C92.57 55.12 92.6 56.07 92.9 57.1C92.97 57.31 92.84 57.52 92.61 57.57C92.39 57.63 92.16 57.5 92.1 57.3C91.75 56.14 91.72 55.05 92.02 54.03C92.08 53.83 92.31 53.71 92.54 53.77C92.76 53.83 92.89 54.04 92.83 54.24ZM94.85 60.59L95.42 61.93L95.74 62.72L95.99 63.34L96.14 63.73C96.23 63.94 96.09 64.17 95.83 64.23C95.57 64.3 95.29 64.17 95.21 63.96L95.06 63.57L94.81 62.96L94.4 61.96L93.92 60.84C93.83 60.63 93.96 60.4 94.22 60.33C94.48 60.26 94.76 60.38 94.85 60.59ZM96.66 67.17C96.92 68.43 97 69.49 96.87 70.38C96.83 70.59 96.63 70.73 96.42 70.7C96.2 70.67 96.05 70.47 96.08 70.26C96.2 69.47 96.13 68.5 95.88 67.32C95.84 67.11 95.98 66.91 96.19 66.87C96.41 66.82 96.62 66.96 96.66 67.17ZM95.25 72.72C94.34 73.48 93.24 73.95 91.94 74.13C91.71 74.16 91.51 73.97 91.49 73.71C91.46 73.45 91.63 73.21 91.86 73.18C93.02 73.01 93.99 72.6 94.78 71.95C94.96 71.79 95.22 71.84 95.35 72.05C95.48 72.27 95.44 72.57 95.25 72.72ZM87.23 73.73C86.29 73.58 85.28 73.33 84.19 72.99C83.98 72.93 83.87 72.7 83.93 72.49C83.99 72.27 84.21 72.15 84.41 72.21C85.47 72.54 86.45 72.78 87.35 72.92C87.56 72.95 87.71 73.16 87.67 73.38C87.64 73.61 87.44 73.76 87.23 73.73ZM80.8 73.14C79.87 72.65 78.9 72.09 77.89 71.46C77.7 71.33 77.62 71 77.72 70.72C77.82 70.43 78.06 70.3 78.25 70.42C79.25 71.05 80.21 71.6 81.12 72.08C81.32 72.19 81.41 72.51 81.32 72.81C81.24 73.1 81 73.25 80.8 73.14ZM74.79 68.79C73.81 68.42 72.84 68.13 71.88 67.91C71.67 67.86 71.54 67.68 71.59 67.51C71.65 67.35 71.86 67.25 72.07 67.3C73.07 67.53 74.08 67.84 75.09 68.22C75.29 68.29 75.38 68.48 75.3 68.64C75.21 68.8 74.98 68.87 74.79 68.79ZM68.62 67.87C67.62 67.8 66.62 67.84 65.63 68C65.42 68.03 65.23 67.86 65.2 67.63C65.18 67.39 65.33 67.17 65.54 67.13C66.59 66.97 67.64 66.92 68.69 67C68.9 67.01 69.06 67.22 69.04 67.46C69.02 67.7 68.84 67.88 68.62 67.87ZM62.3 68.56C61.29 68.92 60.27 69.38 59.26 69.93C59.05 70.05 58.8 69.97 58.69 69.75C58.58 69.54 58.66 69.27 58.87 69.15C59.92 68.57 60.98 68.1 62.04 67.73C62.26 67.65 62.5 67.78 62.57 68.01C62.64 68.24 62.52 68.49 62.3 68.56ZM55.71 71.87C54.7 72.62 53.69 73.45 52.68 74.38C52.48 74.56 52.17 74.54 51.99 74.33C51.81 74.12 51.83 73.8 52.04 73.62C53.07 72.67 54.11 71.81 55.15 71.04C55.37 70.88 55.67 70.93 55.83 71.16C55.99 71.39 55.93 71.71 55.71 71.87ZM51.51 76.56C50.5 77.46 49.47 78.32 48.42 79.14C48.2 79.31 47.89 79.27 47.73 79.05C47.56 78.83 47.6 78.51 47.82 78.34C48.85 77.54 49.86 76.7 50.85 75.81C51.05 75.63 51.37 75.64 51.55 75.85C51.73 76.06 51.71 76.37 51.51 76.56ZM45.97 81.02C44.96 81.57 43.93 82.08 42.88 82.55C42.66 82.65 42.39 82.58 42.27 82.39C42.15 82.2 42.23 81.97 42.44 81.87C43.48 81.41 44.49 80.91 45.48 80.37C45.68 80.26 45.96 80.31 46.1 80.49C46.23 80.67 46.18 80.91 45.97 81.02ZM39.35 83.17C38.33 83.67 37.28 84.13 36.21 84.55C35.99 84.63 35.76 84.51 35.68 84.27C35.61 84.03 35.73 83.77 35.94 83.68C36.99 83.28 38.02 82.83 39.03 82.34C39.24 82.23 39.48 82.34 39.57 82.57C39.66 82.8 39.57 83.07 39.35 83.17ZM32.67 86.11C31.65 86.28 30.62 86.43 29.57 86.55C29.35 86.57 29.14 86.47 29.1 86.31C29.05 86.15 29.19 86 29.4 85.98C30.44 85.86 31.45 85.72 32.45 85.55C32.66 85.52 32.88 85.61 32.94 85.77C33 85.92 32.88 86.08 32.67 86.11ZM26.16 87.01C25.14 87.12 24.11 87.21 23.06 87.26C22.84 87.27 22.66 87.11 22.65 86.91C22.64 86.7 22.8 86.52 23.01 86.51C24.05 86.46 25.06 86.37 26.07 86.26C26.28 86.24 26.47 86.39 26.5 86.59C26.52 86.8 26.37 86.98 26.16 87.01Z" fill="#A1A7B3" fill-opacity="1.000000" fill-rule="evenodd"/>
			<path id="路径-24" d="M94.28 51.24C94.1 51.37 93.8 51.36 93.61 51.22C93.43 51.07 93.42 50.85 93.6 50.72C94.42 50.12 95.46 49.57 96.72 49.08C96.95 48.99 97.24 49.06 97.37 49.23C97.5 49.41 97.42 49.62 97.2 49.71C96.01 50.17 95.04 50.68 94.28 51.24ZM92.9 57.1C92.97 57.31 92.84 57.52 92.61 57.57C92.39 57.63 92.16 57.5 92.1 57.3C91.75 56.14 91.72 55.05 92.02 54.03C92.08 53.83 92.31 53.71 92.54 53.77C92.76 53.83 92.89 54.04 92.83 54.24C92.57 55.12 92.6 56.07 92.9 57.1ZM95.42 61.93L95.74 62.72L95.99 63.34L96.14 63.73C96.23 63.94 96.09 64.17 95.83 64.23C95.57 64.3 95.29 64.17 95.21 63.96L95.06 63.57L94.81 62.96L94.4 61.96L93.92 60.84C93.83 60.63 93.96 60.4 94.22 60.33C94.48 60.26 94.76 60.38 94.85 60.59L95.42 61.93ZM96.87 70.38C96.83 70.59 96.63 70.73 96.42 70.7C96.2 70.67 96.05 70.47 96.08 70.26C96.2 69.47 96.13 68.5 95.88 67.32C95.84 67.11 95.98 66.91 96.19 66.87C96.41 66.82 96.62 66.96 96.66 67.17C96.92 68.43 97 69.49 96.87 70.38ZM91.94 74.13C91.71 74.16 91.51 73.97 91.49 73.71C91.46 73.45 91.63 73.21 91.86 73.18C93.02 73.01 93.99 72.6 94.78 71.95C94.96 71.79 95.22 71.84 95.35 72.05C95.48 72.27 95.44 72.57 95.25 72.72C94.34 73.48 93.24 73.95 91.94 74.13ZM84.19 72.99C83.98 72.93 83.87 72.7 83.93 72.49C83.99 72.27 84.21 72.15 84.41 72.21C85.47 72.54 86.45 72.78 87.35 72.92C87.56 72.95 87.71 73.16 87.67 73.38C87.64 73.61 87.44 73.76 87.23 73.73C86.29 73.58 85.28 73.33 84.19 72.99ZM77.89 71.46C77.7 71.33 77.62 71 77.72 70.72C77.82 70.43 78.06 70.3 78.25 70.42C79.25 71.05 80.21 71.6 81.12 72.08C81.32 72.19 81.41 72.51 81.32 72.81C81.24 73.1 81 73.25 80.8 73.14C79.87 72.65 78.9 72.09 77.89 71.46ZM71.88 67.91C71.67 67.86 71.54 67.68 71.59 67.51C71.65 67.35 71.86 67.25 72.07 67.3C73.07 67.53 74.08 67.84 75.09 68.22C75.29 68.29 75.38 68.48 75.3 68.64C75.21 68.8 74.98 68.87 74.79 68.79C73.81 68.42 72.84 68.13 71.88 67.91ZM65.63 68C65.42 68.03 65.23 67.86 65.2 67.63C65.18 67.39 65.33 67.17 65.54 67.13C66.59 66.97 67.64 66.92 68.69 67C68.9 67.01 69.06 67.22 69.04 67.46C69.02 67.7 68.84 67.88 68.62 67.87C67.62 67.8 66.62 67.84 65.63 68ZM59.26 69.93C59.05 70.05 58.8 69.97 58.69 69.75C58.58 69.54 58.66 69.27 58.87 69.15C59.92 68.57 60.98 68.1 62.04 67.73C62.26 67.65 62.5 67.78 62.57 68.01C62.64 68.24 62.52 68.49 62.3 68.56C61.29 68.92 60.27 69.38 59.26 69.93ZM52.68 74.38C52.48 74.56 52.17 74.54 51.99 74.33C51.81 74.12 51.83 73.8 52.04 73.62C53.07 72.67 54.11 71.81 55.15 71.04C55.37 70.88 55.67 70.93 55.83 71.16C55.99 71.39 55.93 71.71 55.71 71.87C54.7 72.62 53.69 73.45 52.68 74.38ZM48.42 79.14C48.2 79.31 47.89 79.27 47.73 79.05C47.56 78.83 47.6 78.51 47.82 78.34C48.85 77.54 49.86 76.7 50.85 75.81C51.05 75.63 51.37 75.64 51.55 75.85C51.73 76.06 51.71 76.37 51.51 76.56C50.5 77.46 49.47 78.32 48.42 79.14ZM42.88 82.55C42.66 82.65 42.39 82.58 42.27 82.39C42.15 82.2 42.23 81.97 42.44 81.87C43.48 81.41 44.49 80.91 45.48 80.37C45.68 80.26 45.96 80.31 46.1 80.49C46.23 80.67 46.18 80.91 45.97 81.02C44.96 81.57 43.93 82.08 42.88 82.55ZM36.21 84.55C35.99 84.63 35.76 84.51 35.68 84.27C35.61 84.03 35.73 83.77 35.94 83.68C36.99 83.28 38.02 82.83 39.03 82.34C39.24 82.23 39.48 82.34 39.57 82.57C39.66 82.8 39.57 83.07 39.35 83.17C38.33 83.67 37.28 84.13 36.21 84.55ZM29.57 86.55C29.35 86.57 29.14 86.47 29.1 86.31C29.05 86.15 29.19 86 29.4 85.98C30.44 85.86 31.45 85.72 32.45 85.55C32.66 85.52 32.88 85.61 32.94 85.77C33 85.92 32.88 86.08 32.67 86.11C31.65 86.28 30.62 86.43 29.57 86.55ZM23.06 87.26C22.84 87.27 22.66 87.11 22.65 86.91C22.64 86.7 22.8 86.52 23.01 86.51C24.05 86.46 25.06 86.37 26.07 86.26C26.28 86.24 26.47 86.39 26.5 86.59C26.52 86.8 26.37 86.98 26.16 87.01C25.14 87.12 24.11 87.21 23.06 87.26Z" stroke="#000000" stroke-opacity="0" stroke-width="1.000000"/>
		</g>
		<g opacity="0.400000">
			<path id="路径-14" d="M34.13 68.47C32.91 70.28 32.01 71.37 31.43 71.73C29.8 72.77 28.33 73 27.34 73C25.05 73 29.76 72.47 31.43 70.65C32.55 69.44 33.87 67.61 35.4 65.16L34.13 65.16L32.72 66.87C32.28 66.33 31.72 66.06 31.02 66.06C29.98 66.06 27.29 66.51 26.25 69.37C25.57 71.28 24.15 72.96 22.01 74.42C25.1 75.95 28.11 75.95 31.02 74.42C33.94 72.88 34.97 70.9 34.13 68.47Z" fill="#A1A7B3" fill-opacity="1.000000" fill-rule="evenodd"/>
			<path id="路径-14" d="M31.43 71.73C29.8 72.77 28.33 73 27.34 73C25.05 73 29.76 72.47 31.43 70.65C32.55 69.44 33.87 67.61 35.4 65.16L34.13 65.16L32.72 66.87C32.28 66.33 31.72 66.06 31.02 66.06C29.98 66.06 27.29 66.51 26.25 69.37C25.57 71.28 24.15 72.96 22.01 74.42C25.1 75.95 28.11 75.95 31.02 74.42C33.94 72.88 34.97 70.9 34.13 68.47C32.91 70.28 32.01 71.37 31.43 71.73Z" stroke="#000000" stroke-opacity="0" stroke-width="1.000000"/>
		</g>
		<g opacity="0.400000">
			<path id="路径-14备份-3" d="M107.88 47.83C106.5 47.36 105.65 46.97 105.31 46.66C104.37 45.79 103.96 44.88 103.79 44.24C103.4 42.77 104.55 45.71 106.01 46.47C106.98 46.98 108.39 47.52 110.23 48.08L110.01 47.26L108.67 46.65C108.94 46.28 109.02 45.86 108.9 45.42C108.72 44.75 107.96 43.09 105.94 42.92C104.59 42.8 103.27 42.18 101.96 41.06C101.51 43.31 102.02 45.25 103.52 46.86C105.01 48.47 106.46 48.8 107.88 47.83Z" fill="#A1A7B3" fill-opacity="1.000000" fill-rule="evenodd"/>
			<path id="路径-14备份-3" d="M105.31 46.66C104.37 45.79 103.96 44.88 103.79 44.24C103.4 42.77 104.55 45.71 106.01 46.47C106.98 46.98 108.39 47.52 110.23 48.08L110.01 47.26L108.67 46.65C108.94 46.28 109.02 45.86 108.9 45.42C108.72 44.75 107.96 43.09 105.94 42.92C104.59 42.8 103.27 42.18 101.96 41.06C101.51 43.31 102.02 45.25 103.52 46.86C105.01 48.47 106.46 48.8 107.88 47.83C106.5 47.36 105.65 46.97 105.31 46.66Z" stroke="#000000" stroke-opacity="0" stroke-width="1.000000"/>
		</g>
		<g opacity="0.600000">
			<path id="路径-14备份" d="M44.04 56.04C44.63 57.13 44.94 57.86 44.98 58.24C45.07 59.32 44.81 60.1 44.55 60.59C43.95 61.71 44.91 59.26 44.43 57.95C44.11 57.08 43.53 55.94 42.69 54.53L42.36 55.15L42.86 56.3C42.47 56.37 42.19 56.58 42.01 56.92C41.74 57.43 41.26 58.87 42.43 60.15C43.22 61 43.7 62.14 43.87 63.58C45.45 62.47 46.24 61 46.22 59.16C46.21 57.32 45.48 56.28 44.04 56.04Z" fill="#A1A7B3" fill-opacity="1.000000" fill-rule="evenodd"/>
			<path id="路径-14备份" d="M44.98 58.24C45.07 59.32 44.81 60.1 44.55 60.59C43.95 61.71 44.91 59.26 44.43 57.95C44.11 57.08 43.53 55.94 42.69 54.53L42.36 55.15L42.86 56.3C42.47 56.37 42.19 56.58 42.01 56.92C41.74 57.43 41.26 58.87 42.43 60.15C43.22 61 43.7 62.14 43.87 63.58C45.45 62.47 46.24 61 46.22 59.16C46.21 57.32 45.48 56.28 44.04 56.04C44.63 57.13 44.94 57.86 44.98 58.24Z" stroke="#000000" stroke-opacity="0" stroke-width="1.000000"/>
		</g>
		<g opacity="0.600000">
			<path id="路径-14备份-2" d="M23.97 41.16C22.56 40.59 21.69 40.13 21.36 39.8C20.45 38.86 20.11 37.92 20 37.27C19.73 35.77 20.65 38.79 22.13 39.67C23.11 40.25 24.55 40.89 26.45 41.58L26.3 40.75L24.93 40.04C25.26 39.69 25.39 39.28 25.31 38.83C25.19 38.14 24.56 36.43 22.43 36.11C21 35.89 19.66 35.17 18.39 33.95C17.66 36.17 18.01 38.14 19.43 39.86C20.85 41.59 22.36 42.02 23.97 41.16Z" fill="#A1A7B3" fill-opacity="1.000000" fill-rule="evenodd"/>
			<path id="路径-14备份-2" d="M21.36 39.8C20.45 38.86 20.11 37.92 20 37.27C19.73 35.77 20.65 38.79 22.13 39.67C23.11 40.25 24.55 40.89 26.45 41.58L26.3 40.75L24.93 40.04C25.26 39.69 25.39 39.28 25.31 38.83C25.19 38.14 24.56 36.43 22.43 36.11C21 35.89 19.66 35.17 18.39 33.95C17.66 36.17 18.01 38.14 19.43 39.86C20.85 41.59 22.36 42.02 23.97 41.16C22.56 40.59 21.69 40.13 21.36 39.8Z" stroke="#000000" stroke-opacity="0" stroke-width="1.000000"/>
		</g>
	</g>
</svg>
