<svg width="32.000000" height="32.000000" viewBox="0 0 32 32" fill="none" xmlns="http://www.w3.org/2000/svg" xmlns:xlink="http://www.w3.org/1999/xlink">
	<desc>
			Created with Pixso.
	</desc>
	<defs>
		<clipPath id="clip188_17484">
			<rect id="smal_window_playback" width="32.000000" height="32.000000" fill="white" fill-opacity="0"/>
		</clipPath>
	</defs>
	<g clip-path="url(#clip188_17484)">
		<g opacity="0.000000">
			<rect id="rect" width="32.000000" height="32.000000" fill="#000000" fill-opacity="1.000000"/>
		</g>
		<path id="path" d="M13.78 9.18C13.51 9.18 13.27 9.27 13.09 9.46C12.89 9.66 12.79 9.89 12.79 10.17L12.79 13.66L8.47 9.34C8.28 9.15 8.04 9.05 7.77 9.05C7.49 9.05 7.26 9.15 7.06 9.34C6.87 9.53 6.78 9.76 6.78 10.05C6.78 10.32 6.87 10.56 7.06 10.74L11.35 15.04L7.93 15.04C7.65 15.04 7.42 15.13 7.22 15.33C7.04 15.52 6.94 15.75 6.94 16.02C6.94 16.31 7.04 16.54 7.22 16.73C7.42 16.92 7.65 17.02 7.93 17.02L13.37 17.02C13.75 17.02 14.08 16.89 14.37 16.62C14.64 16.35 14.78 16.03 14.78 15.65L14.78 10.17C14.78 9.89 14.68 9.66 14.49 9.46C14.3 9.27 14.07 9.18 13.78 9.18Z" fill="#FFFFFF" fill-opacity="0.898039" fill-rule="nonzero"/>
		<path id="path" d="M19.01 17.6C18.37 17.6 17.82 17.83 17.36 18.29C16.89 18.74 16.66 19.29 16.66 19.93L16.66 25.37C16.66 25.99 16.89 26.53 17.36 26.98C17.82 27.44 18.37 27.68 19.01 27.68L27.7 27.68C28.34 27.68 28.89 27.44 29.36 26.98C29.82 26.53 30.05 25.99 30.05 25.37L30.05 19.93C30.05 19.29 29.82 18.74 29.36 18.29C28.89 17.83 28.34 17.6 27.7 17.6L19.01 17.6ZM28.06 25.37C28.06 25.46 28.02 25.53 27.94 25.6C27.87 25.66 27.79 25.69 27.7 25.69L19.01 25.69C18.92 25.69 18.84 25.66 18.77 25.6C18.69 25.53 18.65 25.46 18.65 25.37L18.65 19.93C18.65 19.85 18.68 19.77 18.74 19.7C18.81 19.64 18.9 19.61 19.01 19.61L27.7 19.61C27.81 19.61 27.9 19.64 27.97 19.7C28.03 19.77 28.06 19.85 28.06 19.93L28.06 25.37ZM6.94 21.66C6.11 21.66 5.39 21.37 4.81 20.78C4.22 20.2 3.93 19.48 3.93 18.65L3.93 9.28C3.93 8.47 4.22 7.76 4.81 7.17C5.39 6.56 6.11 6.26 6.94 6.26L22.94 6.26C23.77 6.26 24.47 6.56 25.05 7.14C25.63 7.73 25.91 8.44 25.91 9.28L25.91 14.65C25.91 14.92 26.02 15.16 26.22 15.37C26.43 15.57 26.67 15.68 26.94 15.68C27.22 15.68 27.45 15.57 27.65 15.37C27.84 15.16 27.93 14.92 27.93 14.65L27.93 9.28C27.93 8.38 27.71 7.55 27.26 6.78C26.81 6.01 26.2 5.4 25.43 4.95C24.67 4.51 23.84 4.29 22.94 4.29L6.94 4.29C6.04 4.29 5.21 4.51 4.45 4.95C3.68 5.4 3.07 6.01 2.62 6.78C2.17 7.55 1.94 8.38 1.94 9.28L1.94 18.65C1.94 19.56 2.17 20.41 2.62 21.18C3.07 21.95 3.68 22.56 4.45 23.01C5.21 23.45 6.04 23.68 6.94 23.68L13.21 23.68C13.48 23.68 13.72 23.57 13.93 23.37C14.13 23.16 14.24 22.92 14.24 22.65C14.24 22.37 14.13 22.14 13.93 21.94C13.72 21.76 13.48 21.66 13.21 21.66L6.94 21.66Z" fill="#FFFFFF" fill-opacity="0.898039" fill-rule="nonzero"/>
	</g>
</svg>
