<svg width="16.000000" height="16.000000" viewBox="0 0 16 16" fill="none" xmlns="http://www.w3.org/2000/svg" xmlns:xlink="http://www.w3.org/1999/xlink">
	<desc>
			Created with Pixso.
	</desc>
	<defs>
		<clipPath id="clip36_10465">
			<rect id="ic_public_teams" width="16.000000" height="16.000000" fill="white" fill-opacity="0"/>
		</clipPath>
	</defs>
	<g clip-path="url(#clip36_10465)">
		<path id="矢量 4" d="M3 4.16C3 2.23 4.57 0.66 6.5 0.66C8.43 0.66 9.99 2.23 9.99 4.16C9.99 6.09 8.43 7.65 6.5 7.65C4.57 7.65 3 6.09 3 4.16ZM10.22 1.64C10.26 1.64 10.29 1.64 10.33 1.64C11.93 1.64 13.24 2.94 13.24 4.55C13.24 6.15 11.93 7.45 10.33 7.45C10.09 7.45 9.86 7.43 9.64 7.37C9.92 7.1 10.16 6.79 10.36 6.45C11.4 6.44 12.24 5.59 12.24 4.55C12.24 3.64 11.6 2.88 10.75 2.69C10.62 2.31 10.44 1.96 10.22 1.64ZM4 4.16C4 2.78 5.12 1.66 6.5 1.66C7.87 1.66 8.99 2.78 8.99 4.16C8.99 5.53 7.87 6.65 6.5 6.65C5.12 6.65 4 5.53 4 4.16ZM13.8 14.35L14.56 14.35C14.65 14.35 14.74 14.34 14.82 14.32C14.9 14.3 14.98 14.28 15.05 14.25C15.13 14.22 15.19 14.18 15.26 14.14C15.33 14.09 15.39 14.04 15.46 13.98C15.52 13.92 15.57 13.85 15.62 13.78C15.66 13.72 15.7 13.65 15.73 13.57C15.76 13.5 15.78 13.43 15.8 13.35C15.82 13.26 15.83 13.17 15.83 13.08C15.83 12.72 15.79 12.37 15.71 12.03Q15.62 11.6 15.45 11.19C15.33 10.91 15.19 10.65 15.03 10.41C14.85 10.14 14.64 9.88 14.4 9.64C14.17 9.41 13.91 9.2 13.64 9.02C13.39 8.86 13.13 8.72 12.86 8.6C12.59 8.49 12.31 8.4 12.02 8.33C11.68 8.26 11.33 8.22 10.97 8.22L10.53 8.22C10.67 8.3 10.8 8.38 10.93 8.47C11.09 8.58 11.25 8.69 11.4 8.82C11.58 8.96 11.74 9.11 11.9 9.27C12.07 9.31 12.31 9.45 12.47 9.52C12.68 9.61 12.89 9.72 13.08 9.85C13.3 9.99 13.51 10.16 13.7 10.35C13.89 10.54 14.06 10.75 14.2 10.97C14.33 11.16 14.43 11.36 14.53 11.58C14.61 11.79 14.68 12 14.73 12.23C14.8 12.5 14.83 12.79 14.83 13.08C14.83 13.12 14.82 13.15 14.81 13.18C14.78 13.21 14.69 13.32 14.66 13.33C14.63 13.34 14.59 13.35 14.56 13.35L13.81 13.35C13.82 13.54 13.83 13.74 13.83 13.93C13.83 14.07 13.82 14.21 13.8 14.35ZM12.83 13.93C12.83 14.03 12.82 14.13 12.8 14.23C12.78 14.31 12.76 14.39 12.72 14.47Q12.67 14.59 12.6 14.7C12.55 14.78 12.49 14.85 12.42 14.92C12.35 14.98 12.28 15.04 12.21 15.09C12.13 15.14 12.06 15.18 11.98 15.22C11.9 15.25 11.81 15.28 11.73 15.29C11.63 15.31 11.53 15.33 11.43 15.33L1.56 15.33Q1.4 15.33 1.25 15.29C1.17 15.27 1.09 15.25 1.01 15.22C0.93 15.18 0.86 15.14 0.78 15.09C0.71 15.04 0.64 14.98 0.57 14.92C0.5 14.85 0.45 14.78 0.4 14.7C0.35 14.63 0.31 14.55 0.27 14.47C0.24 14.39 0.21 14.31 0.19 14.23Q0.16 14.08 0.16 13.93C0.16 13.51 0.21 13.11 0.29 12.71C0.37 12.38 0.47 12.07 0.6 11.75C0.73 11.44 0.89 11.14 1.08 10.86C1.29 10.54 1.53 10.25 1.8 9.98C2.07 9.7 2.36 9.46 2.68 9.26C2.96 9.07 3.26 8.91 3.57 8.78C3.89 8.65 4.2 8.54 4.53 8.47Q5.12 8.34 5.75 8.34L7.24 8.34Q7.86 8.34 8.46 8.47Q8.95 8.58 9.42 8.78C9.73 8.91 10.03 9.07 10.31 9.26C10.63 9.46 10.92 9.7 11.19 9.98C11.47 10.25 11.71 10.54 11.92 10.86C12.1 11.14 12.26 11.44 12.39 11.75C12.52 12.07 12.63 12.39 12.7 12.71C12.79 13.11 12.83 13.51 12.83 13.93ZM11.83 13.93C11.83 13.58 11.79 13.24 11.72 12.91C11.66 12.65 11.58 12.39 11.47 12.14C11.36 11.89 11.23 11.65 11.09 11.42C10.91 11.16 10.71 10.91 10.49 10.68C10.26 10.46 10.02 10.26 9.75 10.09C9.53 9.94 9.28 9.81 9.03 9.7C8.78 9.59 8.52 9.51 8.26 9.45C7.93 9.38 7.59 9.34 7.24 9.34L5.75 9.34C5.4 9.34 5.06 9.38 4.73 9.45C4.47 9.51 4.21 9.59 3.96 9.7C3.71 9.81 3.47 9.94 3.24 10.09C2.98 10.26 2.73 10.46 2.51 10.68C2.28 10.91 2.08 11.15 1.91 11.41C1.76 11.64 1.63 11.89 1.52 12.14C1.42 12.39 1.33 12.65 1.27 12.91Q1.16 13.41 1.16 13.93C1.16 13.99 1.17 14.04 1.19 14.09C1.21 14.13 1.24 14.17 1.28 14.21C1.31 14.25 1.36 14.27 1.4 14.29C1.45 14.31 1.5 14.33 1.56 14.33L11.43 14.33C11.49 14.33 11.54 14.31 11.59 14.29C11.64 14.28 11.68 14.25 11.72 14.21C11.75 14.17 11.78 14.13 11.8 14.08C11.82 14.03 11.83 13.98 11.83 13.93Z" fill="#000000" fill-opacity="0.600000" fill-rule="evenodd"/>
	</g>
</svg>
