<svg width="16.000000" height="16.000000" viewBox="0 0 16 16" fill="none" xmlns="http://www.w3.org/2000/svg" xmlns:xlink="http://www.w3.org/1999/xlink">
	<desc>
			Created with Pixso.
	</desc>
	<defs>
		<clipPath id="clip42_1257">
			<rect width="16.000000" height="16.000000" fill="white" fill-opacity="0"/>
		</clipPath>
	</defs>
	<g clip-path="url(#clip42_1257)">
		<path d="M11.05 1.45C9.84 1.45 8.72 2.06 7.98 3.06C7.24 2.06 6.12 1.45 4.91 1.45C2.73 1.45 0.96 3.39 0.96 5.76C0.96 7.18 1.59 8.18 2.11 8.98C3.59 11.31 7.32 14.2 7.47 14.32C7.63 14.44 7.8 14.49 7.98 14.49C8.16 14.49 8.33 14.44 8.48 14.32C8.64 14.2 12.36 11.3 13.85 8.98C14.36 8.18 15 7.18 15 5.76C15 3.39 13.23 1.45 11.05 1.45Z" fill="#D81E06" fill-opacity="1.000000" fill-rule="nonzero"/>
	</g>
</svg>
