<svg width="16.000000" height="16.000000" viewBox="0 0 16 16" fill="none" xmlns="http://www.w3.org/2000/svg" xmlns:xlink="http://www.w3.org/1999/xlink">
	<desc>
			Created with Pixso.
	</desc>
	<defs>
		<clipPath id="clip58_2171">
			<rect width="16.000000" height="16.000000" fill="white" fill-opacity="0"/>
		</clipPath>
	</defs>
	<g clip-path="url(#clip58_2171)">
		<path d="M14.2 3.34C14.05 3.14 13.9 3 13.75 2.84C12 1.05 10.14 1.19 8.4 2.59C8.25 2.69 8.1 2.84 7.95 3C7.8 2.84 7.65 2.75 7.5 2.59C5.75 1.25 3.9 1.05 2.15 2.84C2 3 1.85 3.14 1.75 3.34C-0.35 6.39 0.8 9.39 3.9 12.09C4.6 12.7 5.3 13.25 6.05 13.7C6.3 13.84 6.55 14 6.75 14.14C6.9 14.25 6.95 14.3 7.05 14.3C7.1 14.34 7.15 14.34 7.25 14.39C7.3 14.45 7.4 14.45 7.5 14.5C7.9 14.59 8.5 14.55 8.9 14.3C8.95 14.3 9.05 14.25 9.15 14.14C9.35 14.05 9.6 13.89 9.85 13.7C10.6 13.25 11.3 12.7 12 12.09C15.15 9.34 16.29 6.34 14.2 3.34ZM11.5 11.45C10.85 12 10.14 12.55 9.45 13C9.2 13.14 9 13.3 8.75 13.39C8.65 13.45 8.55 13.5 8.5 13.55C8.4 13.59 8.25 13.64 8.1 13.7C8.05 13.7 8 13.7 7.95 13.7C7.85 13.7 7.75 13.7 7.7 13.7C7.65 13.7 7.65 13.7 7.65 13.7C7.65 13.7 7.6 13.7 7.6 13.64C7.55 13.64 7.5 13.59 7.45 13.59C7.4 13.55 7.3 13.5 7.2 13.45C7 13.34 6.75 13.2 6.5 13.05C5.8 12.59 5.1 12.09 4.45 11.5C1.65 9 0.65 6.44 2.4 3.84C2.5 3.69 2.65 3.59 2.75 3.44C4.15 1.94 5.6 2.09 7.05 3.25C7.2 3.34 7.3 3.44 7.4 3.55L7.85 4.05C7.9 4.09 7.9 4.09 7.95 4.14C8 4.09 8.1 4 8.2 3.89C8.4 3.69 8.6 3.5 8.85 3.3C10.3 2.14 11.75 2 13.15 3.5C13.25 3.64 13.4 3.75 13.5 3.89C15.35 6.34 14.35 8.94 11.5 11.45Z" fill="#000000" fill-opacity="1.000000" fill-rule="nonzero"/>
	</g>
</svg>
