<svg width="48.000000" height="48.000000" viewBox="0 0 48 48" fill="none" xmlns="http://www.w3.org/2000/svg" xmlns:xlink="http://www.w3.org/1999/xlink">
	<desc>
			Created with Pixso.
	</desc>
	<defs>
		<filter id="filter_9_498_dd" x="8.000000" y="9.999969" width="30.758118" height="28.946899" filterUnits="userSpaceOnUse" color-interpolation-filters="sRGB">
			<feFlood flood-opacity="0" result="BackgroundImageFix"/>
			<feColorMatrix in="SourceAlpha" type="matrix" values="0 0 0 0 0 0 0 0 0 0 0 0 0 0 0 0 0 0 127 0" result="hardAlpha"/>
			<feOffset dx="0" dy="1"/>
			<feGaussianBlur stdDeviation="0.333333"/>
			<feComposite in2="hardAlpha" operator="out" k2="-1" k3="1"/>
			<feColorMatrix type="matrix" values="0 0 0 0 0 0 0 0 0 0 0 0 0 0 0 0 0 0 0.25 0"/>
			<feBlend mode="normal" in2="BackgroundImageFix" result="effect_dropShadow_1"/>
			<feBlend mode="normal" in="SourceGraphic" in2="effect_dropShadow_1" result="shape"/>
		</filter>
		<filter id="filter_9_500_dd" x="21.315613" y="21.546478" width="17.400421" height="17.400421" filterUnits="userSpaceOnUse" color-interpolation-filters="sRGB">
			<feFlood flood-opacity="0" result="BackgroundImageFix"/>
			<feColorMatrix in="SourceAlpha" type="matrix" values="0 0 0 0 0 0 0 0 0 0 0 0 0 0 0 0 0 0 127 0" result="hardAlpha"/>
			<feOffset dx="0" dy="1"/>
			<feGaussianBlur stdDeviation="0.333333"/>
			<feComposite in2="hardAlpha" operator="out" k2="-1" k3="1"/>
			<feColorMatrix type="matrix" values="0 0 0 0 0 0 0 0 0 0 0 0 0 0 0 0 0 0 0.25 0"/>
			<feBlend mode="normal" in2="BackgroundImageFix" result="effect_dropShadow_1"/>
			<feBlend mode="normal" in="SourceGraphic" in2="effect_dropShadow_1" result="shape"/>
		</filter>
		<linearGradient x1="24.000000" y1="0.000000" x2="24.000000" y2="48.000000" id="paint_linear_9_476_0" gradientUnits="userSpaceOnUse">
			<stop stop-color="#E8993E"/>
			<stop offset="0.918862" stop-color="#E9BC7C" stop-opacity="0.584314"/>
		</linearGradient>
	</defs>
	<rect rx="16.000000" width="48.000000" height="48.000000" fill="url(#paint_linear_9_476_0)" fill-opacity="1.000000"/>
	<g filter="url(#filter_9_498_dd)">
		<path d="M34.97 22.1C34.58 21.8 34.17 21.54 33.74 21.31C33.31 21.08 32.86 20.89 32.4 20.73C31.94 20.57 31.46 20.46 30.98 20.38C30.5 20.3 30.01 20.26 29.53 20.26C24.57 20.26 20.54 24.28 20.54 29.24C20.54 32.51 22.29 35.37 24.9 36.94L13.91 36.94C13.84 36.94 13.77 36.94 13.7 36.93C13.63 36.92 13.57 36.91 13.5 36.9C13.43 36.89 13.36 36.87 13.3 36.85C13.23 36.83 13.17 36.81 13.1 36.78C13.04 36.75 12.98 36.72 12.92 36.69C12.86 36.66 12.8 36.62 12.74 36.59C12.68 36.55 12.63 36.51 12.57 36.46C12.52 36.42 12.47 36.37 12.42 36.32C12.37 36.28 12.33 36.22 12.28 36.17C12.24 36.12 12.2 36.06 12.16 36C12.12 35.95 12.08 35.89 12.05 35.83C12.02 35.77 11.99 35.7 11.96 35.64C11.94 35.58 11.91 35.51 11.89 35.45C11.87 35.38 11.86 35.31 11.84 35.25C11.83 35.18 11.82 35.11 11.81 35.04C11.81 34.97 11.8 34.9 11.8 34.83L11.8 21.33L10.15 22.73C10.12 22.76 10.08 22.79 10.04 22.81C10 22.83 9.96 22.85 9.91 22.87C9.87 22.88 9.82 22.89 9.78 22.9C9.73 22.9 9.69 22.9 9.64 22.9C9.59 22.9 9.55 22.89 9.5 22.87C9.46 22.86 9.42 22.84 9.38 22.82C9.34 22.8 9.3 22.78 9.26 22.75C9.23 22.72 9.19 22.69 9.16 22.65C9.13 22.62 9.11 22.58 9.08 22.54C9.06 22.5 9.04 22.46 9.03 22.41C9.01 22.37 9.01 22.33 9 22.28C8.99 22.23 8.99 22.19 9 22.14C9 22.1 9.01 22.05 9.02 22.01C9.03 21.96 9.05 21.92 9.07 21.88C9.09 21.84 9.12 21.8 9.15 21.76C9.18 21.73 9.21 21.69 9.24 21.66L13.21 18.29L13.21 12.1C13.21 12.03 13.21 11.97 13.22 11.9C13.22 11.83 13.23 11.76 13.25 11.69C13.26 11.62 13.28 11.56 13.3 11.49C13.32 11.43 13.34 11.36 13.37 11.3C13.39 11.23 13.42 11.17 13.46 11.11C13.49 11.05 13.52 10.99 13.56 10.93C13.6 10.88 13.64 10.82 13.69 10.77C13.73 10.71 13.78 10.66 13.82 10.61C13.87 10.57 13.92 10.52 13.98 10.48C14.03 10.43 14.09 10.39 14.14 10.35C14.2 10.31 14.26 10.28 14.32 10.25C14.38 10.21 14.44 10.18 14.51 10.16C14.57 10.13 14.64 10.11 14.7 10.09C14.77 10.07 14.83 10.05 14.9 10.04C14.97 10.02 15.04 10.01 15.11 10.01C15.18 10 15.24 10 15.31 10C15.38 10 15.45 10 15.52 10.01C15.59 10.01 15.66 10.02 15.72 10.04C15.79 10.05 15.86 10.07 15.92 10.09C15.99 10.11 16.05 10.13 16.12 10.16C16.18 10.18 16.24 10.21 16.31 10.25C16.37 10.28 16.43 10.31 16.48 10.35C16.54 10.39 16.6 10.43 16.65 10.48C16.7 10.52 16.75 10.57 16.8 10.61C16.85 10.66 16.9 10.71 16.94 10.77C16.98 10.82 17.02 10.88 17.06 10.93C17.1 10.99 17.14 11.05 17.17 11.11C17.2 11.17 17.23 11.23 17.26 11.3C17.28 11.36 17.31 11.43 17.33 11.49C17.35 11.56 17.36 11.62 17.38 11.69C17.39 11.76 17.4 11.83 17.41 11.9C17.42 11.96 17.42 12.03 17.42 12.1L17.42 14.71L22.38 10.5C22.47 10.42 22.57 10.35 22.68 10.28C22.79 10.22 22.9 10.17 23.01 10.13C23.13 10.08 23.25 10.05 23.37 10.03C23.49 10.01 23.61 10 23.74 9.99C23.86 9.99 23.98 10.01 24.11 10.03C24.23 10.05 24.35 10.08 24.46 10.12C24.58 10.16 24.69 10.22 24.8 10.28C24.9 10.34 25 10.41 25.1 10.49C31.54 15.92 34.77 18.63 34.77 18.64L37.53 20.96C37.56 20.99 37.59 21.02 37.62 21.06C37.64 21.1 37.67 21.13 37.69 21.17C37.71 21.21 37.72 21.26 37.73 21.3C37.74 21.34 37.75 21.39 37.75 21.43C37.75 21.48 37.75 21.52 37.75 21.56C37.74 21.61 37.73 21.65 37.72 21.69C37.7 21.74 37.69 21.78 37.66 21.82C37.64 21.86 37.62 21.89 37.59 21.93C37.56 21.96 37.53 21.99 37.49 22.02C37.46 22.05 37.42 22.07 37.38 22.09C37.34 22.11 37.3 22.13 37.26 22.15C37.22 22.16 37.17 22.17 37.13 22.17C37.08 22.18 37.04 22.18 36.99 22.17C36.95 22.17 36.91 22.16 36.86 22.15C36.82 22.14 36.78 22.12 36.74 22.1C36.7 22.08 36.66 22.06 36.63 22.03L34.97 20.64L34.97 22.1Z" fill="#FFFFFF" fill-opacity="1.000000" fill-rule="nonzero"/>
	</g>
	<g filter="url(#filter_9_500_dd)">
		<path d="M33.48 26.19C33.42 26.13 33.35 26.07 33.29 26.02C33.22 25.96 33.16 25.91 33.08 25.86C33.01 25.81 32.94 25.76 32.87 25.72C32.79 25.68 32.71 25.64 32.64 25.61C32.56 25.58 32.48 25.55 32.39 25.52C32.31 25.49 32.23 25.47 32.15 25.45C32.06 25.43 31.98 25.42 31.89 25.41C31.81 25.4 31.72 25.4 31.64 25.39C31.55 25.39 31.46 25.4 31.38 25.4C31.29 25.41 31.21 25.42 31.12 25.44C31.04 25.45 30.96 25.47 30.87 25.49C30.79 25.52 30.71 25.55 30.63 25.58C30.55 25.61 30.47 25.64 30.4 25.68C30.32 25.72 30.24 25.76 30.17 25.81C30.1 25.86 30.03 25.91 29.96 25.96C29.9 26.01 29.83 26.07 29.77 26.13C29.66 26.23 29.57 26.34 29.48 26.46C29.39 26.58 29.32 26.7 29.25 26.84C29.18 26.97 29.13 27.1 29.09 27.24C29.04 27.38 29.01 27.53 28.99 27.67C28.97 27.82 28.97 27.97 28.97 28.11C28.98 28.26 29 28.4 29.03 28.55C29.06 28.69 29.1 28.83 29.16 28.97C29.21 29.11 29.28 29.24 29.35 29.36L28.5 30.19L27.76 29.42C27.7 29.36 27.64 29.32 27.57 29.3C27.5 29.27 27.42 29.26 27.35 29.26C27.27 29.26 27.2 29.27 27.13 29.3C27.06 29.33 27 29.37 26.94 29.42C26.89 29.48 26.85 29.54 26.82 29.6C26.78 29.67 26.77 29.75 26.76 29.82C26.76 29.9 26.77 29.97 26.8 30.04C26.82 30.11 26.86 30.18 26.91 30.23L27.66 31.01L27.1 31.54L25.89 30.3C25.83 30.24 25.77 30.21 25.7 30.18C25.63 30.15 25.56 30.14 25.48 30.14C25.41 30.14 25.33 30.15 25.26 30.18C25.19 30.21 25.13 30.25 25.08 30.3C25.02 30.36 24.98 30.42 24.95 30.49C24.92 30.55 24.9 30.63 24.9 30.7C24.89 30.78 24.91 30.85 24.93 30.92C24.96 30.99 24.99 31.06 25.04 31.11L26.25 32.36L25.9 32.71C25.87 32.73 25.84 32.76 25.82 32.79C25.79 32.82 25.77 32.86 25.76 32.89C25.74 32.93 25.72 32.97 25.71 33.01C25.71 33.05 25.7 33.08 25.7 33.12C25.7 33.16 25.7 33.2 25.7 33.24C25.71 33.28 25.72 33.32 25.74 33.36C25.75 33.4 25.77 33.43 25.79 33.47C25.81 33.5 25.84 33.53 25.86 33.56C25.89 33.59 25.92 33.61 25.95 33.64C25.99 33.66 26.02 33.68 26.06 33.69C26.1 33.71 26.13 33.72 26.17 33.73C26.21 33.74 26.25 33.74 26.29 33.74C26.33 33.74 26.37 33.73 26.41 33.73C26.45 33.72 26.49 33.71 26.52 33.69C26.56 33.67 26.6 33.65 26.63 33.63C26.66 33.61 26.69 33.58 26.72 33.55L27.49 32.8L28.9 31.44L30.17 30.21C30.38 30.34 30.6 30.45 30.83 30.52C31.07 30.59 31.31 30.63 31.55 30.63L31.59 30.63C31.93 30.64 32.26 30.57 32.58 30.44C32.89 30.32 33.17 30.13 33.42 29.9C33.54 29.78 33.65 29.65 33.75 29.51C33.85 29.36 33.93 29.21 34 29.06C34.07 28.9 34.12 28.73 34.16 28.57C34.19 28.4 34.21 28.23 34.21 28.06C34.22 27.88 34.2 27.71 34.17 27.54C34.14 27.37 34.1 27.21 34.03 27.05C33.97 26.89 33.89 26.74 33.8 26.59C33.7 26.45 33.6 26.31 33.48 26.19ZM30.01 36.94C29.76 36.94 29.51 36.93 29.26 36.9C29 36.88 28.76 36.84 28.51 36.79C28.26 36.74 28.02 36.68 27.78 36.61C27.53 36.54 27.3 36.45 27.06 36.36C26.83 36.26 26.6 36.15 26.38 36.03C26.16 35.91 25.94 35.78 25.73 35.64C25.52 35.5 25.32 35.35 25.13 35.19C24.93 35.03 24.74 34.86 24.57 34.69C24.39 34.51 24.22 34.32 24.06 34.13C23.9 33.93 23.75 33.73 23.61 33.52C23.47 33.31 23.34 33.09 23.22 32.87C23.1 32.65 22.99 32.42 22.9 32.19C22.8 31.96 22.72 31.72 22.64 31.48C22.57 31.24 22.51 30.99 22.46 30.74C22.41 30.5 22.37 30.25 22.35 30C22.32 29.75 22.31 29.49 22.31 29.24C22.31 28.99 22.32 28.74 22.35 28.49C22.37 28.24 22.41 27.99 22.46 27.74C22.51 27.49 22.57 27.25 22.64 27.01C22.72 26.77 22.8 26.53 22.9 26.29C22.99 26.06 23.1 25.83 23.22 25.61C23.34 25.39 23.47 25.17 23.61 24.96C23.75 24.75 23.9 24.55 24.06 24.36C24.22 24.16 24.39 23.98 24.57 23.8C24.74 23.62 24.93 23.45 25.13 23.29C25.32 23.13 25.52 22.98 25.73 22.84C25.94 22.7 26.16 22.57 26.38 22.45C26.6 22.33 26.83 22.22 27.06 22.13C27.3 22.03 27.53 21.95 27.78 21.87C28.02 21.8 28.26 21.74 28.51 21.69C28.76 21.64 29.01 21.6 29.26 21.58C29.51 21.55 29.76 21.54 30.01 21.54C30.26 21.54 30.52 21.55 30.77 21.58C31.02 21.6 31.27 21.64 31.51 21.69C31.76 21.74 32.01 21.8 32.25 21.87C32.49 21.95 32.72 22.03 32.96 22.13C33.19 22.22 33.42 22.33 33.64 22.45C33.86 22.57 34.08 22.7 34.29 22.84C34.5 22.98 34.7 23.13 34.9 23.29C35.09 23.45 35.28 23.62 35.46 23.8C35.63 23.98 35.8 24.16 35.96 24.36C36.12 24.55 36.27 24.75 36.41 24.96C36.55 25.17 36.68 25.39 36.8 25.61C36.92 25.83 37.03 26.06 37.12 26.29C37.22 26.53 37.31 26.77 37.38 27.01C37.45 27.25 37.51 27.49 37.56 27.74C37.61 27.99 37.65 28.24 37.67 28.49C37.7 28.74 37.71 28.99 37.71 29.24C37.71 29.49 37.7 29.75 37.67 30C37.65 30.25 37.61 30.5 37.56 30.74C37.51 30.99 37.45 31.24 37.38 31.48C37.31 31.72 37.22 31.96 37.12 32.19C37.03 32.42 36.92 32.65 36.8 32.87C36.68 33.09 36.55 33.31 36.41 33.52C36.27 33.73 36.12 33.93 35.96 34.13C35.8 34.32 35.63 34.51 35.46 34.69C35.28 34.86 35.09 35.03 34.9 35.19C34.7 35.35 34.5 35.5 34.29 35.64C34.08 35.78 33.86 35.91 33.64 36.03C33.42 36.15 33.19 36.26 32.96 36.36C32.72 36.45 32.49 36.54 32.25 36.61C32 36.68 31.76 36.74 31.51 36.79C31.27 36.84 31.02 36.88 30.77 36.9C30.51 36.93 30.26 36.94 30.01 36.94Z" fill="#FFE6C2" fill-opacity="1.000000" fill-rule="nonzero"/>
	</g>
</svg>
