<svg width="48.000000" height="48.000000" viewBox="0 0 48 48" fill="none" xmlns="http://www.w3.org/2000/svg" xmlns:xlink="http://www.w3.org/1999/xlink">
	<desc>
			Created with Pixso.
	</desc>
	<defs>
		<filter id="filter_9_509_dd" x="8.500000" y="11.000000" width="30.979370" height="26.991333" filterUnits="userSpaceOnUse" color-interpolation-filters="sRGB">
			<feFlood flood-opacity="0" result="BackgroundImageFix"/>
			<feColorMatrix in="SourceAlpha" type="matrix" values="0 0 0 0 0 0 0 0 0 0 0 0 0 0 0 0 0 0 127 0" result="hardAlpha"/>
			<feOffset dx="0" dy="1"/>
			<feGaussianBlur stdDeviation="0.333333"/>
			<feComposite in2="hardAlpha" operator="out" k2="-1" k3="1"/>
			<feColorMatrix type="matrix" values="0 0 0 0 0 0 0 0 0 0 0 0 0 0 0 0 0 0 0.25 0"/>
			<feBlend mode="normal" in2="BackgroundImageFix" result="effect_dropShadow_1"/>
			<feBlend mode="normal" in="SourceGraphic" in2="effect_dropShadow_1" result="shape"/>
		</filter>
		<linearGradient x1="24.000000" y1="0.000000" x2="24.000000" y2="48.000000" id="paint_linear_9_477_0" gradientUnits="userSpaceOnUse">
			<stop stop-color="#50A7F2"/>
			<stop offset="0.997632" stop-color="#6DBEF4" stop-opacity="0.729412"/>
		</linearGradient>
	</defs>
	<rect rx="16.000000" width="48.000000" height="48.000000" fill="url(#paint_linear_9_477_0)" fill-opacity="1.000000"/>
	<g filter="url(#filter_9_509_dd)">
		<path d="M23.35 27.03C23.52 27.19 23.76 27.27 23.99 27.27C24.22 27.27 24.45 27.19 24.63 27.03C24.86 26.84 30.32 22.09 30.32 17.17C30.32 13.76 27.49 11 23.99 11C20.49 11 17.65 13.76 17.65 17.17C17.65 22.09 23.11 26.82 23.35 27.03ZM23.99 15.55C24.9 15.55 25.63 16.28 25.63 17.17C25.63 18.06 24.9 18.79 23.99 18.79C23.08 18.79 22.35 18.06 22.35 17.17C22.35 16.26 23.08 15.55 23.99 15.55Z" fill="#C7E9FC" fill-opacity="1.000000" fill-rule="nonzero"/>
		<path d="M36.18 27.03L35.45 24.53C35.32 24.13 34.95 23.83 34.52 23.83L29.27 23.83C29.08 24.11 28.88 24.39 28.66 24.66C27.2 26.6 25.7 27.88 25.54 28.04C25.11 28.4 24.56 28.61 24.01 28.61C23.44 28.61 22.88 28.4 22.47 28.04C22.31 27.9 20.81 26.6 19.35 24.66C19.13 24.39 18.94 24.11 18.74 23.83L13.48 23.83C13.05 23.83 12.66 24.11 12.55 24.53L11.68 27.5L31.23 31L36.18 27.03ZM38.44 34.77L36.57 28.37L27.25 35.99L37.5 35.99C37.8 35.99 38.09 35.85 38.27 35.6C38.46 35.38 38.52 35.06 38.44 34.77ZM14.26 29.33L11.3 28.8L9.53 34.77C9.44 35.05 9.52 35.36 9.69 35.6C9.87 35.85 10.16 35.99 10.46 35.99L14.24 35.99L14.24 29.33L14.26 29.33ZM15.62 29.57L15.62 35.99L25.13 35.99L29.88 32.11L15.62 29.57Z" fill="#FFFFFF" fill-opacity="1.000000" fill-rule="nonzero"/>
	</g>
</svg>
