<svg width="72.000000" height="105.000000" viewBox="0 0 24 35" fill="none" xmlns="http://www.w3.org/2000/svg"
>
    <desc>
        Created with Pixso.
    </desc>
    <defs/>
    <rect x="11.000000" y="22.000000" rx="1.000000" width="2.000000" height="13.000000" fill="#000000"
          fill-opacity="1.000000"/>
    <circle cx="12.000000" cy="12.000000" r="12.000000" fill="#E84026" fill-opacity="1.000000"/>
    <circle cx="12.000000" cy="12.000000" r="11.500000" stroke="#FFFFFF" stroke-opacity="1.000000"
            stroke-width="1.000000" style=""/>
    <path d="M10.26 12.95L10.75 13.81Q11.89 13.32 13.04 12.72Q13.35 12.56 13.65 12.38Q14.15 12.08 14.62 11.74Q15.45 12.34 16.32 12.78Q17.46 13.38 18.73 13.81L19.06 12.83Q17.97 12.5 16.88 11.95Q16.85 11.94 16.82 11.92Q16.08 11.55 15.39 11.08Q15.99 10.53 16.51 9.92Q17.23 9.06 17.8 8.07L17.8 7.15L13.59 7.15Q13.87 6.55 14.13 5.95L13.26 5.61Q12.98 6.28 12.63 6.92Q12.39 7.37 12.12 7.81Q11.35 9.11 10.37 10.2L10.91 10.86Q11.67 10.1 12.33 9.17Q12.43 9.32 12.53 9.47Q13.12 10.33 13.87 11.08Q13.04 11.63 12.17 12.06Q11.23 12.55 10.26 12.95ZM6.42 13.27L6.7 14.25Q7.08 14.15 7.47 14.09Q8.88 13.87 10.26 13.66L10.26 12.67Q9.16 12.89 8.07 13.06Q8.88 11.85 9.65 10.59Q10.37 9.33 11.03 8.07L10.26 7.7Q9.76 8.68 9.16 9.65Q8.34 9.71 7.47 9.71Q7.96 9 8.39 8.24Q8.94 7.2 9.43 6.1L8.62 5.67Q8.17 6.76 7.62 7.75Q7.19 8.62 6.64 9.45Q6.42 9.71 6.15 9.82L6.38 10.8Q6.64 10.7 6.96 10.7L8.62 10.59Q7.96 11.74 7.13 12.83Q7.02 12.95 6.87 13.06Q6.64 13.15 6.42 13.27ZM13.04 8.07L16.65 8.07Q15.77 9.45 14.62 10.48Q13.75 9.75 13.16 8.83Q13.01 8.6 12.87 8.35Q12.93 8.24 13.04 8.07ZM12.78 13.06L12.44 13.98Q14.41 14.64 16.37 15.3L16.76 14.36Q14.73 13.7 12.78 13.06ZM10.8 16.5L10.8 15.51Q8.39 15.95 6.04 16.33L6.15 17.31Q8.51 16.88 10.8 16.5ZM11.63 15.51L11.35 16.45Q14.19 17.31 17.03 18.31L17.37 17.31Q14.53 16.39 11.63 15.51Z"
          fill="#FFFFFF" fill-opacity="1.000000" fill-rule="evenodd"/>
</svg>
