<svg width="14.000000" height="14.000000" viewBox="0 0 14 14" fill="none" xmlns="http://www.w3.org/2000/svg" xmlns:xlink="http://www.w3.org/1999/xlink">
	<desc>
			Created with Pixso.
	</desc>
	<defs/>
	<path d="M8.77 7.5L4.13 2.86C4.04 2.76 3.99 2.64 3.99 2.5C3.99 2.37 4.04 2.25 4.13 2.14C4.23 2.04 4.35 2 4.49 2C4.63 2 4.74 2.04 4.84 2.14L9.49 6.8C9.69 6.99 9.78 7.23 9.78 7.5C9.78 7.78 9.69 8.01 9.49 8.21L4.85 12.83C4.77 12.93 4.66 12.98 4.51 12.98C4.37 12.98 4.25 12.93 4.15 12.83C4.06 12.74 4.01 12.62 4.01 12.48C4.01 12.34 4.06 12.22 4.15 12.13L8.77 7.5Z" fill="#000000" fill-opacity="0.600000" fill-rule="nonzero"/>
</svg>
