<svg width="16.000000" height="16.000000" viewBox="0 0 16 16" fill="none" xmlns="http://www.w3.org/2000/svg"
>
    <desc>
        Created with Pixso.
    </desc>
    <defs>
        <clipPath id="clip103_1611">
            <rect width="16.000000" height="16.000000" fill="white" fill-opacity="0"/>
        </clipPath>
        <clipPath id="clip103_1610">
            <rect width="16.000000" height="16.000000" fill="white" fill-opacity="0"/>
        </clipPath>
        <clipPath id="clip103_1606">
            <rect width="16.000000" height="16.000000" fill="white" fill-opacity="0"/>
        </clipPath>
    </defs>
    <g clip-path="url(#clip103_1606)">
        <g clip-path="url(#clip103_1610)">
            <g clip-path="url(#clip103_1611)">
                <g opacity="0.000000">
                    <rect width="16.000000" height="16.000000" fill="#D8D8D8" fill-opacity="1.000000"/>
                    <rect width="16.000000" height="16.000000" stroke="#000000" stroke-opacity="0"
                          stroke-width="1.000000"/>
                </g>
                <path d="M10.23 1.99C11.07 1.99 11.84 2.44 12.26 3.17C12.4 3.41 12.31 3.71 12.07 3.85C11.85 3.97 11.58 3.92 11.43 3.72C11.21 3.34 10.78 3.03 10.34 3L10.23 2.99L6.04 2.99C5.63 2.99 5.25 3.18 5 3.49L4.94 3.58L3.14 6.35C2.96 6.62 2.96 6.96 3.13 7.24L3.18 7.31L7.32 12.62C7.38 12.69 7.44 12.76 7.51 12.81C7.92 13.1 8.47 13.04 8.8 12.68L8.86 12.6L12.81 7.26C12.98 7.02 13.02 6.72 12.91 6.45L12.87 6.37L12.2 5.12C12.07 4.87 12.16 4.57 12.4 4.44C12.63 4.32 12.9 4.39 13.05 4.59L13.75 5.89C14.07 6.48 14.04 7.18 13.69 7.74L13.61 7.85L9.67 13.2C9.03 14.07 7.79 14.26 6.92 13.61C6.81 13.53 6.71 13.44 6.62 13.34L6.54 13.24L2.39 7.93C1.94 7.35 1.88 6.56 2.23 5.92L2.3 5.81L4.1 3.03C4.51 2.42 5.17 2.04 5.89 2L6.04 1.99L10.23 1.99ZM6.02 6.97L8.13 9.83L10.26 7.03C10.43 6.81 10.74 6.76 10.96 6.93C11.16 7.08 11.22 7.36 11.1 7.57L8.53 10.96C8.34 11.21 7.99 11.23 7.78 11.02L5.26 7.63C5.1 7.4 5.14 7.09 5.36 6.93C5.57 6.78 5.84 6.8 6.02 6.97Z"
                      fill="#191919" fill-opacity="1.000000" fill-rule="evenodd"/>
                <path d="M12.26 3.17C12.4 3.41 12.31 3.71 12.07 3.85C11.85 3.97 11.58 3.92 11.43 3.72C11.21 3.34 10.78 3.03 10.34 3L10.23 2.99L6.04 2.99C5.63 2.99 5.25 3.18 5 3.49L4.94 3.58L3.14 6.35C2.96 6.62 2.96 6.96 3.13 7.24L3.18 7.31L7.32 12.62C7.38 12.69 7.44 12.76 7.51 12.81C7.92 13.1 8.47 13.04 8.8 12.68L8.86 12.6L12.81 7.26C12.98 7.02 13.02 6.72 12.91 6.45L12.87 6.37L12.2 5.12C12.07 4.87 12.16 4.57 12.4 4.44C12.63 4.32 12.9 4.39 13.05 4.59L13.75 5.89C14.07 6.48 14.04 7.18 13.69 7.74L13.61 7.85L9.67 13.2C9.03 14.07 7.79 14.26 6.92 13.61C6.81 13.53 6.71 13.44 6.62 13.34L6.54 13.24L2.39 7.93C1.94 7.35 1.88 6.56 2.23 5.92L2.3 5.81L4.1 3.03C4.51 2.42 5.17 2.04 5.89 2L6.04 1.99L10.23 1.99C11.07 1.99 11.84 2.44 12.26 3.17ZM8.13 9.83L10.26 7.03C10.43 6.81 10.74 6.76 10.96 6.93C11.16 7.08 11.22 7.36 11.1 7.57L8.53 10.96C8.34 11.21 7.99 11.23 7.78 11.02L5.26 7.63C5.1 7.4 5.14 7.09 5.36 6.93C5.57 6.78 5.84 6.8 6.02 6.97L8.13 9.83Z"
                      stroke="#000000" stroke-opacity="0" stroke-width="1.000000"/>
            </g>
        </g>
    </g>
</svg>
