<svg width="16.000000" height="16.000000" viewBox="0 0 16 16" fill="none" xmlns="http://www.w3.org/2000/svg"
>
    <desc>
        Created with Pixso.
    </desc>
    <defs>
        <clipPath id="clip103_1685">
            <rect width="16.000000" height="16.000000" fill="white" fill-opacity="0"/>
        </clipPath>
        <clipPath id="clip103_1684">
            <rect width="16.000000" height="16.000000" fill="white" fill-opacity="0"/>
        </clipPath>
        <clipPath id="clip103_1682">
            <rect width="16.000000" height="16.000000" fill="white" fill-opacity="0"/>
        </clipPath>
    </defs>
    <g clip-path="url(#clip103_1682)">
        <g clip-path="url(#clip103_1684)">
            <g clip-path="url(#clip103_1685)">
                <rect width="16.000000" height="16.000000" fill="#000000" fill-opacity="0"/>
                <rect width="16.000000" height="16.000000" stroke="#000000" stroke-opacity="0" stroke-width="1.000000"/>
                <path d="M12.16 2.66C13.5 2.66 14.59 3.71 14.66 5.03L14.66 5.16L14.66 6.55C14.66 6.73 14.56 6.89 14.41 6.98C14.05 7.19 13.82 7.57 13.82 8C13.82 8.42 14.05 8.8 14.41 9.01C14.54 9.08 14.63 9.22 14.65 9.37L14.66 9.44L14.66 10.83C14.66 12.17 13.61 13.26 12.29 13.33L12.16 13.33L3.83 13.33C2.49 13.33 1.4 12.28 1.33 10.96L1.33 10.83L1.33 9.44C1.33 9.26 1.42 9.1 1.58 9.01C1.94 8.8 2.16 8.42 2.16 8C2.16 7.57 1.94 7.19 1.58 6.98C1.45 6.91 1.36 6.78 1.33 6.63L1.33 6.55L1.33 5.16C1.33 3.83 2.38 2.73 3.7 2.66L3.83 2.66L12.16 2.66ZM12.16 3.66L3.83 3.66C3.03 3.66 2.38 4.28 2.33 5.06L2.33 5.16L2.33 6.29L2.41 6.35C2.81 6.7 3.07 7.18 3.14 7.71L3.16 7.86L3.16 8C3.16 8.59 2.92 9.15 2.5 9.55L2.41 9.64L2.33 9.7L2.33 10.83C2.33 11.59 2.89 12.21 3.62 12.32L3.73 12.33L3.83 12.33L12.16 12.33C12.95 12.33 13.6 11.71 13.66 10.93L13.66 10.83L13.66 9.71L13.58 9.64C13.17 9.3 12.91 8.81 12.84 8.27L12.83 8.13L12.82 8C12.82 7.4 13.07 6.84 13.48 6.44L13.58 6.35L13.66 6.28L13.66 5.16C13.66 4.4 13.1 3.78 12.37 3.68L12.26 3.66L12.16 3.66ZM8 5.5C8.25 5.5 8.46 5.68 8.49 5.93L8.5 6L8.5 10C8.5 10.27 8.27 10.5 8 10.5C7.74 10.5 7.53 10.31 7.5 10.06L7.5 10L7.5 6C7.5 5.72 7.72 5.5 8 5.5Z"
                      fill="#000000" fill-opacity="1.000000" fill-rule="nonzero"/>
                <path d="M14.66 5.03L14.66 5.16L14.66 6.55C14.66 6.73 14.56 6.89 14.41 6.98C14.05 7.19 13.82 7.57 13.82 8C13.82 8.42 14.05 8.8 14.41 9.01C14.54 9.08 14.63 9.22 14.65 9.37L14.66 9.44L14.66 10.83C14.66 12.17 13.61 13.26 12.29 13.33L12.16 13.33L3.83 13.33C2.49 13.33 1.4 12.28 1.33 10.96L1.33 10.83L1.33 9.44C1.33 9.26 1.42 9.1 1.58 9.01C1.94 8.8 2.16 8.42 2.16 8C2.16 7.57 1.94 7.19 1.58 6.98C1.45 6.91 1.36 6.78 1.33 6.63L1.33 6.55L1.33 5.16C1.33 3.83 2.38 2.73 3.7 2.66L3.83 2.66L12.16 2.66C13.5 2.66 14.59 3.71 14.66 5.03ZM3.83 3.66C3.03 3.66 2.38 4.28 2.33 5.06L2.33 5.16L2.33 6.29L2.41 6.35C2.81 6.7 3.07 7.18 3.14 7.71L3.16 7.86L3.16 8C3.16 8.59 2.92 9.15 2.5 9.55L2.41 9.64L2.33 9.7L2.33 10.83C2.33 11.59 2.89 12.21 3.62 12.32L3.73 12.33L3.83 12.33L12.16 12.33C12.95 12.33 13.6 11.71 13.66 10.93L13.66 10.83L13.66 9.71L13.58 9.64C13.17 9.3 12.91 8.81 12.84 8.27L12.83 8.13L12.82 8C12.82 7.4 13.07 6.84 13.48 6.44L13.58 6.35L13.66 6.28L13.66 5.16C13.66 4.4 13.1 3.78 12.37 3.68L12.26 3.66L12.16 3.66L3.83 3.66ZM8.49 5.93L8.5 6L8.5 10C8.5 10.27 8.27 10.5 8 10.5C7.74 10.5 7.53 10.31 7.5 10.06L7.5 10L7.5 6C7.5 5.72 7.72 5.5 8 5.5C8.25 5.5 8.46 5.68 8.49 5.93Z"
                      stroke="#000000" stroke-opacity="0" stroke-width="1.000000"/>
            </g>
        </g>
    </g>
</svg>
