<svg width="16.000000" height="16.000000" viewBox="0 0 16 16" fill="none" xmlns="http://www.w3.org/2000/svg"
>
    <desc>
        Created with Pixso.
    </desc>
    <defs>
        <clipPath id="clip69_1571">
            <rect width="16.000000" height="16.000000" fill="white" fill-opacity="0"/>
        </clipPath>
    </defs>
    <g clip-path="url(#clip69_1571)">
        <g opacity="0.000000">
            <rect width="16.000000" height="16.000000" fill="#D8D8D8" fill-opacity="1.000000"/>
            <rect width="16.000000" height="16.000000" stroke="#000000" stroke-opacity="0" stroke-width="1.000000"/>
        </g>
        <path d="M8 2.46C9.56 2.46 10.99 3.02 12.11 3.95L12.85 3.21C13.04 3.01 13.36 3.01 13.56 3.21C13.75 3.4 13.75 3.72 13.56 3.91L12.82 4.64C13.82 5.78 14.43 7.27 14.43 8.89C14.43 12.45 11.55 15.33 8 15.33C4.44 15.33 1.56 12.45 1.56 8.89C1.56 5.34 4.44 2.46 8 2.46ZM8.03 4.63C7.78 4.63 7.57 4.82 7.53 5.06L7.53 5.13L7.53 8.05C7.25 8.21 7.06 8.52 7.06 8.86C7.06 9.38 7.48 9.79 8 9.79C8.51 9.79 8.93 9.38 8.93 8.86C8.93 8.58 8.8 8.33 8.61 8.16L8.53 8.1L8.53 5.13L8.52 5.06C8.49 4.82 8.28 4.63 8.03 4.63ZM9.83 0.66C10.11 0.66 10.33 0.89 10.33 1.16C10.33 1.44 10.11 1.66 9.83 1.66L6.13 1.66C5.85 1.66 5.63 1.44 5.63 1.16C5.63 0.89 5.85 0.66 6.13 0.66L9.83 0.66Z"
              fill="#ED6F21" fill-opacity="1.000000" fill-rule="nonzero"/>
        <path d="M12.11 3.95L12.85 3.21C13.04 3.01 13.36 3.01 13.56 3.21C13.75 3.4 13.75 3.72 13.56 3.91L12.82 4.64C13.82 5.78 14.43 7.27 14.43 8.89C14.43 12.45 11.55 15.33 8 15.33C4.44 15.33 1.56 12.45 1.56 8.89C1.56 5.34 4.44 2.46 8 2.46C9.56 2.46 10.99 3.02 12.11 3.95ZM7.53 5.06L7.53 5.13L7.53 8.05C7.25 8.21 7.06 8.52 7.06 8.86C7.06 9.38 7.48 9.79 8 9.79C8.51 9.79 8.93 9.38 8.93 8.86C8.93 8.58 8.8 8.33 8.61 8.16L8.53 8.1L8.53 5.13L8.52 5.06C8.49 4.82 8.28 4.63 8.03 4.63C7.78 4.63 7.57 4.82 7.53 5.06ZM10.33 1.16C10.33 1.44 10.11 1.66 9.83 1.66L6.13 1.66C5.85 1.66 5.63 1.44 5.63 1.16C5.63 0.89 5.85 0.66 6.13 0.66L9.83 0.66C10.11 0.66 10.33 0.89 10.33 1.16Z"
              stroke="#000000" stroke-opacity="0" stroke-width="1.000000"/>
    </g>
</svg>
