<svg width="24.000000" height="24.000000" viewBox="0 0 24 24" fill="none" xmlns="http://www.w3.org/2000/svg" xmlns:xlink="http://www.w3.org/1999/xlink">
	<desc>
			Created with Pixso.
	</desc>
	<defs/>
	<mask id="mask210_1896" mask-type="alpha" maskUnits="userSpaceOnUse" x="4.000000" y="4.000000" width="16.000488" height="16.000244">
		<path d="M20 4L20 13.72C19.2 12.33 17.71 11.4 16 11.4C13.45 11.4 11.4 13.45 11.4 16C11.4 17.71 12.33 19.2 13.72 20L4 20L4 4L20 4ZM20 18.27L20 20L18.27 20C18.99 19.59 19.59 18.99 20 18.27Z" fill="#FFFFFF" fill-opacity="1.000000" fill-rule="nonzero"/>
	</mask>
	<g mask="url(#mask210_1896)">
		<path d="M7.66 4.59L15.66 4.59C16.77 4.59 17.66 5.49 17.66 6.59L17.66 17.4C17.66 18.5 16.77 19.4 15.66 19.4L7.66 19.4C6.56 19.4 5.66 18.5 5.66 17.4L5.66 6.59C5.66 5.49 6.56 4.59 7.66 4.59Z" fill="#FFFFFF" fill-opacity="0" fill-rule="evenodd"/>
		<path d="M15.66 4.59C16.77 4.59 17.66 5.49 17.66 6.59L17.66 17.4C17.66 18.5 16.77 19.4 15.66 19.4L7.66 19.4C6.56 19.4 5.66 18.5 5.66 17.4L5.66 6.59C5.66 5.49 6.56 4.59 7.66 4.59L15.66 4.59Z" stroke="#191919" stroke-opacity="1.000000" stroke-width="1.000000" stroke-linejoin="round"/>
	</g>
	<path d="M8.35 7.97L8.33 8C8.05 8 7.83 7.78 7.83 7.5C7.83 7.21 8.05 7 8.33 7L8.35 7.02L8.35 7.97ZM14.98 7.02L15 7C15.28 7 15.5 7.21 15.5 7.5C15.5 7.78 15.28 8 15 8L14.98 7.97L14.98 7.02ZM8.35 11.31L8.33 11.33C8.05 11.33 7.83 11.11 7.83 10.83C7.83 10.55 8.05 10.33 8.33 10.33L8.35 10.35L8.35 11.31ZM12.31 10.35L12.33 10.33C12.61 10.33 12.83 10.55 12.83 10.83C12.83 11.11 12.61 11.33 12.33 11.33L12.31 11.31L12.31 10.35Z" fill="#000000" fill-opacity="0" fill-rule="nonzero"/>
	<path d="M8.33 7.5L15 7.5M8.33 10.83L12.33 10.83" stroke="#191919" stroke-opacity="1.000000" stroke-width="1.000000" stroke-linejoin="round" stroke-linecap="round"/>
	<circle cx="16.000000" cy="16.000000" r="3.200000" fill="#FFFFFF" fill-opacity="0"/>
	<circle cx="16.000000" cy="16.000000" r="3.200000" stroke="#191919" stroke-opacity="1.000000" stroke-width="1.000000" stroke-linejoin="round"/>
	<path d="M15.12 14.22L15.1 14.2C15.1 13.91 15.31 13.7 15.6 13.7C15.88 13.7 16.1 13.91 16.1 14.2L16.08 14.22L15.12 14.22ZM17.49 17.02L17.52 17.02C17.73 17.2 17.76 17.51 17.57 17.72C17.39 17.93 17.08 17.96 16.87 17.77L16.87 17.75L17.49 17.02Z" fill="#000000" fill-opacity="0" fill-rule="nonzero"/>
	<path d="M15.6 14.2L15.6 16.02L17.2 17.39" stroke="#191919" stroke-opacity="1.000000" stroke-width="1.000000" stroke-linejoin="round" stroke-linecap="round"/>
</svg>
