<svg width="24.000000" height="24.000000" viewBox="0 0 24 24" fill="none" xmlns="http://www.w3.org/2000/svg" xmlns:xlink="http://www.w3.org/1999/xlink">
	<desc>
			Created with Pixso.
	</desc>
	<defs/>
	<path d="M19.82 10.99C19.73 10.5 19.43 10.18 19.05 10.18C19.05 10.18 19.04 10.18 19.04 10.18L18.97 10.18C17.89 10.18 17.01 9.3 17.01 8.22C17.01 7.87 17.18 7.48 17.18 7.47C17.38 7.04 17.23 6.51 16.84 6.23L16.81 6.22L14.83 5.11L14.81 5.1C14.68 5.05 14.53 5.02 14.39 5.02C14.08 5.02 13.78 5.14 13.58 5.35C13.36 5.57 12.61 6.21 12.03 6.21C11.45 6.21 10.69 5.56 10.48 5.33C10.28 5.12 9.97 5 9.66 5C9.52 5 9.38 5.02 9.25 5.08L9.22 5.09L7.17 6.22L7.15 6.23C6.75 6.5 6.6 7.04 6.8 7.47C6.8 7.48 6.97 7.87 6.97 8.22C6.97 9.3 6.09 10.18 5.01 10.18L4.94 10.18C4.94 10.18 4.93 10.18 4.93 10.18C4.56 10.18 4.26 10.5 4.16 10.99C4.16 11.03 4 11.89 4 12.56C4 13.23 4.16 14.09 4.16 14.12C4.26 14.62 4.56 14.94 4.93 14.94C4.93 14.94 4.94 14.94 4.94 14.94L5.01 14.94C6.09 14.94 6.97 15.81 6.97 16.89C6.97 17.24 6.8 17.64 6.8 17.64C6.6 18.08 6.75 18.61 7.14 18.88L7.17 18.9L9.11 19.99L9.14 20C9.27 20.05 9.41 20.08 9.56 20.08C9.87 20.08 10.17 19.95 10.37 19.74C10.65 19.44 11.4 18.82 11.95 18.82C12.55 18.82 13.32 19.51 13.54 19.76C13.74 19.98 14.04 20.11 14.36 20.11C14.51 20.11 14.64 20.08 14.77 20.02L14.8 20.01L16.81 18.9L16.84 18.88C17.23 18.61 17.38 18.08 17.18 17.64C17.18 17.64 17.01 17.24 17.01 16.89C17.01 15.81 17.89 14.94 18.97 14.94L19.04 14.94C19.04 14.94 19.05 14.94 19.05 14.94C19.42 14.94 19.73 14.62 19.82 14.12C19.82 14.12 19.99 13.25 19.99 12.56C19.99 11.88 19.83 11.03 19.82 10.99ZM9.57 18.95L7.86 18C7.94 17.81 8.09 17.36 8.09 16.89C8.09 15.28 6.85 13.94 5.25 13.82C5.21 13.59 5.12 13.01 5.12 12.56C5.12 12.1 5.21 11.52 5.25 11.29C6.85 11.17 8.09 9.84 8.09 8.22C8.09 7.76 7.94 7.31 7.87 7.12L9.68 6.12C9.74 6.19 10 6.45 10.36 6.7C10.95 7.12 11.51 7.34 12.03 7.34C12.54 7.34 13.1 7.13 13.69 6.72C14.05 6.46 14.31 6.21 14.37 6.14L16.12 7.11C16.04 7.31 15.89 7.76 15.89 8.22C15.89 9.84 17.13 11.17 18.73 11.29C18.77 11.52 18.86 12.11 18.86 12.56C18.86 13.01 18.77 13.59 18.73 13.82C17.13 13.94 15.89 15.28 15.89 16.89C15.89 17.36 16.04 17.81 16.12 18L14.35 18.98C14.27 18.9 14.02 18.63 13.66 18.37C13.06 17.92 12.48 17.7 11.95 17.7C11.42 17.7 10.85 17.92 10.25 18.35C9.9 18.61 9.64 18.87 9.57 18.95ZM14.79 12.55C14.79 10.99 13.52 9.71 11.96 9.71C10.39 9.71 9.12 10.99 9.12 12.55C9.12 14.11 10.39 15.38 11.96 15.38C13.52 15.38 14.79 14.11 14.79 12.55ZM11.96 10.84C12.9 10.84 13.66 11.61 13.66 12.55C13.66 13.49 12.9 14.26 11.96 14.26C11.01 14.26 10.25 13.49 10.25 12.55C10.25 11.61 11.01 10.84 11.96 10.84Z" fill="#272636" fill-opacity="1.000000" fill-rule="nonzero"/>
</svg>
