<svg width="72.000000" height="72.000000" viewBox="0 0 72 72" fill="none" xmlns="http://www.w3.org/2000/svg"
>
    <desc>
        Created with Pixso.
    </desc>
    <defs/>
    <rect rx="16.000000" width="72.000000" height="72.000000" fill="#ED6F21" fill-opacity="1.000000"/>
    <circle cx="36.000000" cy="36.000000" r="22.000000" fill="#FFFFFF" fill-opacity="1.000000"/>
    <path d="M21 35.98C21 33.64 20.99 31.3 21 28.95C20.99 27.82 21.13 26.69 21.41 25.59C22.03 23.26 23.54 21.88 25.87 21.35C27.03 21.1 28.22 20.98 29.41 21C33.91 21 38.4 21 42.9 21C44.03 20.99 45.16 21.12 46.27 21.38C48.66 21.97 50.1 23.49 50.64 25.87C50.89 27 51.01 28.15 50.99 29.3C50.99 33.85 50.99 38.39 50.99 42.93C51 44.06 50.87 45.18 50.61 46.27C50.02 48.67 48.5 50.09 46.11 50.64C44.95 50.89 43.76 51.01 42.57 50.99C38.09 50.99 33.62 50.99 29.14 50.99C28 51 26.86 50.87 25.75 50.61C23.34 50.03 21.9 48.5 21.35 46.11C21.07 44.89 21 43.67 21 42.43C21 40.28 21 38.13 21 35.98Z"
          fill="#FFFFFF" fill-opacity="0" fill-rule="nonzero"/>
    <path d="M21 28.95C20.99 27.82 21.13 26.69 21.41 25.59C22.03 23.26 23.54 21.88 25.87 21.35C27.03 21.1 28.22 20.98 29.41 21C33.91 21 38.4 21 42.9 21C44.03 20.99 45.16 21.12 46.27 21.38C48.66 21.97 50.1 23.49 50.64 25.87C50.89 27 51.01 28.15 50.99 29.3C50.99 33.85 50.99 38.39 50.99 42.93C51 44.06 50.87 45.18 50.61 46.27C50.02 48.67 48.5 50.09 46.11 50.64C44.95 50.89 43.76 51.01 42.57 50.99C38.09 50.99 33.62 50.99 29.14 50.99C28 51 26.86 50.87 25.75 50.61C23.34 50.03 21.9 48.5 21.35 46.11C21.07 44.89 21 43.67 21 42.43C21 40.28 21 38.13 21 35.98C21 33.64 20.99 31.3 21 28.95Z"
          stroke="#FFFFFF" stroke-opacity="0" stroke-width="1.500000"/>
    <g opacity="0.200000">
        <path d="M21 35.98C21 33.64 20.99 31.3 21 28.95C20.99 27.82 21.13 26.69 21.41 25.59C22.03 23.26 23.54 21.88 25.87 21.35C27.03 21.1 28.22 20.98 29.41 21C33.91 21 38.4 21 42.9 21C44.03 20.99 45.16 21.12 46.27 21.38C48.66 21.97 50.1 23.49 50.64 25.87C50.89 27 51.01 28.15 50.99 29.3C50.99 33.85 50.99 38.39 50.99 42.93C51 44.06 50.87 45.18 50.61 46.27C50.02 48.67 48.5 50.09 46.11 50.64C44.95 50.89 43.76 51.01 42.57 50.99C38.09 50.99 33.62 50.99 29.14 50.99C28 51 26.86 50.87 25.75 50.61C23.34 50.03 21.9 48.5 21.35 46.11C21.07 44.89 21 43.67 21 42.43C21 40.28 21 38.13 21 35.98Z"
              fill="#000000" fill-opacity="0" fill-rule="nonzero"/>
        <path d="M21 28.95C20.99 27.82 21.13 26.69 21.41 25.59C22.03 23.26 23.54 21.88 25.87 21.35C27.03 21.1 28.22 20.98 29.41 21C33.91 21 38.4 21 42.9 21C44.03 20.99 45.16 21.12 46.27 21.38C48.66 21.97 50.1 23.49 50.64 25.87C50.89 27 51.01 28.15 50.99 29.3C50.99 33.85 50.99 38.39 50.99 42.93C51 44.06 50.87 45.18 50.61 46.27C50.02 48.67 48.5 50.09 46.11 50.64C44.95 50.89 43.76 51.01 42.57 50.99C38.09 50.99 33.62 50.99 29.14 50.99C28 51 26.86 50.87 25.75 50.61C23.34 50.03 21.9 48.5 21.35 46.11C21.07 44.89 21 43.67 21 42.43C21 40.28 21 38.13 21 35.98C21 33.64 20.99 31.3 21 28.95Z"
              stroke="#FFFFFF" stroke-opacity="0" stroke-width="1.500000"/>
    </g>
    <circle cx="36.000000" cy="36.000000" r="16.000000" fill="#FFFFFF" fill-opacity="0"/>
    <circle cx="36.000000" cy="36.000000" r="16.000000" stroke="#000000" stroke-opacity="0" stroke-width="1.500000"/>
    <path d="M39.49 40.26L39.48 40.24C39.69 39.72 40.27 39.48 40.78 39.7C41.3 39.91 41.54 40.49 41.32 41L41.3 41.01L39.49 40.26ZM31.17 47.07L31.18 47.1C30.8 47.52 30.18 47.55 29.76 47.18C29.35 46.8 29.32 46.18 29.69 45.76L29.72 45.76L31.17 47.07Z"
          fill="#000000" fill-opacity="0" fill-rule="nonzero"/>
    <path d="M40.4 40.62C40.14 41.25 40 41.94 40 42.66C40 45.61 42.38 47.99 45.33 47.99C48.27 47.99 50.66 45.61 50.66 42.66C50.66 39.72 48.27 37.33 45.33 37.33C44.61 37.33 43.92 37.47 43.29 37.73L35.46 29.9L29.54 34.21L35.68 40.62L30.43 46.43"
          stroke="#ED6F21" stroke-opacity="1.000000" stroke-width="2.000000" stroke-linejoin="round"
          stroke-linecap="round"/>
    <path d="M26.64 36.35L26.66 36.33C27.22 36.33 27.66 36.77 27.66 37.33C27.66 37.89 27.22 38.33 26.66 38.33L26.64 38.31L26.64 36.35ZM29.73 45.75L29.73 45.73C30.12 45.33 30.74 45.33 31.14 45.73C31.54 46.12 31.54 46.74 31.14 47.14L31.11 47.14L29.73 45.75Z"
          fill="#000000" fill-opacity="0" fill-rule="nonzero"/>
    <path d="M26.66 38.33C26.07 38.33 25.51 38.44 24.98 38.67C24.46 38.89 24 39.2 23.6 39.6C23.2 40 22.89 40.46 22.67 40.98C22.44 41.51 22.33 42.07 22.33 42.66C22.33 43.25 22.44 43.81 22.67 44.35C22.89 44.87 23.2 45.33 23.6 45.73C24 46.13 24.46 46.44 24.98 46.65C25.51 46.88 26.07 47 26.66 47C27.25 47 27.81 46.88 28.35 46.65C28.87 46.44 29.33 46.13 29.73 45.73L31.14 47.14C30.56 47.72 29.89 48.18 29.13 48.5C28.34 48.83 27.52 49 26.66 49C25.8 49 24.98 48.83 24.2 48.5C23.44 48.18 22.77 47.72 22.18 47.14C21.6 46.56 21.15 45.89 20.83 45.13C20.49 44.34 20.33 43.52 20.33 42.66C20.33 41.8 20.49 40.98 20.83 40.2C21.15 39.44 21.6 38.77 22.18 38.18C22.77 37.6 23.44 37.15 24.2 36.83C24.98 36.49 25.8 36.33 26.66 36.33L26.66 38.33ZM26.64 36.35L26.66 36.33C27.22 36.33 27.66 36.77 27.66 37.33C27.66 37.89 27.22 38.33 26.66 38.33L26.64 38.31L26.64 36.35ZM29.73 45.75L29.73 45.73C30.12 45.33 30.74 45.33 31.14 45.73C31.54 46.12 31.54 46.74 31.14 47.14L31.11 47.14L29.73 45.75Z"
          fill="#ED6F21" fill-opacity="1.000000" fill-rule="evenodd"/>
    <path d="M34.78 29.57C35.04 29.38 35.41 29.41 35.65 29.65L42.8 36.96C43.29 36.8 43.87 36.69 44.4 36.67L44.66 36.66C47.98 36.66 50.66 39.35 50.66 42.66C50.66 45.98 47.98 48.66 44.66 48.66C41.35 48.66 38.66 45.98 38.66 42.66C38.66 41.86 38.82 41.09 39.12 40.36C39.26 40.02 39.65 39.86 39.99 40C40.33 40.15 40.49 40.54 40.35 40.88C40.12 41.44 40 42.04 40 42.66C40 45.24 42.08 47.33 44.66 47.33C47.24 47.33 49.33 45.24 49.33 42.66C49.33 40.08 47.24 38 44.66 38C44.04 38 43.44 38.12 42.88 38.35C42.62 38.45 42.33 38.39 42.14 38.2L35.1 30.99L30.83 34.1L36.82 40.15C37.05 40.38 37.07 40.74 36.89 41L31.59 46.88C31.35 47.15 30.93 47.17 30.65 46.93C30.38 46.68 30.36 46.26 30.6 45.99L35.43 40.64L29.34 34.48C29.07 34.21 29.09 33.78 29.36 33.53L34.78 29.57Z"
          fill="#FFFFFF" fill-opacity="0" fill-rule="evenodd"/>
    <path d="" fill="#FFFFFF" fill-opacity="0" fill-rule="evenodd"/>
    <path d="M27.33 36.66C27.7 36.66 28 36.96 28 37.33C28 37.7 27.7 38 27.33 38C24.75 38 22.66 40.08 22.66 42.66C22.66 45.24 24.75 47.33 27.33 47.33C28.58 47.33 29.76 46.83 30.63 45.96C30.89 45.7 31.31 45.7 31.57 45.96C31.83 46.22 31.83 46.64 31.57 46.9C30.45 48.02 28.94 48.66 27.33 48.66C24.01 48.66 21.33 45.98 21.33 42.66C21.33 39.35 24.01 36.66 27.33 36.66Z"
          fill="#FFFFFF" fill-opacity="0" fill-rule="evenodd"/>
    <path d="" fill="#FFFFFF" fill-opacity="0" fill-rule="evenodd"/>
    <circle cx="41.666656" cy="25.333252" r="2.666667" fill="#FFFFFF" fill-opacity="0"/>
    <circle cx="41.666656" cy="25.333252" r="3.666667" stroke="#ED6F21" stroke-opacity="1.000000"
            stroke-width="2.000000" stroke-linejoin="round" style=""/>
</svg>
