<svg width="32.000000" height="32.000000" viewBox="0 0 32 32" fill="none" xmlns="http://www.w3.org/2000/svg" xmlns:xlink="http://www.w3.org/1999/xlink">
	<desc>
			Created with Pixso.
	</desc>
	<defs>
		<clipPath id="clip225_2004">
			<rect width="32.000000" height="32.000000" fill="white" fill-opacity="0"/>
		</clipPath>
	</defs>
	<g clip-path="url(#clip225_2004)">
		<g opacity="0.000000">
			<rect width="32.000000" height="32.000000" fill="#000000" fill-opacity="1.000000"/>
		</g>
		<path d="M17.5 4L24.86 6.94C25.14 7.05 25.34 7.18 25.46 7.33C25.6 7.47 25.67 7.69 25.69 8L25.69 16.48C25.67 18.01 25.36 19.45 24.74 20.78C24.14 22.12 23.22 23.43 21.98 24.73C21.49 25.24 20.9 25.74 20.21 26.22C19.52 26.7 18.61 27.23 17.5 27.81L17.5 31.01C19.42 29.98 20.84 29.16 21.74 28.57C22.65 27.97 23.41 27.35 24.02 26.69C25.48 25.17 26.59 23.6 27.34 21.97C28.1 20.33 28.48 18.56 28.5 16.66L28.5 7.33C28.5 6.58 28.28 5.97 27.85 5.5C27.41 5.03 26.81 4.64 26.05 4.34L17.5 0.98L17.5 4ZM5.98 4.34C5.25 4.63 4.66 5.01 4.21 5.49C3.75 5.97 3.52 6.53 3.52 7.17L3.52 16.66C3.53 18.61 3.91 20.4 4.65 22.05C5.39 23.68 6.5 25.23 8 26.69C8.91 27.6 9.74 28.32 10.48 28.82C11.21 29.34 12.12 29.86 13.18 30.4L14.49 31.01L14.49 27.81C13.38 27.25 12.48 26.73 11.81 26.25C11.12 25.77 10.52 25.26 10.01 24.73C8.77 23.43 7.85 22.12 7.25 20.78C6.64 19.45 6.33 18.01 6.33 16.48L6.33 8C6.33 7.72 6.39 7.5 6.5 7.34C6.63 7.18 6.84 7.05 7.13 6.94L14.49 4L14.49 0.98L5.98 4.34Z" fill="#000000" fill-opacity="1.000000" fill-rule="nonzero"/>
		<path d="M14.17 19.67L17.82 19.67L17.82 11.01L14.17 11.01L14.17 19.67Z" fill="#0A59F7" fill-opacity="1.000000" fill-rule="nonzero"/>
	</g>
</svg>
