<svg width="72.000000" height="102.000000" viewBox="0 0 24 34" fill="none" xmlns="http://www.w3.org/2000/svg"
>
    <desc>
        Created with Pixso.
    </desc>
    <defs/>
    <rect x="10.999756" y="21.000000" rx="1.000000" width="2.000000" height="13.000000" fill="#000000"
          fill-opacity="1.000000"/>
    <circle cx="12.000000" cy="12.000000" r="12.000000" fill="#86C5E3" fill-opacity="1.000000"/>
    <circle cx="12.000000" cy="12.000000" r="11.500000" stroke="#FFFFFF" stroke-opacity="1.000000"
            stroke-width="1.000000" style=""/>
    <path d="M8.44 10.81L5.71 10.81L5.71 11.81L8.72 11.81L8.72 16.67Q8.41 16.47 8.17 16.21Q8.02 16.04 7.89 15.85Q7.57 15.25 7.4 14.65Q7.46 13.65 7.46 12.68L6.52 12.68Q6.52 13.6 6.46 14.59Q6.42 15.31 6.26 16.06Q5.92 17.32 5.37 18.47L6.26 18.81Q6.86 17.55 7.18 16.23Q7.43 16.77 7.83 17.18Q8.19 17.55 8.66 17.81Q9.32 18.09 9.96 18.2Q10.79 18.3 11.62 18.3L18.23 18.3L18.45 17.32L11.77 17.32Q10.68 17.32 9.7 17.1L9.7 14.86L11.83 14.86L11.83 13.88L9.7 13.88L9.7 11.81L12 11.81L12 10.81L9.42 10.81L9.42 8.95L11.62 8.95L11.62 7.97L9.42 7.97L9.42 6.28L8.44 6.28L8.44 7.97L6.2 7.97L6.2 8.95L8.44 8.95L8.44 10.81ZM17.19 7.1L12.22 7.1L12.22 8.08L16.21 8.08L16.21 10.43L12.43 10.43L12.43 14.26Q12.43 14.47 12.45 14.68Q12.48 14.91 12.54 15.14Q12.54 15.15 12.55 15.16Q12.61 15.47 12.88 15.74Q12.95 15.82 13.04 15.87Q13.14 15.93 13.26 15.95Q13.69 16.06 14.12 16.06L15.82 16.06Q16.32 16.06 16.76 15.95Q16.96 15.91 17.19 15.8Q17.47 15.57 17.57 15.31Q17.68 14.92 17.68 14.48L17.79 13.11L16.81 12.9Q16.81 13.56 16.76 14.16Q16.76 14.37 16.7 14.65Q16.59 14.8 16.48 14.92Q16.32 14.97 16.21 15.03Q15.87 15.08 15.55 15.08L14.4 15.08Q14.12 15.08 13.91 15.03Q13.75 14.97 13.63 14.92Q13.46 14.75 13.46 14.59Q13.42 14.31 13.42 14.05L13.42 11.42L17.19 11.42L17.19 7.1Z"
          fill="#FFFFFF" fill-opacity="1.000000" fill-rule="evenodd"/>
</svg>
