<svg width="16.000000" height="16.000000" viewBox="0 0 16 16" fill="none" xmlns="http://www.w3.org/2000/svg"
>
    <desc>
        Created with Pixso.
    </desc>
    <defs>
        <clipPath id="clip90_2112">
            <rect width="16.000000" height="16.000000" fill="white" fill-opacity="0"/>
        </clipPath>
    </defs>
    <g clip-path="url(#clip90_2112)">
        <g opacity="0.000000">
            <rect width="16.000000" height="16.000000" fill="#D8D8D8" fill-opacity="1.000000"/>
            <rect width="16.000000" height="16.000000" stroke="#000000" stroke-opacity="0" stroke-width="1.000000"/>
        </g>
        <path d="M8 1.33C9.47 1.33 10.88 1.81 12.03 2.69C12.25 2.86 12.29 3.17 12.13 3.39C11.96 3.61 11.64 3.65 11.42 3.48C10.45 2.74 9.25 2.33 8 2.33C4.87 2.33 2.33 4.87 2.33 8C2.33 11.12 4.87 13.66 8 13.66C11.12 13.66 13.66 11.12 13.66 8C13.66 6.74 13.25 5.55 12.51 4.57C12.34 4.35 12.38 4.03 12.6 3.87C12.82 3.7 13.14 3.74 13.3 3.96C14.18 5.11 14.66 6.52 14.66 8C14.66 11.68 11.68 14.66 8 14.66C4.31 14.66 1.33 11.68 1.33 8C1.33 4.31 4.31 1.33 8 1.33ZM8 6.58C8.25 6.58 8.46 6.77 8.49 7.01L8.5 7.08L8.5 11C8.5 11.27 8.27 11.5 8 11.5C7.74 11.5 7.53 11.31 7.5 11.06L7.5 11L7.5 7.08C7.5 6.8 7.72 6.58 8 6.58ZM8 4.33C8.36 4.33 8.66 4.63 8.66 5C8.66 5.36 8.36 5.66 8 5.66C7.63 5.66 7.33 5.36 7.33 5C7.33 4.63 7.63 4.33 8 4.33Z"
              fill="#000000" fill-opacity="0.600000" fill-rule="evenodd"/>
        <path d="M12.03 2.69C12.25 2.86 12.29 3.17 12.13 3.39C11.96 3.61 11.64 3.65 11.42 3.48C10.45 2.74 9.25 2.33 8 2.33C4.87 2.33 2.33 4.87 2.33 8C2.33 11.12 4.87 13.66 8 13.66C11.12 13.66 13.66 11.12 13.66 8C13.66 6.74 13.25 5.55 12.51 4.57C12.34 4.35 12.38 4.03 12.6 3.87C12.82 3.7 13.14 3.74 13.3 3.96C14.18 5.11 14.66 6.52 14.66 8C14.66 11.68 11.68 14.66 8 14.66C4.31 14.66 1.33 11.68 1.33 8C1.33 4.31 4.31 1.33 8 1.33C9.47 1.33 10.88 1.81 12.03 2.69ZM8.49 7.01L8.5 7.08L8.5 11C8.5 11.27 8.27 11.5 8 11.5C7.74 11.5 7.53 11.31 7.5 11.06L7.5 11L7.5 7.08C7.5 6.8 7.72 6.58 8 6.58C8.25 6.58 8.46 6.77 8.49 7.01ZM8.66 5C8.66 5.36 8.36 5.66 8 5.66C7.63 5.66 7.33 5.36 7.33 5C7.33 4.63 7.63 4.33 8 4.33C8.36 4.33 8.66 4.63 8.66 5Z"
              stroke="#000000" stroke-opacity="0" stroke-width="1.000000"/>
    </g>
</svg>
