<svg width="24.000000" height="24.000000" viewBox="0 0 24 24" fill="none" xmlns="http://www.w3.org/2000/svg"
>
    <desc>
        Created with Pixso.
    </desc>
    <defs>
        <clipPath id="clip174_1779">
            <rect width="24.000000" height="24.000000" fill="white" fill-opacity="0"/>
        </clipPath>
    </defs>
    <g clip-path="url(#clip174_1779)">
        <path d="M14.2 5.4C15.2 5.4 16.01 4.6 16.01 3.6C16.01 2.61 15.2 1.8 14.2 1.8C13.21 1.8 12.39 2.61 12.39 3.6C12.4 4.6 13.21 5.4 14.2 5.4ZM14.28 9.78C14.02 9.79 13.73 9.66 13.53 9.33L12.35 7.49L9.94 9.89L12.18 11.07C13.1 11.51 12.96 12.32 12.96 12.32L12.96 17.4C12.96 17.97 12.49 18.44 11.92 18.44C11.35 18.44 10.88 17.97 10.88 17.4L10.88 13.33L7 11.17C6.53 10.92 6.22 10.42 6.22 9.86C6.22 9.47 6.36 9.11 6.6 8.84L10.42 5.02C10.89 4.49 11.56 4.57 11.56 4.57C12.35 4.57 12.77 5.27 12.77 5.27L14.75 8.38L17.76 8.37C18.84 8.37 18.84 9.78 17.76 9.78L14.28 9.78Z"
              fill="#FFFFFF" fill-opacity="1.000000" fill-rule="nonzero"/>
        <path d="M19.08 11.83C16.36 11.83 14.16 14.03 14.16 16.75C14.16 19.47 16.36 21.67 19.08 21.67C21.79 21.67 24 19.47 24 16.75C24 14.03 21.79 11.83 19.08 11.83ZM19.08 20.33C17.1 20.33 15.5 18.73 15.5 16.75C15.5 14.78 17.1 13.18 19.08 13.18C21.05 13.18 22.65 14.78 22.65 16.75C22.65 18.73 21.05 20.33 19.08 20.33ZM4.95 11.83C2.24 11.83 0.04 14.03 0.04 16.75C0.04 19.47 2.24 21.67 4.95 21.67C7.67 21.67 9.87 19.47 9.87 16.75C9.87 14.03 7.67 11.83 4.95 11.83ZM4.95 20.33C2.98 20.33 1.38 18.73 1.38 16.75C1.38 14.78 2.98 13.18 4.95 13.18C6.93 13.18 8.54 14.78 8.54 16.75C8.54 18.73 6.93 20.33 4.95 20.33Z"
              fill="#FFFFFF" fill-opacity="1.000000" fill-rule="nonzero"/>
    </g>
</svg>
