<svg width="70.000000" height="70.000000" viewBox="0 0 14 14" fill="none" xmlns="http://www.w3.org/2000/svg"
>
    <desc>
        Created with Pixso.
    </desc>
    <defs>
        <clipPath id="clip88_1690">
            <rect width="10.000000" height="10.000000" transform="translate(2.000000 2.000000)" fill="white"
                  fill-opacity="0"/>
        </clipPath>
    </defs>
    <circle cx="7.000000" cy="7.000000" r="7.000000" fill="#ED6F21" fill-opacity="1.000000"/>
    <circle cx="7.000000" cy="7.000000" r="6.500000" stroke="#000000" stroke-opacity="0.600000" stroke-width="1.000000"
            style=""/>
    <g clip-path="url(#clip88_1690)">
        <g opacity="0.000000">
            <rect x="2.000000" y="2.000000" width="10.000000" height="10.000000" fill="#D8D8D8"
                  fill-opacity="1.000000"/>
            <rect x="2.000000" y="2.000000" width="10.000000" height="10.000000" stroke="#000000" stroke-opacity="0"
                  stroke-width="1.000000"/>
        </g>
        <path d="M7.05 5.46L7.1 5.5L8.59 7.22C8.84 7.08 9.12 7.01 9.42 7.01C10.38 7.01 11.16 7.79 11.16 8.75C11.16 9.71 10.38 10.49 9.42 10.49C8.45 10.49 7.67 9.71 7.67 8.75C7.67 8.65 7.68 8.55 7.7 8.45C7.73 8.28 7.9 8.16 8.07 8.19C8.25 8.22 8.37 8.39 8.34 8.56C8.33 8.62 8.32 8.69 8.32 8.75C8.32 9.36 8.81 9.85 9.42 9.85C10.02 9.85 10.51 9.36 10.51 8.75C10.51 8.15 10.02 7.66 9.42 7.66C9.19 7.66 8.97 7.73 8.79 7.86C8.77 7.87 8.75 7.88 8.73 7.89C8.61 8 8.43 7.98 8.31 7.88L6.66 5.99C6.64 5.98 6.6 5.97 6.58 5.98L6.51 6.04L5.66 6.63C5.65 6.65 5.65 6.69 5.66 6.71L5.7 6.76L6.73 7.87C6.95 8.06 7.07 8.34 7.07 8.62C7.07 8.9 6.94 9.16 6.74 9.31L6.69 9.35L5.58 10.19C5.56 10.2 5.53 10.22 5.51 10.23L5.58 10.19C5.11 10.51 4.49 10.59 3.95 10.38C3.05 10.04 2.6 9.03 2.94 8.13C3.19 7.48 3.79 7.05 4.47 7.01C4.65 7 4.8 7.14 4.81 7.32C4.82 7.5 4.69 7.65 4.51 7.66C4.08 7.69 3.71 7.96 3.55 8.36C3.33 8.93 3.62 9.56 4.18 9.78C4.52 9.91 4.9 9.86 5.19 9.66L6.32 8.81C6.38 8.77 6.42 8.7 6.42 8.62C6.42 8.54 6.39 8.45 6.32 8.38L5.25 7.22C4.97 6.96 4.93 6.51 5.16 6.22L5.2 6.17L5.25 6.13L6.12 5.52C6.38 5.3 6.77 5.26 7.05 5.46ZM8.25 3.66C8.82 3.66 9.28 4.12 9.28 4.7C9.28 5.27 8.82 5.73 8.25 5.73C7.68 5.73 7.21 5.27 7.21 4.7C7.21 4.12 7.68 3.66 8.25 3.66ZM8.25 4.31C8.03 4.31 7.86 4.48 7.86 4.7C7.86 4.91 8.03 5.08 8.25 5.08C8.46 5.08 8.63 4.91 8.63 4.7C8.63 4.48 8.46 4.31 8.25 4.31Z"
              fill="#FFFFFF" fill-opacity="1.000000" fill-rule="evenodd"/>
        <path d="M5.58 10.19C5.11 10.51 4.49 10.59 3.95 10.38C3.05 10.04 2.6 9.03 2.94 8.13C3.19 7.48 3.79 7.05 4.47 7.01C4.65 7 4.8 7.14 4.81 7.32C4.82 7.5 4.69 7.65 4.51 7.66C4.08 7.69 3.71 7.96 3.55 8.36C3.33 8.93 3.62 9.56 4.18 9.78C4.52 9.91 4.9 9.86 5.19 9.66L6.32 8.81C6.38 8.77 6.42 8.7 6.42 8.62C6.42 8.54 6.39 8.45 6.32 8.38L5.25 7.22C4.97 6.96 4.93 6.51 5.16 6.22L5.2 6.17L5.25 6.13L6.12 5.52C6.38 5.3 6.77 5.26 7.05 5.46L7.1 5.5L8.59 7.22C8.84 7.08 9.12 7.01 9.42 7.01C10.38 7.01 11.16 7.79 11.16 8.75C11.16 9.71 10.38 10.49 9.42 10.49C8.45 10.49 7.67 9.71 7.67 8.75C7.67 8.65 7.68 8.55 7.7 8.45C7.73 8.28 7.9 8.16 8.07 8.19C8.25 8.22 8.37 8.39 8.34 8.56C8.33 8.62 8.32 8.69 8.32 8.75C8.32 9.36 8.81 9.85 9.42 9.85C10.02 9.85 10.51 9.36 10.51 8.75C10.51 8.15 10.02 7.66 9.42 7.66C9.19 7.66 8.97 7.73 8.79 7.86C8.77 7.87 8.75 7.88 8.73 7.89C8.61 8 8.43 7.98 8.31 7.88L6.66 5.99C6.64 5.98 6.6 5.97 6.58 5.98L6.51 6.04L5.66 6.63C5.65 6.65 5.65 6.69 5.66 6.71L5.7 6.76L6.73 7.87C6.95 8.06 7.07 8.34 7.07 8.62C7.07 8.9 6.94 9.16 6.74 9.31L6.69 9.35L5.58 10.19C5.56 10.2 5.53 10.22 5.51 10.23L5.58 10.19M9.28 4.7C9.28 5.27 8.82 5.73 8.25 5.73C7.68 5.73 7.21 5.27 7.21 4.7C7.21 4.12 7.68 3.66 8.25 3.66C8.82 3.66 9.28 4.12 9.28 4.7ZM7.86 4.7C7.86 4.91 8.03 5.08 8.25 5.08C8.46 5.08 8.63 4.91 8.63 4.7C8.63 4.48 8.46 4.31 8.25 4.31C8.03 4.31 7.86 4.48 7.86 4.7Z"
              stroke="#000000" stroke-opacity="0" stroke-width="1.000000"/>
    </g>
</svg>
