<svg width="24.000000" height="24.000000" viewBox="0 0 24 24" fill="none" xmlns="http://www.w3.org/2000/svg"
>
    <desc>
        Created with Pixso.
    </desc>
    <defs>
        <clipPath id="clip13_161">
            <rect width="24.000000" height="24.000000" fill="white" fill-opacity="0"/>
        </clipPath>
    </defs>
    <g clip-path="url(#clip13_161)">
        <g opacity="0.000000">
            <rect x="0.750000" y="0.750000" width="22.500000" height="22.500000" fill="#D8D8D8"
                  fill-opacity="1.000000"/>
            <rect x="0.750000" y="0.750000" width="22.500000" height="22.500000" stroke="#979797"
                  stroke-opacity="1.000000" stroke-width="1.500000"/>
        </g>
        <path d="M11.9 7.49C12.73 7.49 13.61 7.97 14.11 8.73C14.49 9.29 14.66 10.08 14.66 11.15C14.66 12.33 14.02 13.62 13.2 14.39L13.06 14.56C12.8 14.98 12.93 15.53 13.34 15.79C14.65 16.6 15.79 17.31 16.75 17.91L18.87 19.26C17.08 20.95 14.66 22 12 22C9.28 22 6.82 20.92 5.02 19.16L5.14 19.08L10.39 15.74L10.55 15.61C10.9 15.26 10.89 14.7 10.54 14.35C9.79 13.61 9.14 12.29 9.14 11.15L9.14 10.55C9.14 10.18 9.16 9.97 9.21 9.73C9.28 9.38 9.41 9.07 9.63 8.75C10.15 7.98 11.06 7.49 11.9 7.49ZM12 2C17.52 2 22 6.47 22 12C22 14.31 21.21 16.44 19.89 18.13L14.76 14.9L14.86 14.79C15.63 13.78 16.16 12.45 16.16 11.15C16.16 9.81 15.93 8.75 15.36 7.89C14.58 6.73 13.24 5.99 11.9 5.99C10.55 5.99 9.18 6.74 8.39 7.91C8.05 8.4 7.85 8.9 7.74 9.44C7.66 9.83 7.64 10.14 7.64 10.72L7.64 11.15L7.65 11.47C7.73 12.63 8.23 13.82 8.9 14.74L8.99 14.85L5.47 17.09L4.02 18.03C2.75 16.35 2 14.26 2 12C2 6.47 6.47 2 12 2Z"
              fill="#191919" fill-opacity="1.000000" fill-rule="evenodd"/>
        <path d="M14.11 8.73C14.49 9.29 14.66 10.08 14.66 11.15C14.66 12.33 14.02 13.62 13.2 14.39L13.06 14.56C12.8 14.98 12.93 15.53 13.34 15.79C14.65 16.6 15.79 17.31 16.75 17.91L18.87 19.26C17.08 20.95 14.66 22 12 22C9.28 22 6.82 20.92 5.02 19.16L5.14 19.08L10.39 15.74L10.55 15.61C10.9 15.26 10.89 14.7 10.54 14.35C9.79 13.61 9.14 12.29 9.14 11.15L9.14 10.55C9.14 10.18 9.16 9.97 9.21 9.73C9.28 9.38 9.41 9.07 9.63 8.75C10.15 7.98 11.06 7.49 11.9 7.49C12.73 7.49 13.61 7.97 14.11 8.73ZM22 12C22 14.31 21.21 16.44 19.89 18.13L14.76 14.9L14.86 14.79C15.63 13.78 16.16 12.45 16.16 11.15C16.16 9.81 15.93 8.75 15.36 7.89C14.58 6.73 13.24 5.99 11.9 5.99C10.55 5.99 9.18 6.74 8.39 7.91C8.05 8.4 7.85 8.9 7.74 9.44C7.66 9.83 7.64 10.14 7.64 10.72L7.64 11.15L7.65 11.47C7.73 12.63 8.23 13.82 8.9 14.74L8.99 14.85L5.47 17.09L4.02 18.03C2.75 16.35 2 14.26 2 12C2 6.47 6.47 2 12 2C17.52 2 22 6.47 22 12Z"
              stroke="#000000" stroke-opacity="0" stroke-width="1.000000"/>
    </g>
</svg>
