<svg width="24.000000" height="24.000000" viewBox="0 0 24 24" fill="none" xmlns="http://www.w3.org/2000/svg"
>
    <desc>
        Created with Pixso.
    </desc>
    <defs>
        <clipPath id="clip19_819">
            <rect width="24.000000" height="24.000000" fill="white" fill-opacity="0"/>
        </clipPath>
    </defs>
    <g clip-path="url(#clip19_819)">
        <g opacity="0.000000">
            <rect width="24.000000" height="24.000000" fill="#D8D8D8" fill-opacity="1.000000"/>
            <rect width="24.000000" height="24.000000" stroke="#000000" stroke-opacity="0" stroke-width="1.000000"/>
        </g>
        <path d="M3.75 13.5C4.3 13.5 4.75 13.94 4.75 14.5L4.75 18C4.75 18.68 5.31 19.25 6 19.25L9.5 19.25C10.05 19.25 10.5 19.69 10.5 20.25C10.5 20.8 10.05 21.25 9.5 21.25L6 21.25C4.2 21.25 2.75 19.79 2.75 18L2.75 14.5C2.75 13.94 3.19 13.5 3.75 13.5ZM20.25 13.5C20.8 13.5 21.25 13.94 21.25 14.5L21.25 18C21.25 19.79 19.79 21.25 18 21.25L14.5 21.25C13.94 21.25 13.5 20.8 13.5 20.25C13.5 19.69 13.94 19.25 14.5 19.25L18 19.25C18.68 19.25 19.25 18.68 19.25 18L19.25 14.5C19.25 13.94 19.69 13.5 20.25 13.5ZM18.5 11C19.05 11 19.5 11.44 19.5 12C19.5 12.55 19.05 13 18.5 13L5.5 13C4.94 13 4.5 12.55 4.5 12C4.5 11.44 4.94 11 5.5 11L18.5 11ZM9.5 2.75C10.05 2.75 10.5 3.19 10.5 3.75C10.5 4.3 10.05 4.75 9.5 4.75L6 4.75C5.31 4.75 4.75 5.31 4.75 6L4.75 9.5C4.75 10.05 4.3 10.5 3.75 10.5C3.19 10.5 2.75 10.05 2.75 9.5L2.75 6C2.75 4.2 4.2 2.75 6 2.75L9.5 2.75ZM18 2.75C19.79 2.75 21.25 4.2 21.25 6L21.25 9.5C21.25 10.05 20.8 10.5 20.25 10.5C19.69 10.5 19.25 10.05 19.25 9.5L19.25 6C19.25 5.31 18.68 4.75 18 4.75L14.5 4.75C13.94 4.75 13.5 4.3 13.5 3.75C13.5 3.19 13.94 2.75 14.5 2.75L18 2.75Z"
              fill="#FFFFFF" fill-opacity="1.000000" fill-rule="evenodd"/>
        <path d="M4.75 14.5L4.75 18C4.75 18.68 5.31 19.25 6 19.25L9.5 19.25C10.05 19.25 10.5 19.69 10.5 20.25C10.5 20.8 10.05 21.25 9.5 21.25L6 21.25C4.2 21.25 2.75 19.79 2.75 18L2.75 14.5C2.75 13.94 3.19 13.5 3.75 13.5C4.3 13.5 4.75 13.94 4.75 14.5ZM21.25 14.5L21.25 18C21.25 19.79 19.79 21.25 18 21.25L14.5 21.25C13.94 21.25 13.5 20.8 13.5 20.25C13.5 19.69 13.94 19.25 14.5 19.25L18 19.25C18.68 19.25 19.25 18.68 19.25 18L19.25 14.5C19.25 13.94 19.69 13.5 20.25 13.5C20.8 13.5 21.25 13.94 21.25 14.5ZM19.5 12C19.5 12.55 19.05 13 18.5 13L5.5 13C4.94 13 4.5 12.55 4.5 12C4.5 11.44 4.94 11 5.5 11L18.5 11C19.05 11 19.5 11.44 19.5 12ZM10.5 3.75C10.5 4.3 10.05 4.75 9.5 4.75L6 4.75C5.31 4.75 4.75 5.31 4.75 6L4.75 9.5C4.75 10.05 4.3 10.5 3.75 10.5C3.19 10.5 2.75 10.05 2.75 9.5L2.75 6C2.75 4.2 4.2 2.75 6 2.75L9.5 2.75C10.05 2.75 10.5 3.19 10.5 3.75ZM21.25 6L21.25 9.5C21.25 10.05 20.8 10.5 20.25 10.5C19.69 10.5 19.25 10.05 19.25 9.5L19.25 6C19.25 5.31 18.68 4.75 18 4.75L14.5 4.75C13.94 4.75 13.5 4.3 13.5 3.75C13.5 3.19 13.94 2.75 14.5 2.75L18 2.75C19.79 2.75 21.25 4.2 21.25 6Z"
              stroke="#000000" stroke-opacity="0" stroke-width="1.000000"/>
    </g>
</svg>
