<svg width="16.000000" height="16.000000" viewBox="0 0 16 16" fill="none" xmlns="http://www.w3.org/2000/svg" xmlns:xlink="http://www.w3.org/1999/xlink">
	<desc>
			Created with Pixso.
	</desc>
	<defs>
		<clipPath id="clip56_1530">
			<rect width="16.000000" height="16.000000" fill="white" fill-opacity="0"/>
		</clipPath>
	</defs>
	<g clip-path="url(#clip56_1530)">
		<path d="M7.5 2C7.56 2 7.63 2 7.69 2.01C7.75 2.03 7.82 2.05 7.88 2.07C7.94 2.1 8 2.13 8.05 2.16C8.11 2.2 8.16 2.24 8.2 2.29C8.25 2.33 8.29 2.38 8.33 2.44C8.36 2.49 8.39 2.55 8.42 2.61C8.44 2.67 8.46 2.74 8.48 2.8C8.49 2.86 8.5 2.93 8.5 3L8.5 5.49L13 5.49C13.06 5.49 13.13 5.5 13.19 5.51C13.25 5.52 13.32 5.54 13.38 5.57C13.44 5.59 13.5 5.62 13.55 5.66C13.61 5.7 13.66 5.74 13.7 5.78C13.75 5.83 13.79 5.88 13.83 5.94C13.86 5.99 13.89 6.05 13.92 6.11C13.94 6.17 13.96 6.23 13.98 6.3C13.99 6.36 14 6.43 14 6.49L14 13C14 13.06 13.99 13.13 13.98 13.19C13.96 13.25 13.94 13.32 13.92 13.38C13.89 13.44 13.86 13.5 13.83 13.55C13.79 13.61 13.75 13.66 13.7 13.7C13.66 13.75 13.61 13.79 13.55 13.83C13.5 13.86 13.44 13.89 13.38 13.92C13.32 13.94 13.25 13.96 13.19 13.98C13.13 13.99 13.06 14 13 14L3 14C2.93 14 2.86 13.99 2.8 13.98C2.74 13.96 2.67 13.94 2.61 13.92C2.55 13.89 2.49 13.86 2.44 13.83C2.38 13.79 2.33 13.75 2.29 13.7C2.24 13.66 2.2 13.61 2.16 13.55C2.13 13.5 2.1 13.44 2.07 13.38C2.05 13.32 2.03 13.25 2.01 13.19C2 13.13 2 13.06 2 13L2 3C2 2.93 2 2.86 2.01 2.8C2.03 2.74 2.05 2.67 2.07 2.61C2.1 2.55 2.13 2.49 2.16 2.44C2.2 2.38 2.24 2.33 2.29 2.29C2.33 2.24 2.38 2.2 2.44 2.16C2.49 2.13 2.55 2.1 2.61 2.07C2.67 2.05 2.74 2.03 2.8 2.01C2.86 2 2.93 2 3 2L7.5 2ZM9 6.5C8.96 6.5 8.93 6.5 8.9 6.5C8.87 6.51 8.83 6.52 8.8 6.53C8.77 6.55 8.74 6.56 8.72 6.58C8.69 6.6 8.66 6.62 8.64 6.64C8.62 6.66 8.6 6.69 8.58 6.72C8.56 6.74 8.55 6.77 8.53 6.8C8.52 6.83 8.51 6.87 8.5 6.9C8.5 6.93 8.5 6.96 8.5 7L8.5 10L6.5 10L6.41 10C6.37 10.01 6.34 10.02 6.32 10.03C6.29 10.04 6.26 10.05 6.23 10.07C6.21 10.08 6.18 10.1 6.16 10.12C6.14 10.14 6.12 10.17 6.1 10.19C6.08 10.22 6.06 10.24 6.05 10.27C6.03 10.3 6.02 10.33 6.01 10.36C6.01 10.39 6 10.42 6 10.45C5.99 10.48 5.99 10.51 6 10.54C6 10.57 6 10.6 6.01 10.63C6.02 10.66 6.03 10.69 6.05 10.72C6.06 10.75 6.08 10.77 6.09 10.8C6.11 10.82 6.13 10.84 6.16 10.86C6.18 10.89 6.2 10.9 6.23 10.92C6.26 10.94 6.29 10.95 6.31 10.96C6.34 10.97 6.37 10.98 6.4 10.99C6.43 10.99 6.46 11 6.5 11L11.5 11L11.59 10.99C11.62 10.98 11.65 10.97 11.67 10.96C11.7 10.95 11.73 10.94 11.76 10.92C11.78 10.91 11.81 10.89 11.83 10.87C11.85 10.85 11.88 10.82 11.89 10.8C11.91 10.77 11.93 10.75 11.94 10.72C11.96 10.69 11.97 10.66 11.98 10.63C11.99 10.6 11.99 10.57 11.99 10.54C12 10.51 12 10.48 11.99 10.45C11.99 10.42 11.99 10.39 11.98 10.36C11.97 10.33 11.96 10.3 11.94 10.27C11.93 10.24 11.91 10.22 11.9 10.19C11.88 10.17 11.86 10.15 11.83 10.13C11.81 10.1 11.79 10.09 11.76 10.07C11.73 10.05 11.71 10.04 11.68 10.03C11.65 10.02 11.62 10.01 11.59 10C11.56 10 11.53 10 11.5 10L9.5 10L9.5 7C9.5 6.96 9.49 6.93 9.49 6.9C9.48 6.87 9.47 6.83 9.46 6.8C9.44 6.77 9.43 6.74 9.41 6.72C9.39 6.69 9.37 6.66 9.35 6.64C9.33 6.62 9.3 6.6 9.27 6.58C9.25 6.56 9.22 6.55 9.19 6.53C9.16 6.52 9.12 6.51 9.09 6.5C9.06 6.5 9.03 6.5 9 6.5ZM6.5 5L3.5 5L3.41 5C3.37 5.01 3.34 5.02 3.32 5.03C3.29 5.04 3.26 5.05 3.23 5.07C3.21 5.08 3.18 5.1 3.16 5.12C3.14 5.14 3.12 5.17 3.1 5.19C3.08 5.22 3.06 5.24 3.05 5.27C3.03 5.3 3.02 5.33 3.01 5.36C3.01 5.39 3 5.42 3 5.45C2.99 5.48 2.99 5.51 3 5.54C3 5.57 3 5.6 3.01 5.63C3.02 5.66 3.03 5.69 3.05 5.72C3.06 5.75 3.08 5.77 3.09 5.8C3.11 5.82 3.13 5.84 3.16 5.86C3.18 5.89 3.2 5.9 3.23 5.92C3.26 5.94 3.29 5.95 3.31 5.96C3.34 5.97 3.37 5.98 3.4 5.99C3.43 5.99 3.46 6 3.5 6L6.5 6L6.58 5.99C6.62 5.98 6.65 5.97 6.67 5.96C6.7 5.95 6.73 5.94 6.76 5.92C6.78 5.91 6.81 5.89 6.83 5.87C6.85 5.85 6.88 5.82 6.89 5.8C6.91 5.77 6.93 5.75 6.94 5.72C6.96 5.69 6.97 5.66 6.98 5.63C6.98 5.6 6.99 5.57 6.99 5.54C7 5.51 7 5.48 6.99 5.45C6.99 5.42 6.99 5.39 6.98 5.36C6.97 5.33 6.96 5.3 6.94 5.27C6.93 5.24 6.91 5.22 6.9 5.19C6.88 5.17 6.86 5.15 6.83 5.13C6.81 5.1 6.79 5.09 6.76 5.07C6.73 5.05 6.7 5.04 6.68 5.03C6.65 5.02 6.62 5.01 6.59 5C6.56 5 6.53 5 6.5 5Z" fill="#000000" fill-opacity="0.400000" fill-rule="nonzero"/>
	</g>
</svg>
