<svg width="12.000000" height="12.000000" viewBox="0 0 12 12" fill="none" xmlns="http://www.w3.org/2000/svg" xmlns:xlink="http://www.w3.org/1999/xlink">
	<desc>
			Created with Pixso.
	</desc>
	<defs>
		<clipPath id="clip13_576">
			<rect width="12.000000" height="12.000000" fill="white" fill-opacity="0"/>
		</clipPath>
	</defs>
	<g clip-path="url(#clip13_576)">
		<path d="M6 0.16C3.66 0.16 1.78 2.06 1.78 4.4C1.78 7.3 5.56 11.54 5.72 11.72C5.88 11.88 6.14 11.88 6.28 11.72C6.44 11.54 10.22 7.3 10.22 4.4C10.22 2.06 8.34 0.16 6 0.16ZM6 6.52C4.82 6.52 3.88 5.56 3.88 4.4C3.88 3.24 4.82 2.26 6 2.26C7.17 2.26 8.12 3.22 8.12 4.4C8.12 5.58 7.17 6.52 6 6.52Z" fill="#FFFFFF" fill-opacity="1.000000" fill-rule="nonzero"/>
	</g>
</svg>
