<svg width="12.000000" height="12.000000" viewBox="0 0 12 12" fill="none" xmlns="http://www.w3.org/2000/svg" xmlns:xlink="http://www.w3.org/1999/xlink">
	<desc>
			Created with Pixso.
	</desc>
	<defs>
		<clipPath id="clip25_1196">
			<rect width="12.000000" height="12.000000" fill="white" fill-opacity="0"/>
		</clipPath>
	</defs>
	<g clip-path="url(#clip25_1196)">
		<path d="M9.82 0L9.11 0C8.7 0 8.33 0.22 8.14 0.58L7.92 1.01C7.89 1.06 7.86 1.11 7.82 1.15C7.78 1.19 7.74 1.22 7.69 1.25C7.64 1.28 7.59 1.31 7.53 1.32C7.48 1.34 7.42 1.34 7.36 1.34L4.7 1.34C4.47 1.34 4.26 1.22 4.15 1.01L3.92 0.58C3.73 0.22 3.36 0 2.96 0L2.32 0C1.83 0 1.42 0.4 1.42 0.9L1.42 11.1C1.42 11.59 1.83 12 2.32 12L9.82 12C10.32 12 10.72 11.59 10.72 11.1L10.72 0.9C10.72 0.4 10.32 0 9.82 0ZM8.58 8.88C8.52 8.95 8.42 9 8.32 9L3.75 9C3.54 9 3.37 8.83 3.37 8.62C3.37 8.52 3.41 8.42 3.48 8.36C3.55 8.29 3.64 8.25 3.75 8.25L8.32 8.25C8.53 8.25 8.7 8.41 8.7 8.62C8.7 8.72 8.65 8.82 8.58 8.88ZM8.58 6.45C8.52 6.52 8.42 6.56 8.32 6.56L3.75 6.56C3.54 6.56 3.37 6.39 3.37 6.18C3.37 6.08 3.41 5.99 3.48 5.92C3.55 5.85 3.64 5.81 3.75 5.81L8.32 5.81C8.53 5.81 8.7 5.98 8.7 6.18C8.7 6.29 8.65 6.38 8.58 6.45ZM8.58 4.01C8.52 4.08 8.42 4.12 8.32 4.12L3.75 4.12C3.54 4.12 3.37 3.95 3.37 3.75C3.37 3.64 3.41 3.55 3.48 3.48C3.55 3.41 3.64 3.37 3.75 3.37L8.32 3.37C8.53 3.37 8.7 3.54 8.7 3.75C8.7 3.85 8.65 3.94 8.58 4.01Z" fill="#64BB5C" fill-opacity="1.000000" fill-rule="nonzero"/>
		<path d="M7.27 0.75L4.72 0.75C4.51 0.75 4.34 0.58 4.34 0.37C4.34 0.16 4.51 0 4.72 0L7.27 0C7.48 0 7.65 0.16 7.65 0.37C7.65 0.58 7.48 0.75 7.27 0.75Z" fill="#64BB5C" fill-opacity="1.000000" fill-rule="nonzero"/>
	</g>
</svg>
