<svg width="16.000000" height="16.000000" viewBox="0 0 16 16" fill="none" xmlns="http://www.w3.org/2000/svg" xmlns:xlink="http://www.w3.org/1999/xlink">
	<desc>
			Created with Pixso.
	</desc>
	<defs>
		<clipPath id="clip56_1532">
			<rect width="16.000000" height="16.000000" fill="white" fill-opacity="0"/>
		</clipPath>
	</defs>
	<g clip-path="url(#clip56_1532)">
		<path d="M13.89 7.2L11.36 4.91L11.36 4.88L11.36 3.22C11.36 3.2 11.35 3.18 11.35 3.16C11.35 3.14 11.34 3.12 11.33 3.1C11.32 3.08 11.31 3.06 11.3 3.04C11.29 3.03 11.28 3.01 11.26 2.99C11.25 2.98 11.23 2.97 11.21 2.95C11.2 2.94 11.18 2.93 11.16 2.92C11.14 2.92 11.12 2.91 11.1 2.91C11.08 2.9 11.06 2.9 11.04 2.9C11.01 2.9 10.99 2.9 10.97 2.91C10.95 2.91 10.93 2.92 10.91 2.92C10.89 2.93 10.88 2.94 10.86 2.95C10.84 2.97 10.82 2.98 10.81 2.99C10.79 3.01 10.78 3.03 10.77 3.04C10.76 3.06 10.75 3.08 10.74 3.1C10.73 3.12 10.73 3.14 10.72 3.16C10.72 3.18 10.72 3.2 10.72 3.22L10.72 4.34L8.21 2.08C8.18 2.05 8.15 2.03 8.11 2.02C8.07 2 8.03 2 8 2C7.96 2 7.92 2 7.88 2.02C7.84 2.03 7.81 2.05 7.78 2.08L2.1 7.2C2.09 7.22 2.07 7.23 2.06 7.25C2.05 7.27 2.04 7.29 2.03 7.31C2.02 7.32 2.01 7.34 2.01 7.36C2 7.39 2 7.41 2 7.43C1.99 7.45 2 7.47 2 7.49C2 7.51 2.01 7.53 2.01 7.55C2.02 7.57 2.03 7.59 2.04 7.61C2.05 7.63 2.06 7.65 2.08 7.66C2.19 7.79 2.4 7.81 2.53 7.69L3.2 7.08L3.2 13.46C3.2 13.75 3.44 14 3.73 14L12.42 14C12.45 13.99 12.49 13.99 12.52 13.98C12.55 13.98 12.59 13.97 12.62 13.95C12.65 13.94 12.68 13.92 12.71 13.9C12.74 13.88 12.77 13.86 12.79 13.84C12.82 13.81 12.84 13.78 12.86 13.75C12.88 13.72 12.9 13.69 12.91 13.66C12.92 13.63 12.93 13.59 12.94 13.56C12.95 13.53 12.95 13.49 12.95 13.46L12.95 7.22L13.46 7.69C13.48 7.7 13.49 7.71 13.51 7.72C13.53 7.74 13.55 7.74 13.57 7.75C13.59 7.76 13.61 7.76 13.63 7.77C13.65 7.77 13.67 7.77 13.69 7.77C13.71 7.77 13.74 7.76 13.76 7.76C13.78 7.75 13.8 7.75 13.81 7.74C13.83 7.73 13.85 7.72 13.87 7.7C13.88 7.69 13.9 7.68 13.91 7.66C13.93 7.65 13.94 7.63 13.95 7.61C13.96 7.59 13.97 7.57 13.98 7.55C13.98 7.53 13.99 7.51 13.99 7.49C13.99 7.47 14 7.45 13.99 7.43C13.99 7.41 13.99 7.39 13.98 7.36C13.98 7.34 13.97 7.32 13.96 7.31C13.95 7.29 13.94 7.27 13.93 7.25C13.92 7.23 13.9 7.22 13.89 7.2ZM9.23 11.17L8.74 11.17L8.74 9.57C8.74 9.27 8.69 9.05 8.6 8.92C8.51 8.79 8.35 8.73 8.14 8.73C7.96 8.73 7.81 8.81 7.68 8.98C7.62 9.07 7.57 9.16 7.53 9.27C7.5 9.37 7.49 9.48 7.49 9.58L7.49 11.17L7 11.17L7 9.52C7 8.99 6.8 8.73 6.4 8.73C6.35 8.73 6.3 8.73 6.26 8.74C6.22 8.75 6.17 8.77 6.13 8.79C6.09 8.81 6.06 8.84 6.02 8.87C5.99 8.9 5.96 8.93 5.93 8.97C5.81 9.13 5.75 9.34 5.75 9.59L5.75 11.17L5.26 11.17L5.26 8.38L5.75 8.38L5.75 8.82L5.76 8.82C5.96 8.48 6.24 8.32 6.62 8.32C6.8 8.32 6.97 8.37 7.11 8.47C7.25 8.57 7.35 8.71 7.4 8.89C7.61 8.51 7.91 8.32 8.32 8.32C8.93 8.32 9.23 8.69 9.23 9.45L9.23 11.17ZM11.27 9.08L10.01 9.08C9.89 9.08 9.84 9.04 9.84 8.95C9.84 8.9 9.84 8.87 9.9 8.8L10.76 8C10.92 7.84 11.05 7.72 11.05 7.55C11.05 7.3 10.94 7.16 10.63 7.16C10.38 7.16 10.17 7.27 10.17 7.59C10.17 7.65 10.11 7.73 10.02 7.73C9.89 7.73 9.84 7.65 9.84 7.59C9.84 7.17 10.14 6.82 10.69 6.82C11.13 6.82 11.41 7.12 11.41 7.5C11.41 7.72 11.28 7.9 11.15 8.05L10.44 8.74L11.27 8.74C11.36 8.74 11.41 8.81 11.41 8.92C11.41 9.02 11.35 9.08 11.27 9.08Z" fill="#000000" fill-opacity="0.400000" fill-rule="nonzero"/>
	</g>
</svg>
