<svg width="16.000000" height="16.000000" viewBox="0 0 16 16" fill="none" xmlns="http://www.w3.org/2000/svg" xmlns:xlink="http://www.w3.org/1999/xlink">
	<desc>
			Created with Pixso.
	</desc>
	<defs>
		<clipPath id="clip56_1524">
			<rect width="16.000000" height="16.000000" fill="white" fill-opacity="0"/>
		</clipPath>
	</defs>
	<g clip-path="url(#clip56_1524)">
		<path d="M7.78 0.59C7.81 0.59 7.83 0.58 7.87 0.56C7.94 0.51 8.03 0.43 8.15 0.31C8.29 0.18 8.43 0.09 8.57 0.03C8.71 -0.03 8.9 -0.01 9.13 0.08C9.25 0.12 9.35 0.17 9.42 0.23C9.49 0.3 9.55 0.36 9.62 0.42C9.68 0.47 9.75 0.52 9.83 0.56C9.91 0.61 10 0.63 10.12 0.63C10.24 0.63 10.34 0.61 10.42 0.57C10.5 0.54 10.58 0.51 10.65 0.48C10.73 0.45 10.81 0.43 10.88 0.42C10.96 0.4 11.05 0.42 11.16 0.45C11.27 0.5 11.35 0.56 11.39 0.65C11.43 0.74 11.45 0.83 11.43 0.92C11.41 1.02 11.37 1.11 11.31 1.2C11.24 1.3 11.16 1.37 11.07 1.43C10.85 1.57 10.68 1.72 10.56 1.86C10.44 2.01 10.32 2.17 10.21 2.33C10.15 2.41 10.08 2.51 10.01 2.61C9.94 2.72 9.88 2.82 9.82 2.93C9.75 3.06 9.67 3.18 9.59 3.3L5.95 3.3C5.87 3.16 5.79 3.02 5.71 2.89C5.64 2.77 5.56 2.66 5.48 2.54C5.4 2.42 5.33 2.32 5.27 2.23C5.15 2.05 5.02 1.89 4.87 1.76C4.73 1.62 4.58 1.5 4.44 1.4C4.29 1.29 4.19 1.15 4.13 0.97C4.07 0.79 4.12 0.63 4.29 0.5C4.37 0.45 4.46 0.42 4.57 0.43C4.67 0.45 4.78 0.47 4.9 0.5C5.02 0.54 5.13 0.57 5.24 0.61C5.35 0.64 5.46 0.65 5.55 0.63C5.71 0.59 5.84 0.53 5.92 0.44C6 0.35 6.14 0.25 6.34 0.12C6.49 0.02 6.66 -0.01 6.85 0.02C7.04 0.05 7.18 0.11 7.27 0.2C7.32 0.26 7.37 0.31 7.42 0.35C7.47 0.39 7.53 0.43 7.59 0.47C7.65 0.51 7.71 0.56 7.78 0.59ZM9.77 4.1C9.91 4.29 10.08 4.5 10.3 4.72C10.47 4.92 10.69 5.14 10.95 5.39C11.2 5.65 11.5 5.91 11.84 6.19C12.12 6.44 12.41 6.73 12.71 7.06C13.01 7.4 13.27 7.79 13.49 8.23C13.72 8.68 13.87 9.19 13.96 9.77C14.05 10.35 14.03 10.99 13.92 11.71C13.81 12.29 13.6 12.85 13.29 13.37C12.98 13.89 12.57 14.34 12.05 14.73C11.54 15.12 10.92 15.42 10.22 15.65C9.51 15.88 8.7 15.99 7.8 15.99C6.87 15.99 6.05 15.86 5.34 15.6C4.62 15.33 4.02 14.99 3.52 14.57C3.02 14.15 2.63 13.68 2.33 13.16C2.04 12.64 1.85 12.12 1.76 11.6C1.65 11.03 1.63 10.48 1.71 9.95C1.79 9.43 1.92 8.93 2.12 8.47C2.32 8.01 2.57 7.58 2.87 7.19C3.17 6.81 3.5 6.46 3.85 6.16C4.15 5.89 4.43 5.63 4.67 5.39C4.92 5.15 5.12 4.93 5.29 4.74C5.49 4.51 5.66 4.3 5.81 4.1L9.77 4.1ZM7.91 9.5L7.06 8.65C6.94 8.54 6.86 8.45 6.82 8.39C6.72 8.31 6.6 8.24 6.45 8.19C6.29 8.13 6.17 8.17 6.06 8.28C5.97 8.41 5.94 8.54 5.99 8.66C6.04 8.79 6.09 8.88 6.15 8.95L6.41 9.2C6.54 9.34 6.68 9.49 6.83 9.65C7.01 9.84 7.2 10.04 7.41 10.25L7.4 10.62L6.2 10.62C6.09 10.62 6 10.66 5.93 10.74C5.85 10.83 5.81 10.91 5.81 11.01C5.81 11.1 5.85 11.18 5.92 11.25C5.99 11.32 6.08 11.36 6.2 11.36L7.4 11.36L7.4 11.97L6.2 11.97C6.1 11.97 6 12 5.93 12.07C5.85 12.13 5.81 12.22 5.81 12.32C5.8 12.42 5.83 12.5 5.91 12.56C5.99 12.63 6.08 12.66 6.2 12.66L7.4 12.66L7.4 13.01C7.41 13.17 7.46 13.29 7.55 13.35C7.65 13.42 7.76 13.45 7.91 13.45C8.05 13.46 8.16 13.42 8.25 13.32C8.34 13.22 8.38 13.11 8.38 13.01L8.38 12.66L9.61 12.66C9.73 12.66 9.82 12.63 9.9 12.58C9.98 12.53 10.01 12.44 10 12.32C10 12.08 9.83 11.95 9.5 11.95L8.38 11.95L8.4 11.36L9.54 11.34C9.7 11.35 9.82 11.32 9.89 11.24C9.96 11.17 10 11.08 10 10.97C10 10.88 9.96 10.79 9.88 10.72C9.81 10.64 9.69 10.6 9.52 10.6L8.38 10.6L8.38 10.27C8.58 10.08 8.76 9.9 8.92 9.72C9.07 9.58 9.21 9.44 9.35 9.29C9.49 9.15 9.59 9.05 9.66 8.99C9.93 8.75 9.99 8.55 9.84 8.37C9.76 8.27 9.65 8.21 9.52 8.21C9.39 8.21 9.28 8.26 9.17 8.35C9.11 8.4 9.01 8.49 8.87 8.61C8.73 8.73 8.59 8.86 8.45 8.99C8.29 9.14 8.1 9.31 7.91 9.5Z" fill="#000000" fill-opacity="0.400000" fill-rule="nonzero"/>
	</g>
</svg>
