<svg width="1024.000000" height="1024.000000" viewBox="0 0 1024 1024" fill="none" xmlns="http://www.w3.org/2000/svg" xmlns:xlink="http://www.w3.org/1999/xlink">
	<desc>
		Created with Pixso.
	</desc>
	<defs>
		<clipPath id="clip31_10569">
			<rect id="文字" width="694.000000" height="612.000000" transform="translate(165.000000 206.000000)" fill="white" fill-opacity="0"/>
		</clipPath>
		<clipPath id="clip31_10570">
			<rect id="dot_video_fill" width="694.000000" height="612.000000" transform="translate(165.000000 206.000000)" fill="white" fill-opacity="0"/>
		</clipPath>
		<linearGradient x1="545.814575" y1="1024.000000" x2="545.814575" y2="0.000000" id="paint_linear_31_10560_0" gradientUnits="userSpaceOnUse">
			<stop stop-color="#E0681C"/>
			<stop offset="1.000000" stop-color="#F8B556"/>
		</linearGradient>
	</defs>
	<rect id="logo" width="1024.000000" height="1024.000000" fill="#FFFFFF" fill-opacity="0"/>
	<rect id="矩形" rx="241.000000" width="1024.000000" height="1024.000000" fill="url(#paint_linear_31_10560_0)" fill-opacity="1.000000"/>
	<rect id="矩形" rx="241.000000" width="1024.000000" height="1024.000000" fill="#FFC723" fill-opacity="0"/>
	<rect id="矩形" x="0.500000" y="0.500000" rx="241.000000" width="1023.000000" height="1023.000000" stroke="#000000" stroke-opacity="0" stroke-width="1.000000" stroke-linejoin="round"/>
	<g clip-path="url(#clip31_10570)">
		<g clip-path="url(#clip31_10569)">
			<path id="path" d="M690.22 283.94C654.24 302.9 613.27 324.69 585.94 348.17C567.27 364.21 554.97 377.14 554.97 398.26C554.97 418.11 567.23 431.41 585.84 447.5C613.18 471.14 654.22 493.58 690.22 512.58C718.07 527.28 747.85 519.48 750.56 488.67C750.56 488.67 755.3 442.22 755.3 398.26C755.3 354.29 750.56 307.84 750.56 307.84C747.85 276.85 718.11 269.23 690.22 283.94Z" fill="#FFB75E" fill-opacity="1.000000" fill-rule="nonzero"/>
			<path id="path" d="M465.62 206C432.93 206 401 208.98 370.42 212.4C322.55 217.91 284.82 255.74 279.45 303.62C276.18 334.07 273.39 365.76 273.39 398.23C273.39 430.71 276.18 462.4 279.45 492.85C284.82 540.73 322.55 578.56 370.42 584.07C401 587.49 432.93 590.47 465.62 590.47C498.32 590.47 530.25 587.49 560.83 584.07C608.7 578.56 646.42 540.73 651.8 492.85C655.07 462.4 657.86 430.71 657.86 398.23C657.86 365.76 655.07 334.07 651.8 303.62C646.42 255.74 608.7 217.91 560.83 212.4C530.25 208.98 498.32 206 465.62 206Z" fill="#FFFFFF" fill-opacity="1.000000" fill-rule="nonzero"/>
			<path id="path" d="M456.25 469.95C478.83 458.05 504.55 444.37 521.69 429.64C533.41 419.58 541.13 411.46 541.13 398.21C541.13 385.74 533.44 377.4 521.75 367.3C504.59 352.47 478.84 338.38 456.25 326.46C438.77 317.23 420.79 321.97 418.37 343.93C418.37 343.93 415.96 353.97 415.96 398.21C415.96 442.46 418.37 452.49 418.37 452.49C420.79 472.3 438.74 479.18 456.25 469.95Z" fill="#FEA02C" fill-opacity="1.000000" fill-rule="nonzero"/>
			<path id="LIVE" d="M305.51 654L273 654L273 818L380.17 818L380.17 788.89L305.51 788.89L305.51 654ZM490.91 654L534.86 772.54L577.01 654L611.76 654L547.89 818L520.3 818L453.96 654L490.91 654ZM663.09 748.8L729.71 748.8L729.71 720.79L663.09 720.79L663.09 682.22L737.53 682.22L737.53 654L630.58 654L630.58 818L740 818L740 789.55L663.09 789.55L663.09 748.8ZM403.03 818L435.54 818L435.54 729L403.03 729L403.03 818Z" fill="#FFFFFF" fill-opacity="1.000000" fill-rule="evenodd"/>
			<circle id="椭圆 10" cx="413.000000" cy="680.000000" r="30.000000" fill="#F8A955" fill-opacity="1.000000"/>
			<rect id="矩形 3450" x="394.000000" y="675.000000" rx="4.000000" width="8.000000" height="20.000000" fill="#FFFFFF" fill-opacity="1.000000"/>
			<rect id="矩形 3452" x="426.000000" y="675.000000" rx="4.000000" width="8.000000" height="20.000000" fill="#FFFFFF" fill-opacity="1.000000"/>
			<rect id="矩形 3451" x="410.000000" y="663.000000" rx="4.000000" width="8.000000" height="32.000000" fill="#FFFFFF" fill-opacity="1.000000"/>
		</g>
	</g>
</svg>
