<svg width="24.000000" height="22.995346" viewBox="0 0 24 22.9953" fill="none" xmlns="http://www.w3.org/2000/svg" xmlns:xlink="http://www.w3.org/1999/xlink">
	<desc>
			Created with Pixso.
	</desc>
	<defs/>
	<path d="M18.58 22.96C18.89 22.96 19.15 22.88 19.36 22.72C19.73 22.45 19.92 22.1 19.92 21.65C19.92 21.5 19.91 21.39 19.9 21.33L18.42 15.38C18.39 15.24 18.37 15.12 18.37 15.03C18.37 14.6 18.54 14.26 18.88 14.02L23.52 10.13C23.84 9.84 24 9.5 24 9.1C24 8.96 23.97 8.83 23.92 8.7C23.83 8.46 23.68 8.25 23.47 8.08C23.27 7.91 23.04 7.81 22.77 7.8L16.74 7.34C16.47 7.33 16.23 7.24 16.02 7.09C15.82 6.95 15.68 6.76 15.59 6.51L13.22 0.83C13.12 0.58 12.96 0.38 12.73 0.23C12.51 0.07 12.26 0 12 0C11.73 0 11.48 0.07 11.26 0.23C11.04 0.38 10.87 0.58 10.77 0.83L8.4 6.51C8.31 6.76 8.17 6.95 7.97 7.09C7.76 7.24 7.52 7.33 7.25 7.34L1.22 7.8C0.95 7.81 0.72 7.91 0.52 8.08C0.31 8.25 0.16 8.46 0.07 8.7C0.02 8.83 0 8.96 0 9.1C0 9.5 0.16 9.84 0.48 10.13L5.11 14.02C5.45 14.3 5.62 14.64 5.62 15.05C5.62 15.13 5.6 15.24 5.57 15.38L4.09 21.33C4.08 21.39 4.07 21.5 4.07 21.65C4.07 22.13 4.26 22.48 4.63 22.72C4.86 22.9 5.11 22.99 5.38 22.99C5.64 22.99 5.89 22.91 6.1 22.74L11.25 19.42C11.46 19.28 11.71 19.21 12 19.21C12.28 19.21 12.52 19.28 12.72 19.42L17.87 22.74C18.06 22.89 18.3 22.96 18.58 22.96ZM7.38 9C7.96 8.98 8.48 8.8 8.94 8.47C9.41 8.13 9.75 7.69 9.96 7.15L12 2.25L14.03 7.15C14.26 7.69 14.61 8.13 15.08 8.47C15.54 8.8 16.05 8.98 16.61 9L21.8 9.41L17.81 12.72C17.47 12.99 17.2 13.33 17.02 13.76C16.83 14.18 16.74 14.61 16.74 15.05C16.74 15.28 16.77 15.53 16.82 15.78L18.05 20.87L13.66 18.03C13.16 17.71 12.61 17.54 12 17.54C11.42 17.54 10.88 17.71 10.37 18.03L5.94 20.87L7.2 15.78C7.25 15.53 7.28 15.3 7.28 15.09C7.28 14.62 7.18 14.18 6.98 13.77C6.79 13.36 6.52 13.01 6.18 12.72L2.19 9.41L7.38 9Z" fill="#191919" fill-opacity="1.000000" fill-rule="nonzero"/>
</svg>
