<svg width="24.000000" height="24.000000" viewBox="0 0 24 24" fill="none" xmlns="http://www.w3.org/2000/svg" xmlns:xlink="http://www.w3.org/1999/xlink">
	<desc>
			Created with Pixso.
	</desc>
	<defs/>
	<path d="M12 0C9.82 0 7.82 0.53 5.98 1.61C4.14 2.69 2.69 4.14 1.61 5.98C0.53 7.82 0 9.82 0 12C0 14.17 0.53 16.17 1.61 18.01C2.69 19.85 4.14 21.3 5.98 22.38C7.82 23.46 9.82 24 12 24C14.17 24 16.17 23.46 18.01 22.38C19.85 21.3 21.3 19.85 22.38 18.01C23.46 16.17 24 14.17 24 12C24 11.75 23.91 11.55 23.74 11.38C23.57 11.21 23.37 11.12 23.12 11.12C22.88 11.12 22.67 11.2 22.51 11.36C22.34 11.52 22.25 11.73 22.25 12C22.25 13.85 21.79 15.56 20.88 17.14C19.96 18.71 18.71 19.96 17.14 20.88C15.56 21.79 13.85 22.25 12 22.25C10.14 22.25 8.43 21.79 6.85 20.88C5.28 19.96 4.03 18.71 3.11 17.14C2.2 15.56 1.74 13.85 1.74 12C1.74 10.14 2.2 8.43 3.11 6.85C4.03 5.28 5.28 4.03 6.85 3.11C8.43 2.2 10.14 1.74 12 1.74C12.24 1.74 12.44 1.65 12.61 1.48C12.78 1.32 12.87 1.11 12.87 0.87C12.87 0.62 12.78 0.42 12.61 0.25C12.44 0.08 12.24 0 12 0ZM18.12 0.56C18.01 0.52 17.92 0.5 17.87 0.5C17.7 0.5 17.53 0.55 17.36 0.66C17.19 0.76 17.06 0.88 16.97 1.03C16.93 1.18 16.91 1.3 16.91 1.37C16.91 1.52 16.96 1.67 17.04 1.82C17.12 1.97 17.23 2.08 17.36 2.16L19.89 3.56C17.38 4.05 15.41 5.23 13.99 7.11C12.57 8.98 11.72 11.5 11.46 14.66C11.42 14.91 11.48 15.12 11.64 15.31C11.8 15.5 12 15.6 12.25 15.62C12.49 15.64 12.7 15.57 12.88 15.42C13.06 15.27 13.17 15.08 13.2 14.83C13.45 11.84 14.23 9.54 15.56 7.93C16.89 6.33 18.79 5.4 21.24 5.14L19.44 8.43C19.4 8.54 19.39 8.63 19.39 8.71C19.39 9.04 19.55 9.32 19.86 9.52C20.05 9.6 20.18 9.63 20.26 9.63C20.41 9.63 20.55 9.59 20.69 9.51C20.83 9.42 20.95 9.31 21.04 9.16L23.55 4.58C23.64 4.43 23.69 4.26 23.69 4.07C23.69 3.79 23.53 3.57 23.21 3.42L18.12 0.56Z" fill="#191919" fill-opacity="1.000000" fill-rule="nonzero"/>
</svg>
