<svg xmlns="http://www.w3.org/2000/svg" width="144" height="144" version="1.1" viewBox="0 0 144 144">
  <path fill="#000" fill-rule="evenodd" stroke="none" stroke-width="1" d="M39.1666667,0 C41.9280904,0 44.1666667,2.23857625 44.1666667,5 C44.1666667,7.1770435 42.7753051,9.02911711 40.8333009,9.71550196 L40.8341246,15.0962769 C44.6786512,15.5458892 47.6838007,17.5219106 48.2406042,20.0004517 L54.1666667,20 C65.2123617,20 74.1666667,28.954305 74.1666667,40 L75.4166667,40 C77.9479718,40 80,42.0520282 80,44.5833333 L80,45.4166667 C80,47.9479718 77.9479718,50 75.4166667,50 L74.1666667,50 C74.1666667,61.045695 65.2123617,70 54.1666667,70 L25.8333333,70 C14.7876383,70 5.83333333,61.045695 5.83333333,50 L4.58333333,50 C2.05202823,50 3.09995469e-16,47.9479718 0,45.4166667 L0,44.5833333 C-3.09995469e-16,42.0520282 2.05202823,40 4.58333333,40 L5.83333333,40 C5.83333333,28.954305 14.7876383,20 25.8333333,20 L30.0927292,20.0004517 C30.6495808,17.5216962 33.655202,15.5455474 37.5002064,15.0961602 L37.5000744,9.7155168 C35.5580483,9.0291438 34.1666667,7.17705919 34.1666667,5 C34.1666667,2.23857625 36.4052429,0 39.1666667,0 Z M57.5,34.1666667 L22.5,34.1666667 C17.0707601,34.1666667 12.6520683,38.4933375 12.5038418,43.8867618 L12.5,44.1666667 L12.5,45.8333333 C12.5,51.2625732 16.8266708,55.6812651 22.2200952,55.8294915 L22.5,55.8333333 L57.5,55.8333333 C62.9292399,55.8333333 67.3479317,51.5066625 67.4961582,46.1132382 L67.5,45.8333333 L67.5,44.1666667 C67.5,38.6438192 63.0228475,34.1666667 57.5,34.1666667 Z M57.5,39.1666667 C60.1887547,39.1666667 62.3818181,41.2889734 62.4953805,43.949777 L62.5,44.1666667 L62.5,45.8333333 C62.5,48.522088 60.3776933,50.7151514 57.7168896,50.8287138 L57.5,50.8333333 L22.5,50.8333333 C19.8112453,50.8333333 17.6181819,48.7110266 17.5046195,46.050223 L17.5,45.8333333 L17.5,44.1666667 C17.5,41.477912 19.6223067,39.2848486 22.2831104,39.1712862 L22.5,39.1666667 L57.5,39.1666667 Z M29.1666667,41.6666667 C27.3257175,41.6666667 25.8333333,43.1590508 25.8333333,45 C25.8333333,46.8409492 27.3257175,48.3333333 29.1666667,48.3333333 C31.0076158,48.3333333 32.5,46.8409492 32.5,45 C32.5,43.1590508 31.0076158,41.6666667 29.1666667,41.6666667 Z M51.6666667,41.6666667 C49.8257175,41.6666667 48.3333333,43.1590508 48.3333333,45 C48.3333333,46.8409492 49.8257175,48.3333333 51.6666667,48.3333333 C53.5076158,48.3333333 55,46.8409492 55,45 C55,43.1590508 53.5076158,41.6666667 51.6666667,41.6666667 Z" transform="translate(32 32)"/>
</svg>
