<svg width="32.000000" height="32.000000" viewBox="0 0 32 32" fill="none" xmlns="http://www.w3.org/2000/svg" xmlns:xlink="http://www.w3.org/1999/xlink">
	<desc>
			Created with Pixso.
	</desc>
	<defs/>
	<rect id="矩形" width="32.000000" height="32.000000" fill="#D8D8D8" fill-opacity="0"/>
	<rect id="矩形" x="0.500000" y="0.500000" width="31.000000" height="31.000000" stroke="#979797" stroke-opacity="0" stroke-width="1.000000"/>
	<path id="形状" d="M26.9141 17.4097L26.9258 17.417L31.3359 19.9121C31.6719 20.0986 31.8813 20.4517 31.8862 20.8301L31.8862 25.8579C31.8862 26.2368 31.687 26.5859 31.354 26.7817L31.3418 26.7886L26.9321 29.2959C26.5962 29.4883 26.188 29.4907 25.8501 29.3032L25.8374 29.2959L21.4277 26.7886C21.0977 26.5962 20.8882 26.2495 20.8833 25.8711L20.8833 20.8555C20.8833 20.4766 21.083 20.127 21.416 19.9312L21.4277 19.9243L25.8438 17.417C26.1733 17.2246 26.5879 17.2222 26.9141 17.4097ZM17.2202 5.75L17.4814 5.75049L17.7402 5.75146L17.9966 5.75244L18.2505 5.75391L18.5015 5.75537L18.7505 5.75732L18.9146 5.75879L19.1592 5.76123L19.3208 5.76318L19.4814 5.76514L19.7197 5.76807L19.9561 5.77148L20.1895 5.77539L20.3438 5.77783L20.4966 5.78076L20.6489 5.78369L20.7998 5.78662L20.9497 5.79004L21.1719 5.79492L21.3188 5.79834L21.5376 5.8042L21.7534 5.81006L21.896 5.81396L22.1074 5.82031L22.2471 5.82471L22.3857 5.8291L22.5229 5.83398L22.7271 5.84131L22.9287 5.84863L23.062 5.854L23.1938 5.85938L23.3242 5.86475L23.4541 5.87012L23.6465 5.87891L23.7729 5.88477L23.8989 5.89111L24.0234 5.89697L24.208 5.90674L24.3296 5.91309L24.4507 5.91992C27.2119 6.07471 29.4429 8.20801 29.6953 10.936L29.7378 11.4023L29.7812 11.8813L29.814 12.2578L29.8359 12.5088L29.8589 12.7832L29.875 12.98L29.8975 13.2607L29.9116 13.439L29.9307 13.6919L29.9443 13.8765L29.9546 14.0269L29.9658 14.1929L29.9688 14.2383C29.9702 14.2632 29.9712 14.2881 29.9712 14.313C29.9712 14.9229 29.4917 15.436 28.8682 15.4751C28.2197 15.5156 27.6606 15.0278 27.6196 14.3853L27.6108 14.251L27.5991 14.0845L27.5884 13.9336L27.5728 13.7202L27.5596 13.5518L27.5381 13.2842L27.5176 13.0317L27.501 12.834L27.4746 12.5225L27.439 12.1187L27.4009 11.6895L27.3589 11.2344L27.3511 11.1489C27.2051 9.5708 25.9146 8.33691 24.3174 8.24756L24.1987 8.24072L24.0786 8.23438L23.957 8.22803L23.835 8.22168L23.7114 8.21582L23.5864 8.20996L23.4609 8.2041L23.3335 8.19873L23.2056 8.19287L23.0112 8.18506L22.814 8.17725L22.6143 8.16992L22.48 8.16504L22.2759 8.1582L22.1382 8.15381L21.9302 8.14746L21.7896 8.14307L21.5771 8.13721L21.3618 8.13184L21.2168 8.12793L20.9976 8.12305L20.7754 8.11816L20.5503 8.11377L20.3228 8.10938L20.0933 8.10547L19.8604 8.10156L19.6255 8.09863L19.4673 8.09619L19.2275 8.09375L19.0664 8.0918L18.9043 8.09033L18.7407 8.08887L18.5762 8.0874L18.3271 8.08545L18.0757 8.08398L17.8213 8.08301L17.5649 8.08203L17.3921 8.08203L17.1309 8.08154L16.8657 8.08154L16.6895 8.08154L16.4272 8.08203L16.1675 8.08252L15.9961 8.0835L15.7407 8.08447L15.4878 8.08643L15.3208 8.0874L15.1553 8.08887L14.9087 8.09131L14.6646 8.09375L14.4233 8.09668L14.1846 8.09961L13.9487 8.10352L13.7153 8.10693L13.5615 8.10986L13.3325 8.11426L13.106 8.11865L12.9565 8.12207L12.7349 8.12695L12.5884 8.13086L12.4429 8.13428L12.2988 8.13818L12.1562 8.14209L12.0142 8.14648L11.8037 8.15283L11.5962 8.15967L11.459 8.16406L11.2554 8.17139L11.1216 8.17627L10.9883 8.18164L10.8569 8.18701L10.7261 8.19238L10.5967 8.19775L10.4683 8.20361L10.3413 8.20898L10.2153 8.21533L10.0908 8.22119L9.96729 8.22754L9.84473 8.23389L9.72363 8.24023L9.60352 8.24707L9.48486 8.25342C7.88086 8.34619 6.58887 9.59229 6.4541 11.1782C6.43945 11.3506 6.42529 11.5244 6.41211 11.7002L6.40137 11.8506L6.39062 12.0024L6.38525 12.0786L6.375 12.231C6.3335 12.8687 6.30127 13.5259 6.27881 14.2031L6.27393 14.3657L6.26904 14.5293L6.26465 14.6938C6.2583 14.9409 6.25293 15.1904 6.24902 15.4424L6.24658 15.6108C6.24268 15.9204 6.24023 16.2339 6.24023 16.5508L6.24023 16.6377C6.24023 16.9839 6.24219 17.3262 6.24658 17.6636L6.24902 17.832C6.25195 18 6.25488 18.167 6.25879 18.333L6.2627 18.4985L6.2666 18.6631C6.30029 19.895 6.36475 21.064 6.46045 22.1694C6.59619 23.7388 7.86572 24.9771 9.45264 25.0869L9.6333 25.0991L9.75537 25.1074L9.87842 25.1152L10.0029 25.1226L10.1289 25.1299L10.2559 25.1372L10.3838 25.1445L10.4482 25.1479L10.5781 25.1548L10.7095 25.1616L10.8418 25.1685L10.9756 25.1748L11.1104 25.1807L11.2466 25.187L11.3838 25.1929L11.5225 25.1987L11.5918 25.2012L11.7324 25.207L11.874 25.2124L12.0166 25.2173L12.1606 25.2222L12.3057 25.2271L12.4521 25.2319L12.6743 25.2383L12.8237 25.2427L12.9741 25.2466L13.126 25.2505L13.2793 25.2544L13.4336 25.2578L13.6675 25.2632L13.8247 25.2661L13.9834 25.269L14.1431 25.272L14.3042 25.2749L14.4663 25.2773L14.6299 25.2793L14.7944 25.2817L15.0439 25.2847L15.2114 25.2861L15.3804 25.2881L15.5508 25.2896L15.8081 25.291L15.9814 25.292L16.2432 25.2935L16.4194 25.2939L16.686 25.2944L16.9556 25.2949C17.6055 25.2949 18.1323 25.8164 18.1323 26.4604C18.1323 27.104 17.6055 27.626 16.9556 27.626L16.7725 27.626L16.5005 27.6255L16.3208 27.625L16.1421 27.624L15.9644 27.6235L15.7007 27.6216L15.5259 27.6206L15.353 27.6191L15.1807 27.6177L15.0103 27.6157L14.7559 27.6128L14.5884 27.6104L14.4219 27.6079L14.2563 27.6055L14.0103 27.6016L13.7676 27.5967L13.6069 27.5938L13.4473 27.5903L13.2891 27.5864L13.0542 27.5811L12.8994 27.5767L12.7451 27.5728L12.5166 27.5659L12.3657 27.5615L12.1416 27.5542L11.9937 27.5493L11.8472 27.5439L11.7017 27.5386L11.5571 27.5332L11.4141 27.5273L11.272 27.5215L11.1313 27.5156L10.9922 27.5093L10.8535 27.5029L10.7852 27.4995L10.6484 27.4927L10.5132 27.4858L10.3794 27.479L10.2461 27.4717L10.1147 27.4644L9.98438 27.457L9.85498 27.4492L9.72705 27.4414L9.6001 27.4336L9.47412 27.4253L9.41211 27.4209L9.28809 27.4126C6.54492 27.2222 4.3501 25.082 4.11523 22.3687C4.10645 22.2661 4.09766 22.1636 4.08936 22.0601L4.07715 21.9053C4.05029 21.563 4.02686 21.2207 4.00635 20.8779L3.99707 20.7173C3.97559 20.3413 3.95703 19.9595 3.94189 19.5713L3.93555 19.4048C3.91992 18.9805 3.9082 18.5557 3.8999 18.1313L3.89697 17.958C3.89307 17.7271 3.89014 17.4941 3.88867 17.2588L3.88721 17.0825L3.88672 16.9048L3.88623 16.7266L3.88623 16.5483L3.88672 16.3701L3.88721 16.1924L3.88867 16.0156C3.89941 14.6055 3.94678 13.2661 4.03174 11.9976L4.04248 11.8394C4.0625 11.5498 4.08447 11.2642 4.1084 10.9824C4.3418 8.24072 6.57471 6.08594 9.34814 5.92627L9.47119 5.91943L9.5957 5.9126L9.72119 5.90576L9.84766 5.89941L9.97559 5.89258L10.1045 5.88623L10.2344 5.88037L10.3657 5.87451L10.4985 5.86865L10.6323 5.86279L10.7671 5.85742L10.9033 5.85156L11.0405 5.84668L11.2485 5.83887L11.3892 5.83398L11.5303 5.8291L11.6733 5.82471L11.8169 5.81982L12.0347 5.81348L12.2554 5.80713L12.479 5.80127L12.6294 5.79785L12.7808 5.79395L13.0103 5.78906L13.2427 5.78418L13.3989 5.78125L13.6353 5.77686L13.8745 5.77295L14.1167 5.76904L14.3613 5.76611L14.6089 5.7627L14.8589 5.76025L15.1113 5.75781L15.2812 5.75635L15.4526 5.75537L15.7114 5.75342L15.9731 5.75244L16.2378 5.75146L16.5044 5.75049L16.7744 5.75L17.2202 5.75ZM22.9634 21.4268L26.3857 19.4839L29.8062 21.4189L29.8062 25.2861L26.3848 27.2314L22.9634 25.2861L22.9634 21.4268ZM26.3984 21.9878C27.1616 21.9878 27.7808 22.6006 27.7808 23.3564C27.7808 24.1123 27.1616 24.7256 26.3984 24.7256C25.6348 24.7256 25.0161 24.1123 25.0161 23.3564C25.0161 22.6006 25.6348 21.9878 26.3984 21.9878ZM15.1187 19.1465C15.6963 19.1465 16.1646 19.6108 16.1646 20.1836C16.1646 20.7559 15.6963 21.2202 15.1187 21.2202L11.3979 21.2202C10.8203 21.2202 10.3521 20.7559 10.3521 20.1836C10.3521 19.6108 10.8203 19.1465 11.3979 19.1465L15.1187 19.1465L15.1187 19.1465ZM16.5786 15.374C17.1562 15.374 17.624 15.8384 17.624 16.4111C17.624 16.9834 17.1562 17.4478 16.5786 17.4478L12.2241 17.4478C11.6465 17.4478 11.1782 16.9834 11.1782 16.4111C11.1782 15.8384 11.6465 15.374 12.2241 15.374L16.5786 15.374ZM22.5879 15.374C23.1655 15.374 23.6333 15.8384 23.6333 16.4111C23.6333 16.9834 23.1655 17.4478 22.5879 17.4478L21.4634 17.4478C20.8857 17.4478 20.4175 16.9834 20.4175 16.4111C20.4175 15.8384 20.8857 15.374 21.4634 15.374L22.5879 15.374ZM20.4077 11.6025C20.9854 11.6025 21.4536 12.0664 21.4536 12.6392C21.4536 13.2114 20.9854 13.6758 20.4077 13.6758L10.7646 13.6758C10.187 13.6758 9.71875 13.2119 9.71875 12.6392C9.71875 12.0664 10.187 11.6025 10.7646 11.6025L20.4077 11.6025Z" clip-rule="evenodd" fill="#FFFFFF" fill-opacity="0.898039" fill-rule="evenodd"/>
</svg>
