<svg width="24.000000" height="24.000000" viewBox="0 0 24 24" fill="none" xmlns="http://www.w3.org/2000/svg" xmlns:xlink="http://www.w3.org/1999/xlink">
	<desc>
			Created with Pixso.
	</desc>
	<defs>
		<clipPath id="clip9_10526">
			<rect id="svg" width="24.000000" height="24.000000" fill="white" fill-opacity="0"/>
		</clipPath>
	</defs>
	<g clip-path="url(#clip9_10526)">
		<g opacity="0.000000">
			<rect id="rect" width="24.000000" height="24.000000" fill="#000000" fill-opacity="1.000000"/>
		</g>
		<path id="减去顶层" d="M2.5 4.25C2.15283 4.25 1.83154 4.31177 1.53613 4.43555C1.2417 4.55908 0.973145 4.74365 0.72998 4.98999C0.473145 5.25415 0.283691 5.54419 0.162598 5.86035C0.0541992 6.14282 0 6.44604 0 6.77002L0 17.26C0 17.6006 0.0600586 17.9167 0.179688 18.208C0.30127 18.5042 0.484863 18.7747 0.72998 19.02C0.967285 19.2573 1.229 19.4365 1.51514 19.5581C1.81641 19.686 2.14453 19.75 2.5 19.75L15 19.75C15.6865 19.75 16.2734 19.5066 16.7598 19.02C17.0142 18.7693 17.2031 18.4917 17.3262 18.188C17.4419 17.9021 17.5 17.5928 17.5 17.26L17.5 6.77002C17.5 6.45361 17.4478 6.15723 17.3428 5.88037C17.2202 5.5564 17.0259 5.25977 16.7598 4.98999C16.2734 4.49658 15.6865 4.25 15 4.25L2.5 4.25ZM18.8198 8.30005L18.8198 15.7L21.8198 17.23C21.9082 17.2783 21.9995 17.3164 22.0938 17.3442C22.2202 17.3813 22.3525 17.3999 22.4902 17.3999C22.6636 17.3999 22.8276 17.373 22.9824 17.3191C23.1846 17.2485 23.3701 17.1323 23.54 16.97C23.8467 16.6833 24 16.3301 24 15.9099L24 8.09009C24 7.87964 23.9614 7.68604 23.8848 7.50928C23.8081 7.33276 23.6929 7.1731 23.54 7.03003C23.3701 6.86768 23.1846 6.75146 22.9824 6.68091C22.8276 6.62695 22.6636 6.6001 22.4902 6.6001C22.3525 6.6001 22.2202 6.61865 22.0938 6.65576C21.9995 6.68359 21.9082 6.72168 21.8198 6.77002L18.8198 8.30005ZM7.84326 9.53906C7.87305 9.55029 7.90186 9.56396 7.93018 9.58008L11.2202 11.47C11.4268 11.5701 11.5303 11.7466 11.5303 12C11.5303 12.1443 11.4966 12.2656 11.4297 12.3645C11.3789 12.4395 11.3091 12.5012 11.2202 12.55L7.93018 14.4199C7.90186 14.436 7.87305 14.4497 7.84326 14.4609C7.77344 14.4871 7.69922 14.5 7.62012 14.5C7.45996 14.5 7.31689 14.4399 7.18994 14.3201C7.06348 14.2 7 14.05 7 13.8701L7 10.1299C7 10.031 7.01904 9.94116 7.05762 9.86035C7.08887 9.79419 7.1333 9.73413 7.18994 9.67993C7.31689 9.56006 7.45996 9.5 7.62012 9.5C7.69922 9.5 7.77344 9.51294 7.84326 9.53906Z" clip-rule="evenodd" fill="#000000" fill-opacity="0.400000" fill-rule="evenodd"/>
	</g>
</svg>
