<svg width="52.000000" height="16.000000" viewBox="0 0 52 16" fill="none" xmlns="http://www.w3.org/2000/svg" xmlns:xlink="http://www.w3.org/1999/xlink">
	<desc>
			Created with Pixso.
	</desc>
	<defs/>
	<path id="属性 1=直播中" d="M6 0L50 0C51.1 0 52 0.89 52 2L52 10C52 13.31 49.31 16 46 16L2 16C0.89 16 0 15.1 0 14L0 6C0 2.68 2.68 0 6 0Z" fill="#E84026" fill-opacity="1.000000" fill-rule="evenodd"/>
	<path id="直播中" d="M22.65 3.55L22.65 4.4L18.85 4.4L18.85 5.08L22.65 5.08L22.65 5.89L19.9 5.89L19.9 11.44L18.51 11.44L18.51 12.14L27.52 12.14L27.52 11.44L26.12 11.44L26.12 5.89L23.39 5.89L23.39 5.08L27.17 5.08L27.17 4.4L23.39 4.4L23.39 3.55L22.65 3.55ZM42.6 3.55L42.6 5.51L39.13 5.51L39.13 10.11L39.9 10.11L39.9 9.45L42.6 9.45L42.6 12.58L43.39 12.58L43.39 9.45L46.09 9.45L46.09 10.08L46.86 10.08L46.86 5.51L43.39 5.51L43.39 3.55L42.6 3.55ZM29.04 11.64L28.47 11.64L28.59 12.33L29.25 12.33Q29.47 12.33 29.76 12.3Q29.78 12.29 29.8 12.28Q29.97 12.24 30.1 12.1Q30.18 12.02 30.22 11.87Q30.27 11.64 30.27 11.36L30.27 8.46L31.27 8.07L31.2 7.72L31.15 7.33L30.27 7.69L30.27 6.08L31.15 6.08L31.15 5.34L30.27 5.34L30.27 3.58L29.59 3.58L29.59 5.34L28.54 5.34L28.54 6.08L29.59 6.08L29.59 7.96Q28.93 8.2 28.27 8.43L28.47 9.18L29.59 8.7L29.59 11.13Q29.59 11.28 29.56 11.39Q29.56 11.43 29.54 11.45Q29.52 11.49 29.47 11.51Q29.47 11.54 29.45 11.55Q29.41 11.59 29.33 11.59Q29.16 11.64 29.04 11.64ZM31.7 7.88Q31.22 8.17 30.7 8.39L31.01 9.01Q31.27 8.89 31.63 8.7L31.63 12.58L32.29 12.58L32.29 12.07L36.01 12.07L36.01 12.58L36.66 12.58L36.66 8.58Q37.02 8.78 37.37 8.89L37.72 8.27Q37.02 8.04 36.43 7.69Q35.81 7.3 35.29 6.79L37.48 6.79L37.48 6.16L35.77 6.16Q36.2 5.57 36.63 5L36.04 4.68Q35.66 5.26 35.18 5.85L35.72 6.16L34.47 6.16L34.47 4.68Q35.77 4.6 37.06 4.4L36.95 3.75Q35.61 3.94 34.33 4.01Q32.77 4.18 31.15 4.21L31.23 4.88Q31.71 4.83 32.22 4.83L31.75 5.11Q32.17 5.62 32.57 6.16L31.15 6.16L31.15 6.79L33.03 6.79Q32.52 7.33 31.95 7.72Q31.83 7.8 31.7 7.88ZM32.57 6.16L33.82 6.16L33.82 4.71Q33.08 4.8 32.29 4.8Q32.72 5.31 33.11 5.85L32.57 6.16ZM39.9 6.25L42.6 6.25L42.6 8.7L39.9 8.7L39.9 6.25ZM46.09 6.25L46.09 8.7L43.39 8.7L43.39 6.25L46.09 6.25ZM20.66 6.51L25.38 6.51L25.38 7.3L20.66 7.3L20.66 6.51ZM33.82 8.24L34.47 8.24L34.47 6.87Q34.84 7.3 35.22 7.64Q35.77 8.07 36.35 8.43L32.09 8.43Q32.73 8.04 33.25 7.52Q33.55 7.22 33.82 6.87L33.82 8.24ZM20.66 7.93L25.38 7.93L25.38 8.66L20.66 8.66L20.66 7.93ZM32.29 9.01L33.82 9.01L33.82 9.95L32.29 9.95L32.29 9.01ZM36.01 9.01L36.01 9.95L34.47 9.95L34.47 9.01L36.01 9.01ZM20.66 9.29L25.38 9.29L25.38 10.08L20.66 10.08L20.66 9.29ZM32.29 10.51L33.82 10.51L33.82 11.44L32.29 11.44L32.29 10.51ZM34.47 10.51L36.01 10.51L36.01 11.44L34.47 11.44L34.47 10.51ZM20.66 10.65L25.38 10.65L25.38 11.44L20.66 11.44L20.66 10.65Z" fill="#FFFFFF" fill-opacity="1.000000" fill-rule="evenodd"/>
	<path id="waveform_1" d="M10.19 13.16Q10.11 13.19 10.03 13.19Q9.95 13.19 9.88 13.16Q9.82 13.13 9.77 13.08Q9.71 13.03 9.69 12.97Q9.66 12.9 9.66 12.82L9.66 4.05Q9.66 3.97 9.69 3.9Q9.72 3.84 9.77 3.79Q9.82 3.74 9.88 3.71Q9.95 3.68 10.03 3.68Q10.11 3.68 10.19 3.72Q10.25 3.74 10.3 3.79Q10.36 3.85 10.39 3.91Q10.41 3.98 10.41 4.05L10.41 12.82Q10.41 12.89 10.39 12.95Q10.36 13.02 10.3 13.08Q10.25 13.13 10.19 13.16ZM7.76 12.01Q7.69 12.05 7.61 12.05Q7.52 12.05 7.45 12.01Q7.39 11.99 7.34 11.94Q7.3 11.89 7.27 11.83Q7.24 11.76 7.24 11.67L7.24 5.9Q7.24 5.83 7.26 5.76Q7.29 5.69 7.34 5.63Q7.4 5.57 7.47 5.54Q7.53 5.52 7.61 5.52Q7.68 5.52 7.74 5.54Q7.81 5.57 7.87 5.63Q7.93 5.69 7.96 5.76Q7.98 5.83 7.98 5.9L7.98 11.67Q7.98 11.76 7.95 11.83Q7.92 11.89 7.87 11.94Q7.82 11.99 7.76 12.01ZM12.56 10.83Q12.49 10.86 12.41 10.86Q12.33 10.86 12.27 10.83Q12.2 10.8 12.14 10.75Q12.09 10.68 12.06 10.61Q12.03 10.55 12.03 10.48L12.03 6.58Q12.03 6.49 12.07 6.41Q12.1 6.36 12.14 6.31Q12.19 6.26 12.26 6.23Q12.33 6.2 12.41 6.2Q12.5 6.2 12.57 6.24Q12.62 6.27 12.67 6.31Q12.72 6.36 12.74 6.41Q12.78 6.49 12.78 6.58L12.78 10.48Q12.78 10.55 12.75 10.61Q12.73 10.68 12.67 10.75Q12.62 10.8 12.56 10.83ZM14.92 9.91Q14.85 9.94 14.77 9.94Q14.69 9.94 14.62 9.91Q14.56 9.88 14.51 9.83Q14.45 9.78 14.43 9.71Q14.4 9.65 14.4 9.56L14.4 7.77Q14.4 7.7 14.42 7.64Q14.45 7.56 14.51 7.5Q14.56 7.45 14.63 7.42Q14.7 7.39 14.77 7.39Q14.84 7.39 14.91 7.42Q14.98 7.45 15.03 7.5Q15.09 7.56 15.12 7.64Q15.14 7.7 15.14 7.77L15.14 9.56Q15.14 9.65 15.11 9.71Q15.09 9.78 15.03 9.83Q14.98 9.88 14.92 9.91ZM5.37 9.91Q5.3 9.94 5.22 9.94Q5.15 9.94 5.08 9.91Q5.01 9.89 4.95 9.83Q4.89 9.77 4.86 9.7Q4.84 9.64 4.84 9.56L4.84 8Q4.84 7.93 4.86 7.87Q4.89 7.8 4.95 7.74Q5.01 7.68 5.08 7.66Q5.15 7.63 5.22 7.63Q5.3 7.63 5.37 7.66Q5.43 7.69 5.48 7.74Q5.54 7.79 5.56 7.85Q5.59 7.92 5.59 8L5.59 9.56Q5.59 9.65 5.56 9.71Q5.54 9.78 5.48 9.83Q5.43 9.88 5.37 9.91Z" fill="#FFFFFF" fill-opacity="1.000000" fill-rule="evenodd"/>
</svg>
