<svg width="24.000000" height="24.000000" viewBox="0 0 24 24" fill="none" xmlns="http://www.w3.org/2000/svg" xmlns:xlink="http://www.w3.org/1999/xlink">
	<desc>
			Created with Pixso.
	</desc>
	<defs/>
	<g opacity="0.000000">
		<rect width="24.000000" height="24.000000" fill="#000000" fill-opacity="1.000000"/>
	</g>
	<path d="M1.78 11.35C1.78 11.66 1.79 11.97 1.83 12.27C1.94 13.2 2.23 14.1 2.68 14.98C3.28 16.14 4.1 17.16 5.16 18.02C5.27 18.17 5.38 18.49 5.3 18.79C5.2 19.18 5.04 19.68 4.8 20.29L4.66 20.64C4.6 20.76 4.58 20.9 4.6 21.05C4.6 21.19 4.65 21.31 4.75 21.41C4.86 21.55 4.96 21.63 5.06 21.66C5.16 21.68 5.29 21.68 5.47 21.65C6.14 21.5 6.7 21.34 7.16 21.17C7.62 20.99 8.09 20.77 8.59 20.52C8.73 20.44 8.96 20.31 9.12 20.24C9.28 20.17 9.41 20.13 9.53 20.11C10.31 20.27 11.13 20.35 12 20.35C13.27 20.35 14.48 20.15 15.63 19.76C16.13 19.59 16.62 19.38 17.11 19.14C18.24 18.55 19.21 17.81 20.02 16.93C20.32 16.59 20.6 16.23 20.86 15.86C21.36 15.11 21.72 14.33 21.95 13.51C22.15 12.82 22.25 12.09 22.25 11.35C22.25 10.61 22.15 9.91 21.97 9.22C21.74 8.39 21.37 7.59 20.86 6.83C20.59 6.42 20.29 6.05 19.97 5.7C19.17 4.83 18.22 4.11 17.11 3.54C16.62 3.29 16.13 3.08 15.63 2.91C14.48 2.52 13.27 2.33 12 2.33C10.72 2.33 9.51 2.52 8.37 2.91C7.86 3.08 7.37 3.29 6.89 3.54C5.75 4.12 4.79 4.85 4 5.74C3.69 6.08 3.41 6.44 3.16 6.83C2.65 7.58 2.29 8.37 2.06 9.2C1.87 9.89 1.78 10.6 1.78 11.35ZM3.56 9.62C3.75 8.9 4.06 8.22 4.5 7.58C4.64 7.35 4.8 7.14 4.97 6.94C5.68 6.09 6.58 5.38 7.66 4.84C8.02 4.65 8.4 4.48 8.78 4.35C9.79 3.99 10.86 3.82 12 3.82C13.15 3.82 14.24 4 15.26 4.37C15.63 4.5 15.98 4.66 16.33 4.84C17.65 5.52 18.7 6.43 19.48 7.58C20.25 8.73 20.64 9.99 20.64 11.35C20.64 12.71 20.25 13.96 19.48 15.12C18.7 16.27 17.65 17.18 16.33 17.86C15.01 18.52 13.56 18.86 12 18.86C11.65 18.86 11.3 18.84 10.95 18.81C10.58 18.77 10.22 18.72 9.86 18.65C9.72 18.61 9.58 18.6 9.45 18.6C9.32 18.61 9.19 18.63 9.07 18.68C8.81 18.77 8.49 18.92 8.09 19.13L7.49 19.42C7.2 19.54 6.9 19.67 6.6 19.79C6.78 19.19 6.86 18.58 6.82 18.08C6.76 17.58 6.52 17.17 6.1 16.85C5.22 16.14 4.54 15.31 4.06 14.35C3.74 13.72 3.53 13.08 3.42 12.43C3.36 12.07 3.34 11.71 3.34 11.35C3.34 10.75 3.41 10.17 3.56 9.62ZM5.99 10.67C6.25 10.42 6.55 10.3 6.9 10.3C7.09 10.3 7.27 10.33 7.43 10.4C7.58 10.46 7.72 10.55 7.84 10.68C7.98 10.81 8.08 10.95 8.14 11.11C8.2 11.26 8.22 11.42 8.22 11.59C8.22 11.75 8.2 11.91 8.14 12.06C8.08 12.22 7.98 12.36 7.84 12.5C7.59 12.76 7.27 12.89 6.9 12.89C6.74 12.89 6.59 12.86 6.45 12.8C6.29 12.74 6.13 12.64 5.99 12.5C5.86 12.36 5.76 12.22 5.7 12.06C5.64 11.91 5.62 11.75 5.62 11.59C5.62 11.38 5.65 11.19 5.73 11.03C5.8 10.89 5.88 10.77 5.99 10.67ZM11.09 12.5C10.83 12.24 10.7 11.94 10.7 11.59C10.7 11.39 10.73 11.21 10.81 11.05C10.87 10.91 10.96 10.78 11.09 10.67C11.34 10.42 11.64 10.3 12 10.3C12.36 10.3 12.67 10.42 12.92 10.67C13.17 10.91 13.3 11.22 13.3 11.59C13.3 11.75 13.27 11.91 13.21 12.06C13.15 12.22 13.05 12.36 12.92 12.5C12.67 12.76 12.36 12.89 12 12.89C11.83 12.89 11.68 12.86 11.54 12.8C11.38 12.74 11.22 12.64 11.09 12.5ZM16.18 12.5C15.92 12.24 15.79 11.94 15.79 11.59C15.79 11.39 15.82 11.21 15.9 11.05C15.96 10.91 16.05 10.78 16.18 10.67C16.43 10.42 16.73 10.3 17.09 10.3C17.45 10.3 17.76 10.42 18.01 10.67C18.25 10.91 18.37 11.22 18.37 11.59C18.37 11.76 18.34 11.93 18.28 12.08C18.22 12.23 18.13 12.37 18.01 12.5C17.76 12.76 17.45 12.89 17.09 12.89C16.92 12.89 16.77 12.86 16.63 12.8C16.47 12.74 16.31 12.64 16.18 12.5Z" fill="#000000" fill-opacity="0.600000" fill-rule="evenodd"/>
</svg>
