<svg width="24.000000" height="24.000000" viewBox="0 0 24 24" fill="none" xmlns="http://www.w3.org/2000/svg" xmlns:xlink="http://www.w3.org/1999/xlink">
	<desc>
			Created with Pixso.
	</desc>
	<defs>
		<clipPath id="clip46_2725">
			<rect width="24.000000" height="24.000000" fill="white" fill-opacity="0"/>
		</clipPath>
	</defs>
	<g clip-path="url(#clip46_2725)">
		<path d="M21.55 9.5L20.21 9.31C19.91 9.27 19.67 9.07 19.55 8.8C19.29 8.17 18.95 7.58 18.55 7.05C18.37 6.81 18.31 6.5 18.42 6.22L18.93 4.97C19.09 4.58 18.94 4.14 18.58 3.93L15.68 2.26C15.32 2.05 14.86 2.14 14.6 2.47L13.77 3.53C13.59 3.77 13.29 3.88 12.99 3.84C12.66 3.8 12.33 3.78 11.99 3.78C11.65 3.78 11.31 3.8 10.98 3.84C10.68 3.88 10.38 3.77 10.2 3.53L9.37 2.47C9.11 2.14 8.66 2.05 8.29 2.26L5.39 3.93C5.03 4.14 4.88 4.58 5.04 4.97L5.55 6.22C5.66 6.5 5.61 6.81 5.43 7.05C5.02 7.58 4.68 8.17 4.42 8.79C4.3 9.07 4.06 9.27 3.76 9.31L2.42 9.5C2.01 9.56 1.7 9.91 1.7 10.33L1.7 13.68C1.7 14.09 2.01 14.44 2.42 14.5L3.76 14.69C4.06 14.73 4.3 14.93 4.42 15.21C4.68 15.83 5.02 16.42 5.42 16.95C5.6 17.19 5.66 17.5 5.54 17.78L5.04 19.03C4.88 19.42 5.03 19.86 5.39 20.07L8.29 21.74C8.65 21.95 9.11 21.86 9.37 21.53L10.2 20.47C10.38 20.23 10.68 20.12 10.98 20.16C11.31 20.2 11.64 20.22 11.98 20.22C12.32 20.22 12.66 20.2 12.99 20.16C13.29 20.12 13.59 20.23 13.77 20.47L14.6 21.53C14.86 21.86 15.31 21.95 15.67 21.74L18.57 20.07C18.93 19.86 19.08 19.42 18.93 19.03L18.42 17.78C18.31 17.5 18.36 17.19 18.54 16.95C18.95 16.42 19.29 15.83 19.55 15.21C19.67 14.93 19.91 14.73 20.2 14.69L21.55 14.5C21.96 14.44 22.26 14.09 22.26 13.68L22.26 10.33C22.27 9.91 21.96 9.56 21.55 9.5ZM11.99 15.26C10.19 15.26 8.73 13.8 8.73 12C8.73 10.2 10.19 8.74 11.99 8.74C13.78 8.74 15.24 10.2 15.24 12C15.24 13.8 13.78 15.26 11.99 15.26Z" fill="#000000" fill-opacity="0.600000" fill-rule="nonzero"/>
	</g>
</svg>
