<svg width="24.000000" height="24.000000" viewBox="0 0 24 24" fill="none" xmlns="http://www.w3.org/2000/svg" xmlns:xlink="http://www.w3.org/1999/xlink">
	<desc>
			Created with Pixso.
	</desc>
	<defs>
		<clipPath id="clip65_2313">
			<rect width="24.000000" height="24.000000" fill="white" fill-opacity="0"/>
		</clipPath>
	</defs>
	<g clip-path="url(#clip65_2313)">
		<path d="M16.58 2.18C14.77 2.18 13.09 3.09 11.97 4.59C10.87 3.09 9.18 2.18 7.36 2.18C4.1 2.18 1.45 5.08 1.45 8.65C1.45 10.77 2.4 12.27 3.16 13.47C5.38 16.96 10.98 21.3 11.22 21.48C11.44 21.66 11.71 21.74 11.97 21.74C12.24 21.74 12.5 21.66 12.73 21.48C12.97 21.3 18.55 16.95 20.78 13.47C21.55 12.27 22.5 10.77 22.5 8.65C22.5 5.08 19.84 2.18 16.58 2.18Z" fill="#D81E06" fill-opacity="1.000000" fill-rule="nonzero"/>
	</g>
</svg>
