<svg width="24.000000" height="24.000000" viewBox="0 0 24 24" fill="none" xmlns="http://www.w3.org/2000/svg" xmlns:xlink="http://www.w3.org/1999/xlink">
	<desc>
			Created with Pixso.
	</desc>
	<defs>
		<clipPath id="clip65_2319">
			<rect width="24.000000" height="24.000000" fill="white" fill-opacity="0"/>
		</clipPath>
	</defs>
	<g clip-path="url(#clip65_2319)">
		<path d="M17.11 5.45C17.11 5.17 17.25 4.89 17.4 4.6C17.68 4.46 17.96 4.32 18.25 4.32C18.54 4.32 18.81 4.46 19.1 4.6C19.39 4.75 19.39 5.17 19.39 5.45C19.39 5.74 19.24 6.02 19.1 6.31C18.81 6.45 18.54 6.59 18.25 6.59C17.96 6.59 17.68 6.45 17.4 6.31C17.25 6.03 17.11 5.74 17.11 5.45ZM13.99 3.46C13.99 3.17 14.13 2.76 14.42 2.47C14.71 2.18 14.98 2.04 15.42 2.04C15.85 2.04 16.12 2.18 16.41 2.47C16.7 2.76 16.84 3.03 16.84 3.46C16.84 3.89 16.7 4.17 16.41 4.46C16.12 4.75 15.85 4.89 15.42 4.89C14.98 4.89 14.71 4.75 14.42 4.46C14.13 4.18 13.99 3.89 13.99 3.46ZM9.86 2.9C9.86 2.47 10 2.05 10.29 1.76C10.58 1.47 11 1.33 11.43 1.33C11.86 1.33 12.28 1.47 12.57 1.76C12.86 2.05 13 2.47 13 2.9C13 3.33 12.86 3.75 12.57 4.04C12.28 4.33 11.86 4.47 11.43 4.47C11 4.47 10.58 4.33 10.29 4.04C10 3.75 9.86 3.33 9.86 2.9ZM4.6 3.19C4.6 2.62 4.89 2.19 5.17 1.77C5.6 1.34 6.16 1.19 6.6 1.19C7.16 1.19 7.74 1.48 8.01 1.76C8.44 2.19 8.58 2.61 8.58 3.17C8.58 3.74 8.29 4.17 8.01 4.59C7.58 5.02 7.02 5.15 6.6 5.15C6.03 5.15 5.46 4.87 5.18 4.59C4.75 4.18 4.6 3.75 4.6 3.19ZM14.26 5.74L8.72 5.74C6.87 5.89 5.46 7.3 5.46 9.15C5.46 10.43 6.16 11.42 7.16 12.14C7.16 12.14 9.15 13.13 7.16 18.1C7.02 18.54 6.87 18.95 6.87 19.39C6.87 21.24 8.43 22.8 10.42 22.8C11.28 22.8 12.13 22.51 12.69 21.94C16.24 19.1 18.52 14.84 18.52 10L18.52 9.86C18.54 7.73 16.69 5.74 14.26 5.74Z" fill="#64BB5C" fill-opacity="1.000000" fill-rule="nonzero"/>
	</g>
</svg>
