<svg width="16.000000" height="16.000000" viewBox="0 0 16 16" fill="none" xmlns="http://www.w3.org/2000/svg" xmlns:xlink="http://www.w3.org/1999/xlink">
	<desc>
			Created with Pixso.
	</desc>
	<defs>
		<clipPath id="clip65_2984">
			<rect width="16.000000" height="16.000000" fill="white" fill-opacity="0"/>
		</clipPath>
	</defs>
	<g clip-path="url(#clip65_2984)">
		<path d="M12.4 2.8L10.19 2.8L10.19 1.92C10.19 1.42 9.78 1.01 9.28 1.01L6.64 1.01C6.14 1.01 5.73 1.42 5.73 1.92L5.73 2.8L3.52 2.8C2.83 2.8 2.26 3.36 2.26 4.05C2.26 4.58 2.6 5.04 3.07 5.22L3.07 12.69C3.07 13.97 4.11 15.01 5.38 15.01L10.54 15.01C11.81 15.01 12.85 13.97 12.85 12.69L12.85 5.22C13.32 5.04 13.65 4.58 13.65 4.05C13.66 3.36 13.1 2.8 12.4 2.8ZM6.23 12.36C6.23 12.6 6.04 12.8 5.79 12.8C5.55 12.8 5.36 12.6 5.36 12.36L5.36 7.07C5.36 6.83 5.55 6.64 5.79 6.64C6.04 6.64 6.23 6.83 6.23 7.07L6.23 12.36ZM8.43 12.36C8.43 12.6 8.23 12.8 7.99 12.8C7.75 12.8 7.55 12.6 7.55 12.36L7.55 7.07C7.55 6.83 7.75 6.64 7.99 6.64C8.23 6.64 8.43 6.83 8.43 7.07L8.43 12.36ZM10.63 12.36C10.63 12.6 10.43 12.8 10.19 12.8C9.95 12.8 9.75 12.6 9.75 12.36L9.75 7.07C9.75 6.83 9.95 6.64 10.19 6.64C10.43 6.64 10.63 6.83 10.63 7.07L10.63 12.36Z" fill="#FFFFFF" fill-opacity="1.000000" fill-rule="nonzero"/>
	</g>
</svg>
