<svg width="16.000000" height="16.000000" viewBox="0 0 16 16" fill="none" xmlns="http://www.w3.org/2000/svg" xmlns:xlink="http://www.w3.org/1999/xlink">
	<desc>
			Created with Pixso.
	</desc>
	<defs>
		<clipPath id="clip65_2707">
			<rect width="16.000000" height="16.000000" fill="white" fill-opacity="0"/>
		</clipPath>
	</defs>
	<g clip-path="url(#clip65_2707)">
		<path d="M13.82 3.49C13.86 3.58 13.89 3.67 13.91 3.78C13.93 3.89 13.95 4.01 13.95 4.12C13.95 4.24 13.92 4.36 13.88 4.48C13.83 4.6 13.76 4.71 13.66 4.82C13.55 4.93 13.45 5.02 13.37 5.11C13.28 5.19 13.21 5.26 13.14 5.33C13.07 5.4 13 5.46 12.94 5.52L10.39 2.96C10.5 2.86 10.63 2.74 10.78 2.6C10.93 2.46 11.06 2.35 11.16 2.26C11.28 2.16 11.41 2.09 11.55 2.05C11.69 2.01 11.82 1.99 11.95 2C12.08 2 12.21 2.02 12.33 2.06C12.46 2.09 12.56 2.14 12.65 2.18C12.84 2.28 13.05 2.46 13.29 2.71C13.52 2.96 13.7 3.22 13.82 3.49ZM3.22 10.17C3.28 10.11 3.4 9.98 3.6 9.78C3.8 9.57 4.05 9.32 4.35 9.02L5.34 8.02L6.45 6.91L9.37 3.97L11.92 6.54L8.99 9.48L7.9 10.59C7.54 10.95 7.21 11.27 6.92 11.57C6.63 11.86 6.39 12.11 6.2 12.3C6.01 12.49 5.9 12.6 5.86 12.63C5.77 12.71 5.67 12.8 5.55 12.89C5.43 12.98 5.31 13.05 5.18 13.11C5.06 13.17 4.87 13.25 4.62 13.34C4.38 13.43 4.12 13.52 3.85 13.61C3.59 13.69 3.33 13.77 3.09 13.83C2.85 13.89 2.67 13.94 2.56 13.95C2.31 13.98 2.15 13.95 2.06 13.85C1.98 13.75 1.96 13.58 2 13.34C2.02 13.21 2.06 13.03 2.13 12.79C2.19 12.54 2.27 12.29 2.34 12.03C2.42 11.77 2.5 11.54 2.57 11.32C2.64 11.1 2.7 10.95 2.75 10.86C2.8 10.74 2.86 10.62 2.93 10.52C3 10.41 3.1 10.29 3.22 10.17ZM7.79 12.76L9.01 12.76L9.01 13.98L7.79 13.98L7.79 12.76ZM10.27 12.76L11.49 12.76L11.49 13.98L10.27 13.98L10.27 12.76ZM12.75 12.76L13.97 12.76L13.97 13.98L12.75 13.98L12.75 12.76Z" fill="#000000" fill-opacity="1.000000" fill-rule="nonzero"/>
	</g>
</svg>
