<svg width="24.000000" height="24.000000" viewBox="0 0 24 24" fill="none" xmlns="http://www.w3.org/2000/svg" xmlns:xlink="http://www.w3.org/1999/xlink">
	<desc>
			Created with Pixso.
	</desc>
	<defs>
		<clipPath id="clip90_6372">
			<rect width="24.000000" height="24.000000" fill="white" fill-opacity="0"/>
		</clipPath>
	</defs>
	<g clip-path="url(#clip90_6372)">
		<g opacity="0.000000">
			<rect width="24.000000" height="24.000000" fill="#000000" fill-opacity="1.000000"/>
		</g>
		<path d="M11.3 15.46C11.33 15.62 11.35 15.73 11.35 15.78C11.35 16.65 11.04 17.39 10.42 18.01L8.81 19.62C8.52 19.91 8.18 20.13 7.79 20.29C7.39 20.45 7 20.53 6.6 20.53C5.75 20.53 5.01 20.23 4.37 19.62C3.74 19.02 3.43 18.28 3.43 17.41C3.43 17.01 3.51 16.62 3.67 16.24C3.83 15.84 4.06 15.49 4.37 15.18L5.98 13.58C6.6 12.96 7.34 12.64 8.21 12.64C8.27 12.64 8.38 12.66 8.54 12.7L9.79 11.45C9.26 11.25 8.72 11.15 8.18 11.15C7.59 11.15 7.01 11.27 6.44 11.5C5.87 11.74 5.36 12.07 4.92 12.5L3.29 14.13C2.85 14.56 2.52 15.06 2.29 15.64C2.05 16.22 1.94 16.8 1.94 17.39C1.94 17.99 2.05 18.57 2.29 19.14C2.52 19.73 2.85 20.24 3.29 20.68C3.73 21.13 4.24 21.47 4.81 21.71C5.37 21.94 5.96 22.05 6.58 22.05C7.18 22.05 7.77 21.94 8.34 21.71C8.9 21.47 9.41 21.13 9.85 20.68L11.47 19.08C11.91 18.63 12.25 18.12 12.49 17.56C12.72 17 12.84 16.41 12.84 15.78C12.84 15.3 12.74 14.78 12.55 14.21L11.3 15.46ZM20.69 3.3C20.24 2.86 19.74 2.52 19.18 2.28C18.62 2.05 18.02 1.93 17.4 1.93C16.79 1.93 16.2 2.05 15.64 2.28C15.06 2.52 14.56 2.86 14.14 3.3L12.5 4.91C12.07 5.36 11.74 5.87 11.51 6.42C11.27 6.98 11.16 7.58 11.16 8.2C11.16 8.75 11.25 9.27 11.45 9.78L12.67 8.56L12.65 8.2C12.65 7.78 12.73 7.38 12.89 7C13.05 6.62 13.27 6.28 13.56 6L15.19 4.37C15.77 3.76 16.5 3.45 17.4 3.45C18.28 3.45 19.02 3.76 19.62 4.37C19.93 4.65 20.16 4.99 20.32 5.37C20.46 5.75 20.54 6.15 20.54 6.57C20.54 7.45 20.23 8.2 19.62 8.8L18 10.43C17.66 10.77 17.27 11.01 16.82 11.15C16.37 11.3 15.91 11.35 15.43 11.29L14.21 12.54C14.72 12.74 15.25 12.84 15.79 12.84C16.39 12.84 16.98 12.72 17.56 12.49C18.12 12.25 18.63 11.91 19.08 11.47L20.69 9.85C21.13 9.41 21.47 8.9 21.71 8.33C21.94 7.77 22.06 7.18 22.06 6.57C22.06 5.96 21.94 5.37 21.71 4.8C21.47 4.24 21.13 3.74 20.69 3.3ZM16.78 8.27C16.92 8.13 16.99 7.95 16.99 7.75C16.99 7.54 16.92 7.36 16.78 7.21C16.63 7.07 16.45 7 16.25 7C16.04 7 15.86 7.07 15.72 7.21L7.22 15.72C7.06 15.87 6.98 16.05 6.98 16.25C6.98 16.44 7.06 16.62 7.22 16.77C7.36 16.91 7.54 16.99 7.75 16.99C7.95 16.99 8.13 16.91 8.28 16.77L16.78 8.27Z" fill="#191919" fill-opacity="1.000000" fill-rule="nonzero"/>
	</g>
</svg>
