<svg width="24.000000" height="24.000000" viewBox="0 0 24 24" fill="none" xmlns="http://www.w3.org/2000/svg" xmlns:xlink="http://www.w3.org/1999/xlink">
	<desc>
			Created with Pixso.
	</desc>
	<defs>
		<clipPath id="clip90_6364">
			<rect width="24.000000" height="24.000000" fill="white" fill-opacity="0"/>
		</clipPath>
	</defs>
	<g clip-path="url(#clip90_6364)">
		<g opacity="0.000000">
			<rect width="24.000000" height="24.000000" fill="#000000" fill-opacity="1.000000"/>
		</g>
		<path d="M6 1.01C5.16 1.01 4.46 1.3 3.88 1.88C3.29 2.46 3 3.17 3 4.01L3 20.02C3 20.84 3.29 21.55 3.88 22.14C4.46 22.72 5.16 23.02 6 23.02L18 23.02C18.83 23.02 19.54 22.72 20.12 22.14C20.7 21.55 21 20.84 21 20.02L21 4.01C21 3.17 20.7 2.46 20.12 1.88C19.54 1.3 18.83 1.01 18 1.01L6 1.01ZM19.51 20.02C19.51 20.43 19.36 20.78 19.07 21.07C18.77 21.35 18.41 21.5 18 21.5L6 21.5C5.58 21.5 5.23 21.35 4.94 21.07C4.65 20.78 4.51 20.43 4.51 20.02L4.51 4.01C4.51 3.58 4.65 3.23 4.94 2.94C5.23 2.64 5.58 2.5 6 2.5L18 2.5C18.41 2.5 18.77 2.64 19.07 2.94C19.36 3.23 19.51 3.58 19.51 4.01L19.51 20.02ZM6.86 13.87C6.65 13.87 6.48 13.94 6.34 14.09C6.19 14.23 6.12 14.4 6.12 14.62C6.12 14.82 6.19 15 6.34 15.14C6.48 15.28 6.65 15.36 6.86 15.36L17.35 15.36C17.55 15.36 17.73 15.28 17.87 15.14C18.02 15 18.1 14.82 18.1 14.62C18.1 14.4 18.02 14.23 17.87 14.09C17.73 13.94 17.55 13.87 17.35 13.87L6.86 13.87ZM6.86 16.87C6.65 16.87 6.48 16.94 6.34 17.09C6.19 17.23 6.12 17.4 6.12 17.62C6.12 17.82 6.19 18 6.34 18.14C6.48 18.28 6.65 18.36 6.86 18.36L17.35 18.36C17.55 18.36 17.73 18.28 17.87 18.14C18.02 18 18.1 17.82 18.1 17.62C18.1 17.4 18.02 17.23 17.87 17.09C17.73 16.94 17.55 16.87 17.35 16.87L6.86 16.87ZM12.86 10.78C13.34 10.78 13.75 10.6 14.1 10.26C14.44 9.91 14.62 9.5 14.62 9.02L14.62 7.01C14.62 6.53 14.44 6.11 14.1 5.77C13.75 5.43 13.34 5.26 12.86 5.26L7.87 5.26C7.39 5.26 6.98 5.43 6.64 5.77C6.29 6.11 6.12 6.53 6.12 7.01L6.12 9.02C6.12 9.5 6.29 9.91 6.64 10.26C6.98 10.6 7.39 10.78 7.87 10.78L12.86 10.78ZM7.61 7.01C7.61 6.94 7.63 6.88 7.68 6.83C7.72 6.79 7.79 6.77 7.87 6.77L12.86 6.77C12.94 6.77 13 6.79 13.06 6.83C13.1 6.88 13.13 6.94 13.13 7.01L13.13 9.02C13.13 9.08 13.1 9.14 13.06 9.19C13 9.26 12.94 9.29 12.86 9.29L7.87 9.29C7.81 9.29 7.75 9.26 7.69 9.19C7.63 9.14 7.61 9.08 7.61 9.02L7.61 7.01Z" fill="#191919" fill-opacity="1.000000" fill-rule="nonzero"/>
	</g>
</svg>
